Oodle Sans.glyphspackage
{
glyphname = quotedbl;
kernLeft = quote;
kernRight = quote;
layers = (
{
background = {
shapes = (
{
closed = 1;
nodes = (
(163,543,o),
(200,578,o),
(200,666,cs),
(200,800,l),
(58,800,l),
(58,707,l),
(113,707,l),
(113,671,ls),
(113,638,o),
(97,621,o),
(62,617,c),
(87,528,l)
);
}
);
};
layerId = "3E7589AA-8194-470F-8E2F-13C1C581BE24";
shapes = (
{
ref = quotesingle;
},
{
pos = (203,0);
ref = quotesingle;
}
);
width = 494;
},
{
background = {
shapes = (
{
closed = 1;
nodes = (
(174,406,o),
(258,481,o),
(258,622,cs),
(258,800,l),
(28,800,l),
(28,636,l),
(90,636,l),
(90,615,ls),
(90,573,o),
(67,560,o),
(27,556,c),
(55,398,l)
);
}
);
};
guides = (
{
pos = (49,430);
}
);
layerId = "BFFFD157-90D3-4B85-B99D-9A2F366F03CA";
shapes = (
{
alignment = -1;
ref = quotesingle;
},
{
alignment = -1;
pos = (264,0);
ref = quotesingle;
}
);
width = 610;
},
{
layerId = "FA91A8E1-7324-47F6-AE85-AED49CFCD01C";
shapes = (
{
alignment = -1;
ref = quotesingle;
},
{
alignment = -1;
pos = (122,0);
ref = quotesingle;
}
);
width = 335;
}
);
metricLeft = quotesingle;
metricRight = quotesingle;
unicode = 34;
}
{
color = 10;
glyphname = percent;
layers = (
{
background = {
shapes = (
{
closed = 1;
nodes = (
(265,308,o),
(312,376,o),
(312,508,cs),
(312,635,o),
(270,707,o),
(175,707,cs),
(79,707,o),
(33,637,o),
(33,503,cs),
(33,376,o),
(76,308,o),
(170,308,cs)
);
},
{
closed = 1;
nodes = (
(125,386,o),
(113,427,o),
(113,507,cs),
(113,588,o),
(126,628,o),
(172,628,cs),
(219,628,o),
(232,587,o),
(232,504,cs),
(232,424,o),
(219,386,o),
(173,386,cs)
);
}
);
};
hints = (
{
horizontal = 1;
origin = (0,0);
type = TTSnap;
},
{
horizontal = 1;
origin = (4,5);
type = TTSnap;
},
{
horizontal = 1;
options = 4;
origin = (0,1);
stem = 0;
target = (0,1);
type = TTStem;
},
{
horizontal = 1;
origin = (2,11);
stem = 0;
target = (4,5);
type = TTStem;
},
{
horizontal = 1;
options = 4;
origin = (1,11);
stem = 0;
target = (2,11);
type = TTStem;
},
{
horizontal = 1;
origin = (1,5);
stem = 0;
target = (2,5);
type = TTStem;
}
);
layerId = "3E7589AA-8194-470F-8E2F-13C1C581BE24";
shapes = (
{
closed = 1;
nodes = (
(235,0,l),
(323,0,l),
(573,700,l),
(485,700,l)
);
},
{
closed = 1;
nodes = (
(265,308,o),
(312,376,o),
(312,508,cs),
(312,635,o),
(270,707,o),
(175,707,cs),
(79,707,o),
(33,637,o),
(33,503,cs),
(33,376,o),
(76,308,o),
(170,308,cs)
);
},
{
closed = 1;
nodes = (
(124,386,o),
(113,427,o),
(113,507,cs),
(113,588,o),
(125,628,o),
(172,628,cs),
(220,628,o),
(232,587,o),
(232,504,cs),
(232,424,o),
(221,386,o),
(173,386,cs)
);
},
{
closed = 1;
nodes = (
(728,-7,o),
(775,61,o),
(775,193,cs),
(775,320,o),
(733,392,o),
(638,392,cs),
(542,392,o),
(496,322,o),
(496,188,cs),
(496,61,o),
(539,-7,o),
(633,-7,cs)
);
},
{
closed = 1;
nodes = (
(588,71,o),
(576,112,o),
(576,192,cs),
(576,273,o),
(589,313,o),
(635,313,cs),
(682,313,o),
(695,272,o),
(695,189,cs),
(695,109,o),
(682,71,o),
(636,71,cs)
);
}
);
width = 808;
},
{
background = {
shapes = (
{
closed = 1;
nodes = (
(396,425,l),
(215,0,l),
(428,0,l),
(470,248,l),
(658,700,l),
(445,700,l)
);
}
);
};
layerId = "BFFFD157-90D3-4B85-B99D-9A2F366F03CA";
shapes = (
{
closed = 1;
nodes = (
(205,0,l),
(368,0,l),
(678,700,l),
(515,700,l)
);
},
{
closed = 1;
nodes = (
(307,307,o),
(372,378,o),
(372,510,cs),
(372,636,o),
(313,708,o),
(197,708,cs),
(78,708,o),
(13,637,o),
(13,503,cs),
(13,376,o),
(75,307,o),
(189,307,cs)
);
},
{
closed = 1;
nodes = (
(165,440,o),
(157,463,o),
(157,506,cs),
(157,550,o),
(166,570,o),
(192,570,cs),
(220,570,o),
(228,550,o),
(228,505,cs),
(228,462,o),
(221,440,o),
(194,440,cs)
);
},
{
closed = 1;
nodes = (
(805,-8,o),
(870,63,o),
(870,195,cs),
(870,321,o),
(811,393,o),
(695,393,cs),
(576,393,o),
(511,322,o),
(511,188,cs),
(511,61,o),
(573,-8,o),
(687,-8,cs)
);
},
{
closed = 1;
nodes = (
(663,125,o),
(655,148,o),
(655,191,cs),
(655,235,o),
(664,255,o),
(690,255,cs),
(718,255,o),
(726,235,o),
(726,190,cs),
(726,147,o),
(719,125,o),
(692,125,cs)
);
}
);
width = 883;
},
{
layerId = "FA91A8E1-7324-47F6-AE85-AED49CFCD01C";
shapes = (
{
closed = 1;
nodes = (
(239,0,l),
(247,0,l),
(507,700,l),
(499,700,l)
);
},
{
closed = 1;
nodes = (
(246,309,o),
(285,372,o),
(285,506,cs),
(285,640,o),
(248,706,o),
(169,706,cs),
(91,706,o),
(52,638,o),
(52,507,cs),
(52,374,o),
(90,309,o),
(169,309,cs)
);
},
{
closed = 1;
nodes = (
(94,316,o),
(59,379,o),
(59,506,cs),
(59,635,o),
(95,699,o),
(170,699,cs),
(245,699,o),
(277,635,o),
(277,507,cs),
(277,375,o),
(242,316,o),
(168,316,cs)
);
},
{
closed = 1;
nodes = (
(649,-6,o),
(688,57,o),
(688,191,cs),
(688,325,o),
(651,391,o),
(572,391,cs),
(494,391,o),
(455,323,o),
(455,192,cs),
(455,59,o),
(493,-6,o),
(572,-6,cs)
);
},
{
closed = 1;
nodes = (
(497,1,o),
(462,64,o),
(462,191,cs),
(462,320,o),
(498,384,o),
(573,384,cs),
(648,384,o),
(680,320,o),
(680,192,cs),
(680,60,o),
(645,1,o),
(571,1,cs)
);
}
);
width = 739;
},
{
associatedMasterId = "3E7589AA-8194-470F-8E2F-13C1C581BE24";
attr = {
coordinates = (
155
);
};
background = {
shapes = (
{
closed = 1;
nodes = (
(815,-8,o),
(880,63,o),
(880,195,cs),
(880,321,o),
(821,393,o),
(705,393,cs),
(586,393,o),
(521,322,o),
(521,188,cs),
(521,61,o),
(583,-8,o),
(697,-8,cs)
);
},
{
closed = 1;
nodes = (
(669,120,o),
(660,145,o),
(660,191,cs),
(660,238,o),
(670,260,o),
(700,260,cs),
(732,260,o),
(741,238,o),
(741,190,cs),
(741,144,o),
(733,120,o),
(702,120,cs)
);
}
);
};
hints = (
{
horizontal = 1;
place = (0, 0);
type = TTSnap;
},
{
horizontal = 1;
place = (263, 0);
type = TTSnap;
},
{
horizontal = 1;
options = 4;
place = (0, 0);
stem = 0;
type = TTStem;
},
{
horizontal = 1;
place = (413, -150);
stem = 0;
type = TTStem;
},
{
horizontal = 1;
options = 4;
place = (308, 105);
stem = 0;
type = TTStem;
},
{
horizontal = 1;
place = (708, -109);
stem = 0;
type = TTStem;
}
);
layerId = "6A79A216-FC04-453C-89B6-DEAED1B45401";
name = "{155}";
shapes = (
{
closed = 1;
nodes = (
(215,0,l),
(378,0,l),
(688,700,l),
(525,700,l)
);
},
{
closed = 1;
nodes = (
(317,307,o),
(382,378,o),
(382,510,cs),
(382,636,o),
(323,708,o),
(207,708,cs),
(88,708,o),
(23,637,o),
(23,503,cs),
(23,376,o),
(85,307,o),
(199,307,cs)
);
},
{
closed = 1;
nodes = (
(171,435,o),
(162,460,o),
(162,506,cs),
(162,553,o),
(172,575,o),
(202,575,cs),
(234,575,o),
(243,553,o),
(243,505,cs),
(243,459,o),
(235,435,o),
(204,435,cs)
);
},
{
closed = 1;
nodes = (
(815,-8,o),
(880,63,o),
(880,195,cs),
(880,321,o),
(821,393,o),
(705,393,cs),
(586,393,o),
(521,322,o),
(521,188,cs),
(521,61,o),
(583,-8,o),
(697,-8,cs)
);
},
{
closed = 1;
nodes = (
(669,120,o),
(660,145,o),
(660,191,cs),
(660,238,o),
(670,260,o),
(700,260,cs),
(732,260,o),
(741,238,o),
(741,190,cs),
(741,144,o),
(734,120,o),
(702,120,cs)
);
}
);
width = 903;
}
);
metricLeft = zero.numr;
metricRight = zero.numr;
unicode = 37;
}
{
glyphname = ampersand;
layers = (
{
background = {
shapes = (
{
closed = 0;
nodes = (
(593,32,ls),
(418,164,o),
(197,339,o),
(197,508,cs),
(197,621,o),
(292,663,o),
(389,663,cs),
(496,663,o),
(535,613,o),
(535,546,cs),
(535,328,o),
(125,406,o),
(125,184,cs),
(125,85,o),
(208,30,o),
(329,30,cs),
(539,30,o),
(585,169,o),
(585,381,c),
(686,381,l)
);
}
);
};
hints = (
{
horizontal = 1;
options = 4;
origin = (0,6);
stem = 2;
target = (0,21);
type = TTStem;
},
{
horizontal = 1;
options = 4;
origin = (1,6);
stem = 2;
target = (1,28);
type = TTStem;
},
{
horizontal = 1;
origin = (1,20);
type = TTSnap;
},
{
horizontal = 1;
origin = (0,14);
type = TTSnap;
}
);
layerId = "3E7589AA-8194-470F-8E2F-13C1C581BE24";
shapes = (
{
closed = 1;
nodes = (
(214,373,l),
(163,344,o),
(80,291,o),
(80,174,cs),
(80,51,o),
(170,-12,o),
(320,-12,cs),
(409,-12,o),
(469,14,o),
(515,52,c),
(556,66,l),
(603,132,o),
(639,231,o),
(634,364,c),
(540,364,l),
(545,241,o),
(519,164,o),
(486,117,c),
(454,114,l),
(420,89,o),
(384,74,o),
(324,74,cs),
(216,74,o),
(170,115,o),
(170,182,cs),
(170,246,o),
(213,277,o),
(250,306,c)
);
},
{
closed = 1;
nodes = (
(341,247,l),
(424,300,o),
(517,402,o),
(517,537,cs),
(517,650,o),
(456,707,o),
(346,707,cs),
(213,707,o),
(152,630,o),
(152,511,cs),
(152,449,o),
(171,392,o),
(204,338,c),
(221,312,l),
(276,231,o),
(358,155,o),
(449,76,c),
(474,54,l),
(494,36,o),
(515,18,o),
(536,0,c),
(673,0,l),
(677,16,l),
(402,232,o),
(241,365,o),
(241,515,cs),
(241,574,o),
(266,620,o),
(338,620,cs),
(409,620,o),
(430,575,o),
(430,524,cs),
(430,433,o),
(366,356,o),
(287,310,c)
);
}
);
width = 740;
},
{
layerId = "BFFFD157-90D3-4B85-B99D-9A2F366F03CA";
shapes = (
{
closed = 1;
nodes = (
(177,388,l),
(127,352,o),
(46,297,o),
(46,178,cs),
(46,54,o),
(136,-12,o),
(262,-12,cs),
(354,-12,o),
(413,9,o),
(461,52,c),
(572,56,l),
(659,142,o),
(703,241,o),
(703,379,c),
(526,379,l),
(526,271,o),
(495,214,o),
(412,187,c),
(351,178,l),
(321,149,o),
(301,145,o),
(276,145,cs),
(242,145,o),
(226,165,o),
(226,191,cs),
(226,217,o),
(236,234,o),
(269,261,c)
);
},
{
closed = 1;
nodes = (
(323,238,l),
(415,276,o),
(529,374,o),
(529,526,cs),
(529,623,o),
(473,707,o),
(326,707,cs),
(152,707,o),
(102,602,o),
(102,511,cs),
(102,446,o),
(130,385,o),
(176,324,c),
(222,282,l),
(265,234,o),
(319,185,o),
(377,134,c),
(422,87,l),
(454,59,o),
(488,30,o),
(522,0,c),
(699,0,l),
(717,58,l),
(441,288,o),
(277,425,o),
(277,504,cs),
(277,528,o),
(288,551,o),
(321,551,cs),
(354,551,o),
(363,527,o),
(363,502,cs),
(363,434,o),
(304,384,o),
(246,359,c)
);
}
);
width = 750;
},
{
associatedMasterId = "3E7589AA-8194-470F-8E2F-13C1C581BE24";
attr = {
coordinates = (
155
);
};
background = {
shapes = (
{
closed = 1;
nodes = (
(188,382,l),
(138,348,o),
(55,295,o),
(55,176,cs),
(55,52,o),
(137,-12,o),
(277,-12,cs),
(368,-12,o),
(427,11,o),
(475,52,c),
(588,64,l),
(653,140,o),
(685,239,o),
(683,376,c),
(517,376,l),
(521,264,o),
(496,194,o),
(441,157,c),
(354,162,l),
(336,149,o),
(317,138,o),
(286,138,cs),
(245,138,o),
(220,158,o),
(220,192,cs),
(220,222,o),
(234,241,o),
(258,263,c)
);
},
{
closed = 1;
nodes = (
(328,241,l),
(418,282,o),
(527,381,o),
(527,529,cs),
(527,630,o),
(469,707,o),
(331,707,cs),
(168,707,o),
(108,609,o),
(108,509,cs),
(108,324,o),
(294,181,o),
(517,0,c),
(693,0,l),
(708,50,l),
(429,276,o),
(273,407,o),
(273,499,cs),
(273,530,o),
(286,557,o),
(323,557,cs),
(358,557,o),
(368,530,o),
(368,500,cs),
(368,430,o),
(317,384,o),
(257,352,c)
);
}
);
};
layerId = "91D3D3D2-0295-4D5E-9CB9-F977AB397211";
name = "{155}";
shapes = (
{
closed = 1;
nodes = (
(197,379,l),
(146,347,o),
(63,293,o),
(63,173,cs),
(63,49,o),
(148,-12,o),
(291,-12,cs),
(382,-12,o),
(448,12,o),
(495,52,c),
(591,71,l),
(653,137,o),
(677,236,o),
(677,372,c),
(524,372,l),
(524,256,o),
(504,184,o),
(439,147,c),
(385,156,l),
(362,143,o),
(338,130,o),
(301,130,cs),
(254,130,o),
(219,149,o),
(219,191,cs),
(219,225,o),
(238,247,o),
(263,268,c)
);
},
{
closed = 1;
nodes = (
(332,243,l),
(420,288,o),
(532,388,o),
(532,532,cs),
(532,637,o),
(465,707,o),
(336,707,cs),
(183,707,o),
(114,615,o),
(114,506,cs),
(114,438,o),
(137,375,o),
(176,316,c),
(214,287,l),
(260,228,o),
(320,172,o),
(388,115,c),
(425,67,l),
(452,45,o),
(480,23,o),
(508,0,c),
(683,0,l),
(696,41,l),
(424,264,o),
(269,389,o),
(269,494,cs),
(269,532,o),
(283,562,o),
(324,562,cs),
(362,562,o),
(372,532,o),
(372,497,cs),
(372,425,o),
(330,383,o),
(267,345,c)
);
}
);
width = 745;
},
{
layerId = "FA91A8E1-7324-47F6-AE85-AED49CFCD01C";
shapes = (
{
closed = 1;
nodes = (
(235,345,l),
(162,312,o),
(101,258,o),
(101,161,cs),
(101,52,o),
(178,-10,o),
(315,-10,cs),
(422,-10,o),
(480,24,o),
(516,66,c),
(520,65,l),
(566,124,o),
(590,217,o),
(591,355,c),
(581,355,l),
(581,215,o),
(556,125,o),
(513,71,c),
(510,71,l),
(474,31,o),
(415,-1,o),
(315,-1,cs),
(184,-1,o),
(109,58,o),
(109,161,cs),
(109,254,o),
(167,305,o),
(239,338,c)
);
},
{
closed = 1;
nodes = (
(312,246,l),
(399,313,o),
(488,423,o),
(488,557,cs),
(488,664,o),
(435,706,o),
(351,706,cs),
(234,706,o),
(186,618,o),
(186,509,cs),
(186,448,o),
(200,395,o),
(233,341,c),
(235,338,l),
(282,259,o),
(370,177,o),
(509,66,c),
(511,64,l),
(537,44,o),
(563,22,o),
(592,0,c),
(602,0,l),
(604,2,l),
(302,238,o),
(194,346,o),
(194,508,cs),
(194,613,o),
(238,698,o),
(351,698,cs),
(430,698,o),
(479,658,o),
(479,556,cs),
(479,429,o),
(396,321,o),
(307,253,c)
);
}
);
width = 694;
},
{
associatedMasterId = "BFFFD157-90D3-4B85-B99D-9A2F366F03CA";
layerId = "6F50ADF3-7BBA-4983-8F33-DDEBC9C7F0D4";
name = "Apr 23 17, 14:35";
shapes = (
{
closed = 1;
nodes = (
(690,127,o),
(704,258,o),
(700,379,c),
(516,379,l),
(521,322,o),
(520,270,o),
(515,228,c),
(483,256,o),
(454,281,o),
(428,305,c),
(484,357,o),
(529,431,o),
(529,526,cs),
(529,623,o),
(473,707,o),
(326,707,cs),
(152,707,o),
(102,602,o),
(102,511,cs),
(102,459,o),
(119,411,o),
(148,363,c),
(101,327,o),
(46,275,o),
(46,178,cs),
(46,54,o),
(126,-12,o),
(262,-12,cs),
(354,-12,o),
(413,9,o),
(461,52,c),
(461,52,l),
(522,0,l),
(664,0,l)
);
},
{
closed = 1;
nodes = (
(354,551,o),
(363,527,o),
(363,502,cs),
(363,467,o),
(347,436,o),
(324,412,c),
(293,449,o),
(277,479,o),
(277,504,cs),
(277,528,o),
(288,551,o),
(321,551,cs)
);
},
{
closed = 1;
nodes = (
(310,155,o),
(295,146,o),
(270,146,cs),
(236,146,o),
(220,166,o),
(220,192,cs),
(220,214,o),
(227,229,o),
(242,247,c),
(268,221,o),
(297,194,o),
(327,167,c),
(322,168,l)
);
}
);
width = 755;
}
);
unicode = 38;
}
{
glyphname = parenright;
layers = (
{
hints = (
{
horizontal = 1;
options = 4;
origin = (0,12);
stem = 1;
target = (0,5);
type = TTStem;
},
{
horizontal = 1;
options = 4;
origin = (0,5);
stem = 1;
target = (0,5);
type = TTStem;
}
);
layerId = "3E7589AA-8194-470F-8E2F-13C1C581BE24";
shapes = (
{
closed = 1;
nodes = (
(167,665,o),
(213,590,o),
(213,324,cs),
(213,55,o),
(164,-32,o),
(64,-45,c),
(78,-133,l),
(241,-113,o),
(305,31,o),
(305,324,cs),
(305,609,o),
(242,746,o),
(78,773,c),
(64,685,l)
);
}
);
width = 400;
},
{
layerId = "BFFFD157-90D3-4B85-B99D-9A2F366F03CA";
shapes = (
{
closed = 1;
nodes = (
(107,586,o),
(155,543,o),
(155,302,cs),
(155,69,o),
(107,14,o),
(36,14,c),
(46,-200,l),
(272,-200,o),
(379,-77,o),
(379,302,cs),
(379,712,o),
(272,800,o),
(46,800,c),
(36,586,l)
);
}
);
width = 430;
},
{
layerId = "FA91A8E1-7324-47F6-AE85-AED49CFCD01C";
shapes = (
{
closed = 1;
nodes = (
(203,728,o),
(257,620,o),
(257,337,cs),
(257,32,o),
(203,-85,o),
(81,-113,c),
(82,-120,l),
(211,-89,o),
(264,27,o),
(264,337,cs),
(264,623,o),
(209,734,o),
(82,774,c),
(79,767,l)
);
}
);
width = 379;
}
);
metricLeft = "=|parenleft";
metricRight = "=|parenleft";
unicode = 41;
}
{
glyphname = asterisk;
kernLeft = asterisk;
kernRight = asterisk;
layers = (
{
hints = (
{
horizontal = 1;
origin = (0,2);
type = TTSnap;
}
);
layerId = "3E7589AA-8194-470F-8E2F-13C1C581BE24";
shapes = (
{
closed = 1;
nodes = (
(330,636,l),
(237,600,l),
(243,700,l),
(163,700,l),
(169,601,l),
(75,637,l),
(50,561,l),
(146,536,l),
(82,458,l),
(147,411,l),
(201,494,l),
(255,410,l),
(320,457,l),
(257,534,l),
(354,559,l)
);
}
);
width = 404;
},
{
layerId = "BFFFD157-90D3-4B85-B99D-9A2F366F03CA";
shapes = (
{
closed = 1;
nodes = (
(419,633,l),
(312,583,l),
(327,700,l),
(167,700,l),
(182,583,l),
(75,633,l),
(25,481,l),
(141,459,l),
(61,373,l),
(190,279,l),
(247,382,l),
(304,279,l),
(433,373,l),
(353,459,l),
(469,481,l)
);
}
);
width = 494;
},
{
layerId = "FA91A8E1-7324-47F6-AE85-AED49CFCD01C";
shapes = (
{
closed = 1;
nodes = (
(342,604,l),
(207,558,l),
(208,700,l),
(198,700,l),
(199,558,l),
(65,604,l),
(63,595,l),
(197,551,l),
(113,437,l),
(122,432,l),
(203,547,l),
(285,431,l),
(294,437,l),
(209,551,l),
(344,595,l)
);
}
);
width = 407;
}
);
metricRight = "=|";
unicode = 42;
}
{
color = 4;
glyphname = comma;
kernLeft = comma;
kernRight = comma;
layers = (
{
background = {
shapes = (
{
closed = 1;
nodes = (
(81,99,l),
(81,0,l),
(181,0,l),
(181,99,l)
);
}
);
};
layerId = "3E7589AA-8194-470F-8E2F-13C1C581BE24";
shapes = (
{
pos = (-50,0);
ref = quotesinglbase;
}
);
width = 240;
},
{
background = {
shapes = (
{
closed = 1;
nodes = (
(33,224,l),
(33,0,l),
(253,0,l),
(253,224,l)
);
}
);
};
layerId = "BFFFD157-90D3-4B85-B99D-9A2F366F03CA";
shapes = (
{
pos = (-10,0);
ref = quotesinglbase;
}
);
width = 310;
},
{
layerId = "FA91A8E1-7324-47F6-AE85-AED49CFCD01C";
shapes = (
{
pos = (-40,0);
ref = quotesinglbase;
}
);
width = 166;
}
);
unicode = 44;
}
{
glyphname = period;
layers = (
{
background = {
shapes = (
{
closed = 1;
nodes = (
(70,120,l),
(70,0,l),
(192,0,l),
(192,120,l)
);
}
);
};
hints = (
{
horizontal = 1;
options = 4;
place = (0, 120);
type = TTStem;
}
);
layerId = "3E7589AA-8194-470F-8E2F-13C1C581BE24";
shapes = (
{
closed = 1;
nodes = (
(175,-7,o),
(197,15,o),
(197,60,cs),
(197,104,o),
(175,126,o),
(131,126,cs),
(86,126,o),
(64,104,o),
(64,60,cs),
(64,15,o),
(86,-7,o),
(131,-7,cs)
);
}
);
width = 262;
},
{
background = {
shapes = (
{
closed = 1;
nodes = (
(42,224,l),
(42,0,l),
(262,0,l),
(262,224,l)
);
}
);
};
layerId = "BFFFD157-90D3-4B85-B99D-9A2F366F03CA";
shapes = (
{
closed = 1;
nodes = (
(234,-11,o),
(274,30,o),
(274,113,cs),
(274,195,o),
(234,235,o),
(153,235,cs),
(70,235,o),
(30,195,o),
(30,113,cs),
(30,30,o),
(70,-11,o),
(153,-11,cs)
);
}
);
width = 304;
},
{
background = {
shapes = (
{
closed = 1;
nodes = (
(98,-5,o),
(102,-1,o),
(102,9,cs),
(102,19,o),
(98,23,o),
(89,23,cs),
(80,23,o),
(76,19,o),
(76,9,cs),
(76,-1,o),
(80,-5,o),
(89,-5,cs)
);
}
);
};
layerId = "FA91A8E1-7324-47F6-AE85-AED49CFCD01C";
shapes = (
{
closed = 1;
nodes = (
(98,-5,o),
(103,0,o),
(103,10,cs),
(103,20,o),
(98,25,o),
(89,25,cs),
(80,25,o),
(75,20,o),
(75,10,cs),
(75,0,o),
(80,-5,o),
(89,-5,cs)
);
}
);
width = 178;
},
{
associatedMasterId = "3E7589AA-8194-470F-8E2F-13C1C581BE24";
background = {
shapes = (
{
closed = 1;
nodes = (
(80,120,l),
(80,0,l),
(202,0,l),
(202,120,l)
);
}
);
};
hints = (
{
horizontal = 1;
options = 4;
origin = (0,1);
target = (0,0);
type = TTStem;
}
);
layerId = "1FFFD6A4-E82D-48D5-AF32-4B7644AF606B";
name = "Jul 15 17, 00:28";
shapes = (
{
closed = 1;
nodes = (
(80,120,l),
(80,0,l),
(202,0,l),
(202,120,l)
);
}
);
width = 282;
},
{
associatedMasterId = "BFFFD157-90D3-4B85-B99D-9A2F366F03CA";
layerId = "FE604B7B-8EA9-49DA-8883-4842567C8287";
name = "Jul 15 17, 00:28";
shapes = (
{
closed = 1;
nodes = (
(45,224,l),
(45,0,l),
(265,0,l),
(265,224,l)
);
}
);
width = 310;
},
{
associatedMasterId = "FA91A8E1-7324-47F6-AE85-AED49CFCD01C";
layerId = "6488BDCF-3525-4E1B-B549-3A44DC3C6DF4";
name = "Jul 15 17, 00:28";
shapes = (
{
closed = 1;
nodes = (
(100,19,l),
(100,0,l),
(118,0,l),
(118,19,l)
);
}
);
width = 218;
}
);
unicode = 46;
}
{
glyphname = slash;
layers = (
{
hints = (
{
horizontal = 1;
origin = (0,1);
type = TTSnap;
},
{
horizontal = 1;
origin = (0,2);
type = TTSnap;
}
);
layerId = "3E7589AA-8194-470F-8E2F-13C1C581BE24";
shapes = (
{
closed = 1;
nodes = (
(50,-200,l),
(143,-200,l),
(403,800,l),
(310,800,l)
);
}
);
width = 453;
},
{
layerId = "BFFFD157-90D3-4B85-B99D-9A2F366F03CA";
shapes = (
{
closed = 1;
nodes = (
(30,-200,l),
(253,-200,l),
(513,800,l),
(290,800,l)
);
}
);
width = 543;
},
{
layerId = "FA91A8E1-7324-47F6-AE85-AED49CFCD01C";
shapes = (
{
closed = 1;
nodes = (
(62,-200,l),
(70,-200,l),
(330,800,l),
(322,800,l)
);
}
);
width = 392;
}
);
metricRight = "=|";
unicode = 47;
}
{
glyphname = one;
layers = (
{
background = {
shapes = (
{
closed = 1;
nodes = (
(299,551,l),
(230,551,l),
(205,434,o),
(158,414,o),
(30,385,c),
(37,309,l),
(100,314,o),
(163,320,o),
(206,325,c),
(206,-154,l),
(299,-154,l)
);
}
);
};
hints = (
{
horizontal = 1;
options = 4;
origin = (0,9);
stem = 2;
type = TTStem;
},
{
horizontal = 1;
origin = (0,4);
stem = 2;
target = (0,5);
type = TTStem;
},
{
horizontal = 1;
options = 4;
origin = (0,9);
target = (0,10);
type = TTShift;
},
{
horizontal = 1;
origin = (0,1);
type = TTSnap;
}
);
layerId = "3E7589AA-8194-470F-8E2F-13C1C581BE24";
shapes = (
{
closed = 1;
nodes = (
(299,551,l),
(230,551,l),
(205,434,o),
(171,408,o),
(36,383,c),
(43,303,l),
(118,313,o),
(163,318,o),
(206,324,c),
(206,0,l),
(299,0,l)
);
}
);
width = 401;
},
{
background = {
shapes = (
{
closed = 1;
nodes = (
(404,560,l),
(211,560,l),
(187,478,o),
(171,452,o),
(5,419,c),
(17,226,l),
(86,229,o),
(128,231,o),
(159,232,c),
(159,-140,l),
(404,-140,l)
);
}
);
};
layerId = "BFFFD157-90D3-4B85-B99D-9A2F366F03CA";
shapes = (
{
closed = 1;
nodes = (
(404,560,l),
(211,560,l),
(189,468,o),
(171,452,o),
(15,428,c),
(27,240,l),
(71,243,o),
(115,246,o),
(159,249,c),
(159,0,l),
(404,0,l)
);
}
);
width = 454;
},
{
background = {
shapes = (
{
closed = 1;
nodes = (
(71,0,l),
(366,0,l),
(366,7,l),
(231,8,l),
(71,7,l)
);
},
{
closed = 1;
nodes = (
(237,554,l),
(229,554,l),
(227,452,o),
(227,449,o),
(50,447,c),
(50,439,l),
(203,439,o),
(214,449,o),
(229,479,c),
(229,4,l),
(237,4,l)
);
}
);
};
layerId = "FA91A8E1-7324-47F6-AE85-AED49CFCD01C";
shapes = (
{
closed = 1;
nodes = (
(237,535,l),
(229,535,l),
(228,414,o),
(208,411,o),
(51,389,c),
(51,382,l),
(203,401,o),
(217,418,o),
(229,454,c),
(229,0,l),
(237,0,l)
);
}
);
width = 365;
}
);
unicode = 49;
}
{
glyphname = three;
layers = (
{
background = {
shapes = (
{
closed = 1;
nodes = (
(304,178,l),
(365,202,o),
(418,261,o),
(418,358,cs),
(418,482,o),
(333,552,o),
(211,552,cs),
(135,552,o),
(65,524,o),
(14,482,c),
(53,405,l),
(96,440,o),
(145,461,o),
(202,461,cs),
(286,461,o),
(326,411,o),
(326,344,cs),
(326,279,o),
(290,229,o),
(216,215,cs),
(192,210,o),
(164,208,o),
(130,208,c),
(130,120,l),
(163,120,o),
(192,119,o),
(215,117,cs),
(308,109,o),
(353,75,o),
(353,4,cs),
(353,-79,o),
(291,-113,o),
(172,-113,cs),
(140,-113,o),
(99,-111,o),
(44,-107,c),
(43,-192,l),
(88,-198,o),
(130,-202,o),
(174,-202,cs),
(347,-202,o),
(446,-124,o),
(446,7,cs),
(446,106,o),
(383,162,o),
(304,172,c)
);
}
);
};
hints = (
{
horizontal = 1;
options = 4;
origin = (0,39);
stem = 2;
target = (0,32);
type = TTStem;
},
{
horizontal = 1;
origin = (0,22);
stem = 2;
target = (0,23);
type = TTStem;
},
{
horizontal = 1;
options = 4;
origin = (0,6);
stem = 2;
target = (0,13);
type = TTStem;
}
);
layerId = "3E7589AA-8194-470F-8E2F-13C1C581BE24";
shapes = (
{
closed = 1;
nodes = (
(298,182,l),
(357,206,o),
(408,264,o),
(408,358,cs),
(408,482,o),
(314,552,o),
(197,552,cs),
(123,552,o),
(66,524,o),
(30,499,c),
(50,416,l),
(96,447,o),
(147,461,o),
(190,461,cs),
(270,461,o),
(316,411,o),
(316,339,cs),
(316,274,o),
(280,229,o),
(216,215,cs),
(192,210,o),
(164,208,o),
(110,208,c),
(110,117,l),
(163,117,o),
(192,116,o),
(215,114,cs),
(298,107,o),
(343,67,o),
(343,1,cs),
(343,-80,o),
(281,-118,o),
(159,-118,cs),
(132,-118,o),
(91,-116,o),
(36,-108,c),
(45,-195,l),
(80,-203,o),
(122,-208,o),
(161,-208,cs),
(343,-208,o),
(436,-124,o),
(436,-3,cs),
(436,96,o),
(373,161,o),
(298,176,c)
);
}
);
width = 486;
},
{
background = {
shapes = (
{
closed = 1;
nodes = (
(366,209,l),
(425,237,o),
(462,293,o),
(462,370,cs),
(462,500,o),
(369,565,o),
(222,565,cs),
(138,565,o),
(68,551,o),
(-4,524,c),
(32,321,l),
(82,333,o),
(119,340,o),
(170,340,cs),
(205,340,o),
(236,332,o),
(236,302,cs),
(236,278,o),
(214,267,o),
(185,263,cs),
(159,259,o),
(128,260,o),
(64,260,c),
(64,73,l),
(132,73,o),
(163,73,o),
(188,72,cs),
(245,67,o),
(264,53,o),
(264,26,cs),
(264,-5,o),
(238,-15,o),
(179,-15,cs),
(141,-15,o),
(95,-12,o),
(25,-4,c),
(4,-194,l),
(66,-204,o),
(127,-209,o),
(178,-209,cs),
(376,-209,o),
(490,-125,o),
(490,18,cs),
(490,111,o),
(443,182,o),
(366,198,c)
);
}
);
};
layerId = "BFFFD157-90D3-4B85-B99D-9A2F366F03CA";
shapes = (
{
closed = 1;
nodes = (
(378,206,l),
(427,236,o),
(462,291,o),
(462,368,cs),
(462,498,o),
(369,565,o),
(214,565,cs),
(144,565,o),
(68,551,o),
(10,529,c),
(32,331,l),
(82,343,o),
(129,350,o),
(166,350,cs),
(205,350,o),
(236,342,o),
(236,312,cs),
(236,288,o),
(214,277,o),
(185,273,cs),
(159,269,o),
(128,270,o),
(64,270,c),
(64,73,l),
(132,73,o),
(163,73,o),
(188,72,cs),
(245,67,o),
(264,53,o),
(264,26,cs),
(264,-5,o),
(238,-15,o),
(179,-15,cs),
(146,-15,o),
(99,-12,o),
(19,0,c),
(31,-191,l),
(80,-202,o),
(127,-209,o),
(187,-209,cs),
(376,-209,o),
(490,-133,o),
(490,22,cs),
(490,113,o),
(444,177,o),
(378,195,c)
);
}
);
width = 505;
},
{
layerId = "FA91A8E1-7324-47F6-AE85-AED49CFCD01C";
shapes = (
{
closed = 1;
nodes = (
(233,159,l),
(364,177,o),
(414,261,o),
(414,358,cs),
(414,463,o),
(353,535,o),
(234,535,cs),
(158,535,o),
(95,506,o),
(58,474,c),
(61,468,l),
(100,500,o),
(162,527,o),
(234,527,cs),
(345,527,o),
(406,460,o),
(406,357,cs),
(406,265,o),
(360,200,o),
(265,171,cs),
(238,163,o),
(205,159,o),
(139,159,c),
(139,152,l),
(205,152,o),
(241,151,o),
(265,149,cs),
(366,140,o),
(430,75,o),
(430,-21,cs),
(430,-136,o),
(346,-199,o),
(200,-199,cs),
(151,-199,o),
(103,-190,o),
(50,-174,c),
(49,-182,l),
(98,-197,o),
(147,-207,o),
(200,-207,cs),
(350,-207,o),
(438,-141,o),
(438,-21,cs),
(438,80,o),
(372,159,o),
(233,157,c)
);
}
);
width = 495;
},
{
associatedMasterId = "3E7589AA-8194-470F-8E2F-13C1C581BE24";
attr = {
coordinates = (
155
);
};
background = {
shapes = (
{
closed = 1;
nodes = (
(338,194,l),
(392,221,o),
(435,277,o),
(435,363,cs),
(435,490,o),
(344,559,o),
(212,559,cs),
(134,559,o),
(82,539,o),
(20,506,c),
(56,371,l),
(104,392,o),
(144,403,o),
(182,403,cs),
(238,403,o),
(276,376,o),
(276,326,cs),
(276,281,o),
(247,253,o),
(201,244,cs),
(181,240,o),
(161,239,o),
(102,239,c),
(102,90,l),
(153,90,o),
(177,90,o),
(202,88,cs),
(272,82,o),
(304,57,o),
(304,14,cs),
(304,-43,o),
(260,-58,o),
(169,-58,cs),
(137,-58,o),
(91,-56,o),
(45,-50,c),
(35,-196,l),
(88,-204,o),
(130,-208,o),
(170,-208,cs),
(360,-208,o),
(463,-120,o),
(463,10,cs),
(463,103,o),
(408,169,o),
(338,185,c)
);
}
);
};
hints = (
{
horizontal = 1;
options = 4;
origin = (0,39);
stem = 2;
target = (0,32);
type = TTStem;
},
{
horizontal = 1;
origin = (0,22);
stem = 2;
target = (0,23);
type = TTStem;
},
{
horizontal = 1;
options = 4;
origin = (0,6);
stem = 2;
target = (0,13);
type = TTStem;
}
);
layerId = "DA8142D7-188F-4C32-8A5B-C311A80DA6D8";
name = "{155}";
shapes = (
{
closed = 1;
nodes = (
(338,194,l),
(392,221,o),
(435,278,o),
(435,363,cs),
(435,490,o),
(342,559,o),
(206,559,cs),
(134,559,o),
(67,538,o),
(20,514,c),
(41,365,l),
(89,386,o),
(138,397,o),
(178,397,cs),
(238,397,o),
(276,368,o),
(276,317,cs),
(276,272,o),
(247,253,o),
(201,244,cs),
(176,240,o),
(146,239,o),
(97,239,c),
(97,93,l),
(148,93,o),
(178,92,o),
(202,91,cs),
(272,88,o),
(304,60,o),
(304,16,cs),
(304,-37,o),
(260,-59,o),
(169,-59,cs),
(139,-59,o),
(95,-57,o),
(28,-48,c),
(38,-193,l),
(80,-203,o),
(125,-209,o),
(174,-209,cs),
(360,-209,o),
(463,-129,o),
(463,10,cs),
(463,105,o),
(409,169,o),
(338,186,c)
);
}
);
width = 496;
}
);
unicode = 51;
}
{
glyphname = five;
layers = (
{
background = {
shapes = (
{
closed = 1;
nodes = (
(314,182,l),
(373,206,o),
(424,264,o),
(424,358,cs),
(424,482,o),
(334,552,o),
(217,552,cs),
(146,552,o),
(81,526,o),
(30,489,c),
(66,412,l),
(112,443,o),
(160,461,o),
(210,461,cs),
(287,461,o),
(332,411,o),
(332,339,cs),
(332,274,o),
(296,229,o),
(232,215,cs),
(208,210,o),
(180,208,o),
(126,208,c),
(126,120,l),
(179,120,o),
(208,119,o),
(231,117,cs),
(314,109,o),
(359,70,o),
(359,1,cs),
(359,-80,o),
(297,-119,o),
(175,-119,cs),
(148,-119,o),
(107,-117,o),
(52,-113,c),
(51,-198,l),
(96,-204,o),
(138,-208,o),
(177,-208,cs),
(359,-208,o),
(452,-116,o),
(452,-1,cs),
(452,94,o),
(389,161,o),
(314,176,c)
);
}
);
};
hints = (
{
horizontal = 1;
options = 4;
origin = (0,15);
stem = 2;
target = (0,8);
type = TTStem;
},
{
horizontal = 1;
origin = (0,21);
stem = 2;
target = (0,2);
type = TTStem;
},
{
horizontal = 1;
options = 4;
origin = (0,28);
stem = 2;
target = (0,27);
type = TTStem;
}
);
layerId = "3E7589AA-8194-470F-8E2F-13C1C581BE24";
shapes = (
{
closed = 1;
nodes = (
(129,134,o),
(175,139,o),
(214,139,cs),
(316,139,o),
(369,96,o),
(369,12,cs),
(369,-89,o),
(284,-117,o),
(186,-117,cs),
(141,-117,o),
(96,-112,o),
(53,-102,c),
(58,-190,l),
(97,-199,o),
(139,-206,o),
(191,-206,cs),
(347,-206,o),
(461,-134,o),
(461,20,cs),
(461,147,o),
(387,230,o),
(246,230,cs),
(215,230,o),
(181,226,o),
(145,217,c),
(171,186,l),
(186,447,l),
(428,447,l),
(428,540,l),
(97,540,l),
(77,127,l)
);
}
);
width = 518;
},
{
background = {
shapes = (
{
closed = 1;
nodes = (
(106,98,o),
(153,101,o),
(190,101,cs),
(254,101,o),
(280,91,o),
(280,69,cs),
(280,46,o),
(254,37,o),
(201,37,cs),
(157,37,o),
(90,42,o),
(22,53,c),
(44,-147,l),
(87,-155,o),
(154,-162,o),
(219,-162,cs),
(386,-162,o),
(505,-85,o),
(505,84,cs),
(505,181,o),
(462,287,o),
(296,287,cs),
(265,287,o),
(226,283,o),
(187,274,c),
(258,188,l),
(268,340,l),
(481,340,l),
(481,550,l),
(63,550,l),
(43,94,l)
);
}
);
};
layerId = "BFFFD157-90D3-4B85-B99D-9A2F366F03CA";
shapes = (
{
closed = 1;
nodes = (
(96,81,o),
(143,83,o),
(173,83,cs),
(256,83,o),
(293,67,o),
(293,34,cs),
(293,-1,o),
(253,-15,o),
(171,-15,cs),
(134,-15,o),
(78,-12,o),
(27,-4,c),
(46,-194,l),
(87,-203,o),
(136,-209,o),
(201,-209,cs),
(368,-209,o),
(525,-157,o),
(525,41,cs),
(525,163,o),
(462,267,o),
(296,267,cs),
(265,267,o),
(226,263,o),
(187,254,c),
(258,188,l),
(268,340,l),
(501,340,l),
(501,550,l),
(63,550,l),
(43,77,l)
);
}
);
width = 547;
},
{
associatedMasterId = "3E7589AA-8194-470F-8E2F-13C1C581BE24";
attr = {
coordinates = (
155
);
};
background = {
shapes = (
{
closed = 1;
nodes = (
(117,104,o),
(159,107,o),
(194,107,cs),
(291,107,o),
(336,80,o),
(336,28,cs),
(336,-36,o),
(272,-53,o),
(177,-53,cs),
(134,-53,o),
(98,-49,o),
(48,-42,c),
(32,-190,l),
(79,-199,o),
(130,-208,o),
(196,-208,cs),
(361,-208,o),
(498,-144,o),
(498,37,cs),
(498,174,o),
(421,260,o),
(271,260,cs),
(239,260,o),
(203,256,o),
(166,247,c),
(213,187,l),
(213,390,l),
(469,390,l),
(469,545,l),
(60,545,l),
(60,97,l)
);
}
);
};
hints = (
{
horizontal = 1;
options = 4;
origin = (0,15);
stem = 2;
target = (0,8);
type = TTStem;
},
{
horizontal = 1;
origin = (0,21);
stem = 2;
target = (0,2);
type = TTStem;
},
{
horizontal = 1;
options = 4;
origin = (0,28);
stem = 2;
target = (0,27);
type = TTStem;
}
);
layerId = "0F340A2D-B20B-47FB-A318-122322488D31";
name = "{155}";
shapes = (
{
closed = 1;
nodes = (
(113,104,o),
(159,107,o),
(194,107,cs),
(286,107,o),
(331,81,o),
(331,27,cs),
(331,-34,o),
(269,-53,o),
(179,-53,cs),
(138,-53,o),
(87,-50,o),
(40,-41,c),
(52,-192,l),
(92,-201,o),
(138,-208,o),
(196,-208,cs),
(358,-208,o),
(493,-146,o),
(493,31,cs),
(493,155,o),
(425,262,o),
(271,262,cs),
(240,262,o),
(204,257,o),
(166,247,c),
(214,191,l),
(214,390,l),
(465,390,l),
(465,545,l),
(60,545,l),
(60,99,l)
);
}
);
width = 532;
},
{
layerId = "FA91A8E1-7324-47F6-AE85-AED49CFCD01C";
shapes = (
{
closed = 1;
nodes = (
(147,186,o),
(200,190,o),
(236,190,cs),
(374,190,o),
(441,123,o),
(441,-3,cs),
(441,-135,o),
(360,-199,o),
(225,-199,cs),
(169,-199,o),
(118,-188,o),
(76,-174,c),
(75,-182,l),
(117,-197,o),
(168,-207,o),
(225,-207,cs),
(366,-207,o),
(449,-139,o),
(449,-2,cs),
(449,127,o),
(380,198,o),
(236,198,cs),
(191,198,o),
(142,191,o),
(98,177,c),
(103,175,l),
(123,520,l),
(411,520,l),
(411,528,l),
(115,528,l),
(95,169,l)
);
}
);
width = 521;
}
);
unicode = 53;
}
{
glyphname = eight;
kernLeft = eight.lf;
kernRight = eight.lf;
layers = (
{
hints = (
{
horizontal = 1;
options = 4;
origin = (0,5);
stem = 2;
target = (0,54);
type = TTStem;
},
{
horizontal = 1;
options = 4;
origin = (0,36);
stem = 2;
target = (0,23);
type = TTStem;
},
{
horizontal = 1;
origin = (0,54);
other1 = (0,14);
target = (0,36);
type = TTInterpolate;
},
{
horizontal = 1;
origin = (0,5);
other1 = (0,45);
target = (0,23);
type = TTInterpolate;
}
);
layerId = "3E7589AA-8194-470F-8E2F-13C1C581BE24";
shapes = (
{
closed = 1;
nodes = (
(109,333,o),
(60,266,o),
(60,175,cs),
(60,53,o),
(149,-11,o),
(285,-11,cs),
(416,-11,o),
(511,50,o),
(511,166,cs),
(511,234,o),
(480,296,o),
(403,340,cs),
(370,359,o),
(331,372,o),
(294,388,cs),
(263,401,o),
(236,415,o),
(214,434,cs),
(180,463,o),
(168,490,o),
(168,523,cs),
(168,585,o),
(212,621,o),
(283,621,cs),
(355,621,o),
(406,582,o),
(406,511,cs),
(406,448,o),
(364,406,o),
(299,370,c),
(356,321,l),
(423,357,o),
(496,406,o),
(496,519,cs),
(496,644,o),
(407,712,o),
(285,712,cs),
(165,712,o),
(76,643,o),
(76,520,cs),
(76,471,o),
(92,417,o),
(156,367,cs),
(189,341,o),
(228,325,o),
(271,306,cs),
(299,294,o),
(327,281,o),
(353,264,cs),
(399,234,o),
(418,202,o),
(418,167,cs),
(418,105,o),
(360,80,o),
(285,80,cs),
(202,80,o),
(153,112,o),
(153,178,cs),
(153,234,o),
(187,295,o),
(253,328,c),
(187,379,l)
);
}
);
width = 571;
},
{
background = {
shapes = (
{
closed = 1;
nodes = (
(63,316,o),
(20,262,o),
(20,179,cs),
(20,53,o),
(120,-11,o),
(288,-11,cs),
(472,-11,o),
(567,48,o),
(567,186,cs),
(567,300,o),
(515,334,o),
(461,366,cs),
(397,404,o),
(318,422,o),
(278,454,cs),
(260,468,o),
(255,482,o),
(255,496,cs),
(255,521,o),
(272,534,o),
(304,534,cs),
(337,534,o),
(355,520,o),
(355,489,cs),
(355,462,o),
(340,445,o),
(312,430,c),
(412,326,l),
(478,362,o),
(549,406,o),
(549,515,cs),
(549,644,o),
(451,712,o),
(299,712,cs),
(149,712,o),
(36,640,o),
(36,490,cs),
(36,421,o),
(67,367,o),
(117,327,cs),
(186,271,o),
(240,272,o),
(306,229,cs),
(329,214,o),
(339,200,o),
(339,184,cs),
(339,163,o),
(320,155,o),
(280,155,cs),
(236,155,o),
(215,167,o),
(215,197,cs),
(215,221,o),
(232,264,o),
(287,296,c),
(130,352,l)
);
}
);
};
layerId = "BFFFD157-90D3-4B85-B99D-9A2F366F03CA";
shapes = (
{
closed = 1;
nodes = (
(63,316,o),
(20,262,o),
(20,179,cs),
(20,53,o),
(120,-11,o),
(288,-11,cs),
(472,-11,o),
(567,48,o),
(567,186,cs),
(567,292,o),
(510,336,o),
(456,366,cs),
(401,397,o),
(340,415,o),
(297,437,cs),
(287,442,o),
(278,448,o),
(270,455,cs),
(252,471,o),
(247,487,o),
(247,503,cs),
(247,531,o),
(262,548,o),
(295,548,cs),
(328,548,o),
(348,531,o),
(348,498,cs),
(348,465,o),
(329,443,o),
(304,427,c),
(412,326,l),
(478,362,o),
(544,404,o),
(544,513,cs),
(544,642,o),
(446,712,o),
(294,712,cs),
(144,712,o),
(36,640,o),
(36,499,cs),
(36,421,o),
(66,365,o),
(117,327,cs),
(168,289,o),
(206,281,o),
(248,263,cs),
(267,255,o),
(286,245,o),
(306,232,cs),
(329,217,o),
(338,201,o),
(338,185,cs),
(338,162,o),
(322,151,o),
(288,151,cs),
(243,151,o),
(226,172,o),
(226,201,cs),
(226,235,o),
(249,262,o),
(304,294,c),
(130,352,l)
);
}
);
width = 587;
},
{
layerId = "FA91A8E1-7324-47F6-AE85-AED49CFCD01C";
shapes = (
{
closed = 1;
nodes = (
(160,321,o),
(85,254,o),
(85,158,cs),
(85,61,o),
(161,-7,o),
(285,-7,cs),
(399,-7,o),
(486,43,o),
(486,143,cs),
(486,196,o),
(462,241,o),
(394,284,cs),
(366,303,o),
(327,321,o),
(290,340,cs),
(254,358,o),
(218,377,o),
(191,398,cs),
(140,439,o),
(115,484,o),
(115,543,cs),
(115,643,o),
(187,699,o),
(287,699,cs),
(391,699,o),
(457,636,o),
(457,536,cs),
(457,426,o),
(388,366,o),
(315,324,c),
(320,319,l),
(394,361,o),
(465,422,o),
(465,537,cs),
(465,644,o),
(394,707,o),
(287,707,cs),
(183,707,o),
(107,648,o),
(107,542,cs),
(107,482,o),
(131,435,o),
(185,393,cs),
(214,371,o),
(250,351,o),
(287,332,cs),
(324,314,o),
(362,295,o),
(390,277,cs),
(452,237,o),
(478,192,o),
(478,142,cs),
(478,48,o),
(394,1,o),
(285,1,cs),
(166,1,o),
(94,65,o),
(94,158,cs),
(94,249,o),
(165,314,o),
(244,360,c),
(238,364,l)
);
}
);
width = 571;
},
{
associatedMasterId = "3E7589AA-8194-470F-8E2F-13C1C581BE24";
attr = {
coordinates = (
155
);
};
background = {
shapes = (
{
closed = 1;
nodes = (
(93,321,o),
(41,261,o),
(41,173,cs),
(41,53,o),
(136,-11,o),
(292,-11,cs),
(449,-11,o),
(541,49,o),
(541,176,cs),
(541,263,o),
(498,313,o),
(430,351,cs),
(388,375,o),
(341,395,o),
(302,414,cs),
(281,425,o),
(262,435,o),
(247,446,cs),
(220,465,o),
(211,483,o),
(211,505,cs),
(211,545,o),
(246,563,o),
(294,563,cs),
(348,563,o),
(382,539,o),
(382,494,cs),
(382,452,o),
(353,423,o),
(307,401,c),
(389,321,l),
(456,357,o),
(522,405,o),
(522,516,cs),
(522,643,o),
(432,712,o),
(295,712,cs),
(160,712,o),
(57,642,o),
(57,510,cs),
(57,446,o),
(82,389,o),
(140,345,cs),
(179,315,o),
(219,294,o),
(257,276,cs),
(281,264,o),
(303,254,o),
(323,243,cs),
(369,218,o),
(383,199,o),
(383,177,cs),
(383,143,o),
(349,129,o),
(288,129,cs),
(221,129,o),
(185,150,o),
(185,188,cs),
(185,223,o),
(215,263,o),
(275,310,c),
(171,362,l)
);
}
);
};
hints = (
{
horizontal = 1;
options = 4;
origin = (0,5);
stem = 2;
target = (0,54);
type = TTStem;
},
{
horizontal = 1;
options = 4;
origin = (0,36);
stem = 2;
target = (0,23);
type = TTStem;
},
{
horizontal = 1;
origin = (0,54);
other1 = (0,14);
target = (0,36);
type = TTInterpolate;
},
{
horizontal = 1;
origin = (0,5);
other1 = (0,45);
target = (0,23);
type = TTInterpolate;
}
);
layerId = "803E2449-018D-4A31-81C0-CE681E8F2AB2";
name = "{155}";
shapes = (
{
closed = 1;
nodes = (
(89,325,o),
(43,264,o),
(43,177,cs),
(43,53,o),
(137,-11,o),
(289,-11,cs),
(447,-11,o),
(542,49,o),
(542,176,cs),
(542,263,o),
(498,314,o),
(432,351,cs),
(388,376,o),
(338,396,o),
(299,416,cs),
(279,426,o),
(262,436,o),
(246,447,cs),
(220,466,o),
(210,482,o),
(210,505,cs),
(210,539,o),
(241,564,o),
(292,564,cs),
(345,564,o),
(379,537,o),
(379,500,cs),
(379,453,o),
(351,422,o),
(304,395,c),
(387,324,l),
(453,360,o),
(523,405,o),
(523,516,cs),
(523,643,o),
(429,712,o),
(292,712,cs),
(157,712,o),
(56,642,o),
(56,510,cs),
(56,446,o),
(82,392,o),
(139,347,cs),
(179,315,o),
(222,292,o),
(262,273,cs),
(287,261,o),
(309,252,o),
(332,238,cs),
(367,217,o),
(381,200,o),
(381,179,cs),
(381,143,o),
(343,129,o),
(285,129,cs),
(222,129,o),
(187,150,o),
(187,191,cs),
(187,225,o),
(212,272,o),
(273,300,c),
(161,366,l)
);
}
);
width = 584;
}
);
unicode = 56;
}
{
glyphname = nine;
layers = (
{
background = {
shapes = (
{
closed = 1;
nodes = (
(407,290,l),
(379,181,o),
(302,85,o),
(78,85,c),
(93,-5,l),
(436,-5,o),
(509,221,o),
(509,410,cs),
(509,611,o),
(426,711,o),
(281,711,cs),
(108,711,o),
(43,597,o),
(43,467,cs),
(43,334,o),
(127,248,o),
(253,248,cs),
(304,248,o),
(352,260,o),
(401,293,c)
);
},
{
closed = 1;
nodes = (
(424,430,l),
(393,363,o),
(329,337,o),
(270,337,cs),
(186,337,o),
(136,388,o),
(136,472,cs),
(136,563,o),
(183,620,o),
(274,620,cs),
(375,620,o),
(415,549,o),
(415,382,c)
);
}
);
};
hints = (
{
horizontal = 1;
options = 4;
origin = (0,22);
stem = 2;
target = (0,15);
type = TTStem;
},
{
horizontal = 1;
origin = (0,34);
stem = 2;
target = (0,3);
type = TTStem;
},
{
horizontal = 1;
options = 4;
origin = (0,28);
stem = 2;
target = (0,9);
type = TTStem;
}
);
layerId = "3E7589AA-8194-470F-8E2F-13C1C581BE24";
shapes = (
{
closed = 1;
nodes = (
(418,273,l),
(382,224,o),
(329,200,o),
(269,200,cs),
(189,200,o),
(148,238,o),
(148,320,cs),
(148,401,o),
(190,458,o),
(270,458,cs),
(351,458,o),
(406,404,o),
(406,203,cs),
(406,1,o),
(341,-68,o),
(193,-68,cs),
(158,-68,o),
(122,-64,o),
(89,-58,c),
(97,-150,l),
(118,-158,o),
(152,-162,o),
(184,-162,cs),
(384,-162,o),
(501,-77,o),
(501,211,cs),
(501,452,o),
(416,552,o),
(275,552,cs),
(148,552,o),
(55,464,o),
(55,316,cs),
(55,186,o),
(126,104,o),
(258,104,cs),
(313,104,o),
(353,119,o),
(397,148,c),
(422,135,l)
);
}
);
width = 571;
},
{
background = {
shapes = (
{
closed = 1;
nodes = (
(362,229,l),
(332,205,o),
(308,197,o),
(287,197,cs),
(253,197,o),
(234,220,o),
(234,260,cs),
(234,305,o),
(258,323,o),
(287,323,cs),
(330,323,o),
(352,283,o),
(352,154,cs),
(352,12,o),
(305,-25,o),
(199,-25,cs),
(161,-25,o),
(120,-21,o),
(59,-9,c),
(72,-195,l),
(125,-208,o),
(176,-211,o),
(214,-211,cs),
(467,-211,o),
(571,-54,o),
(571,181,cs),
(571,407,o),
(451,517,o),
(289,517,cs),
(141,517,o),
(26,426,o),
(26,254,cs),
(26,119,o),
(104,31,o),
(227,31,cs),
(263,31,o),
(304,36,o),
(331,48,c),
(361,32,l)
);
}
);
};
layerId = "BFFFD157-90D3-4B85-B99D-9A2F366F03CA";
shapes = (
{
closed = 1;
nodes = (
(359,263,l),
(336,235,o),
(314,226,o),
(290,226,cs),
(259,226,o),
(240,250,o),
(240,294,cs),
(240,340,o),
(257,362,o),
(288,362,cs),
(326,362,o),
(349,329,o),
(349,169,cs),
(349,21,o),
(302,-15,o),
(189,-15,cs),
(155,-15,o),
(114,-10,o),
(52,4,c),
(65,-193,l),
(112,-205,o),
(166,-211,o),
(214,-211,cs),
(464,-211,o),
(571,-54,o),
(571,181,cs),
(571,407,o),
(482,565,o),
(296,565,cs),
(138,565,o),
(23,474,o),
(23,288,cs),
(23,139,o),
(101,50,o),
(229,50,cs),
(260,50,o),
(301,55,o),
(328,67,c),
(358,51,l)
);
}
);
width = 598;
},
{
associatedMasterId = "3E7589AA-8194-470F-8E2F-13C1C581BE24";
attr = {
coordinates = (
155
);
};
background = {
shapes = (
{
closed = 1;
nodes = (
(392,257,l),
(363,224,o),
(323,207,o),
(281,207,cs),
(220,207,o),
(188,246,o),
(188,305,cs),
(188,370,o),
(224,402,o),
(279,402,cs),
(337,402,o),
(381,366,o),
(381,177,cs),
(381,-13,o),
(318,-62,o),
(190,-62,cs),
(153,-62,o),
(112,-58,o),
(72,-48,c),
(54,-193,l),
(107,-207,o),
(157,-212,o),
(200,-212,cs),
(427,-212,o),
(538,-70,o),
(538,195,cs),
(538,449,o),
(455,559,o),
(286,559,cs),
(139,559,o),
(33,471,o),
(33,295,cs),
(33,149,o),
(107,60,o),
(241,60,cs),
(285,60,o),
(331,70,o),
(366,92,c),
(394,77,l)
);
}
);
};
hints = (
{
horizontal = 1;
options = 4;
origin = (0,22);
stem = 2;
target = (0,15);
type = TTStem;
},
{
horizontal = 1;
origin = (0,34);
stem = 2;
target = (0,3);
type = TTStem;
},
{
horizontal = 1;
options = 4;
origin = (0,28);
stem = 2;
target = (0,9);
type = TTStem;
}
);
layerId = "A9908FE0-EBFB-4931-8D54-CF9F303F1BDD";
name = "{155}";
shapes = (
{
closed = 1;
nodes = (
(389,239,l),
(359,216,o),
(322,205,o),
(288,205,cs),
(227,205,o),
(194,241,o),
(194,302,cs),
(194,367,o),
(229,401,o),
(280,401,cs),
(334,401,o),
(378,366,o),
(378,177,cs),
(378,-13,o),
(325,-61,o),
(197,-61,cs),
(160,-61,o),
(118,-57,o),
(79,-47,c),
(60,-193,l),
(113,-207,o),
(163,-212,o),
(207,-212,cs),
(428,-212,o),
(535,-70,o),
(535,195,cs),
(535,449,o),
(449,559,o),
(286,559,cs),
(143,559,o),
(39,471,o),
(39,295,cs),
(39,149,o),
(116,60,o),
(247,60,cs),
(289,60,o),
(327,69,o),
(363,84,c),
(390,69,l)
);
}
);
width = 584;
},
{
layerId = "FA91A8E1-7324-47F6-AE85-AED49CFCD01C";
shapes = (
{
closed = 1;
nodes = (
(471,213,l),
(412,126,o),
(341,97,o),
(267,97,cs),
(144,97,o),
(83,185,o),
(83,303,cs),
(83,413,o),
(135,527,o),
(272,527,cs),
(410,527,o),
(467,420,o),
(467,203,cs),
(467,-53,o),
(396,-199,o),
(220,-199,cs),
(192,-199,o),
(149,-194,o),
(105,-180,c),
(103,-188,l),
(145,-202,o),
(187,-207,o),
(221,-207,cs),
(403,-207,o),
(475,-58,o),
(475,204,cs),
(475,423,o),
(416,535,o),
(273,535,cs),
(130,535,o),
(75,418,o),
(75,304,cs),
(75,177,o),
(141,89,o),
(267,89,cs),
(358,89,o),
(425,135,o),
(465,193,c),
(469,193,l)
);
}
);
width = 565;
}
);
unicode = 57;
}
{
glyphname = colon;
layers = (
{
background = {
shapes = (
{
closed = 1;
nodes = (
(86,109,l),
(86,0,l),
(196,0,l),
(196,109,l)
);
},
{
closed = 1;
nodes = (
(86,480,l),
(86,371,l),
(196,371,l),
(196,480,l)
);
}
);
};
hints = (
{
horizontal = 1;
place = (0, 0);
type = TTSnap;
},
{
horizontal = 1;
place = (109, 0);
type = TTSnap;
},
{
horizontal = 1;
place = (371, 0);
type = TTSnap;
},
{
horizontal = 1;
place = (480, 0);
type = TTSnap;
}
);
layerId = "3E7589AA-8194-470F-8E2F-13C1C581BE24";
shapes = (
{
closed = 1;
nodes = (
(185,-7,o),
(207,15,o),
(207,60,cs),
(207,104,o),
(185,126,o),
(141,126,cs),
(96,126,o),
(74,104,o),
(74,60,cs),
(74,15,o),
(96,-7,o),
(141,-7,cs)
);
},
{
closed = 1;
nodes = (
(185,359,o),
(207,381,o),
(207,426,cs),
(207,470,o),
(185,492,o),
(141,492,cs),
(96,492,o),
(74,470,o),
(74,426,cs),
(74,381,o),
(96,359,o),
(141,359,cs)
);
}
);
width = 282;
},
{
background = {
shapes = (
{
closed = 1;
nodes = (
(55,214,l),
(55,0,l),
(275,0,l),
(275,214,l)
);
},
{
closed = 1;
nodes = (
(55,490,l),
(55,276,l),
(275,276,l),
(275,490,l)
);
}
);
};
layerId = "BFFFD157-90D3-4B85-B99D-9A2F366F03CA";
shapes = (
{
closed = 1;
nodes = (
(244,-11,o),
(284,30,o),
(284,113,cs),
(284,195,o),
(244,235,o),
(163,235,cs),
(80,235,o),
(40,195,o),
(40,113,cs),
(40,30,o),
(80,-11,o),
(163,-11,cs)
);
},
{
closed = 1;
nodes = (
(244,259,o),
(284,300,o),
(284,383,cs),
(284,465,o),
(244,505,o),
(163,505,cs),
(80,505,o),
(40,465,o),
(40,383,cs),
(40,300,o),
(80,259,o),
(163,259,cs)
);
}
);
width = 324;
},
{
background = {
shapes = (
{
closed = 1;
nodes = (
(90,21,l),
(90,0,l),
(111,0,l),
(111,21,l)
);
},
{
closed = 1;
nodes = (
(90,468,l),
(90,447,l),
(111,447,l),
(111,468,l)
);
}
);
};
layerId = "FA91A8E1-7324-47F6-AE85-AED49CFCD01C";
shapes = (
{
closed = 1;
nodes = (
(108,-5,o),
(113,0,o),
(113,10,cs),
(113,20,o),
(108,25,o),
(99,25,cs),
(90,25,o),
(85,20,o),
(85,10,cs),
(85,0,o),
(90,-5,o),
(99,-5,cs)
);
},
{
closed = 1;
nodes = (
(108,442,o),
(113,447,o),
(113,457,cs),
(113,467,o),
(108,472,o),
(99,472,cs),
(90,472,o),
(85,467,o),
(85,457,cs),
(85,447,o),
(90,442,o),
(99,442,cs)
);
}
);
width = 198;
}
);
metricLeft = "=period+10";
metricRight = "=period+10";
unicode = 58;
}
{
glyphname = greater;
layers = (
{
background = {
shapes = (
{
closed = 1;
nodes = (
(70,385,l),
(70,297,l),
(500,297,l),
(500,385,l)
);
},
{
closed = 1;
nodes = (
(70,185,l),
(70,97,l),
(500,97,l),
(500,185,l)
);
}
);
};
hints = (
{
horizontal = 1;
origin = (0,1);
type = TTSnap;
},
{
horizontal = 1;
origin = (0,5);
type = TTSnap;
}
);
layerId = "3E7589AA-8194-470F-8E2F-13C1C581BE24";
shapes = (
{
closed = 1;
nodes = (
(453,278,l),
(70,480,l),
(70,376,l),
(329,245,l),
(70,105,l),
(70,0,l),
(453,216,l)
);
}
);
width = 509;
},
{
layerId = "BFFFD157-90D3-4B85-B99D-9A2F366F03CA";
shapes = (
{
closed = 1;
nodes = (
(453,321,l),
(40,509,l),
(40,286,l),
(185,245,l),
(40,196,l),
(40,-20,l),
(453,179,l)
);
}
);
width = 485;
},
{
layerId = "FA91A8E1-7324-47F6-AE85-AED49CFCD01C";
shapes = (
{
closed = 1;
nodes = (
(465,251,l),
(82,474,l),
(82,466,l),
(461,245,l),
(82,8,l),
(82,0,l),
(465,239,l)
);
}
);
width = 531;
}
);
metricLeft = minus;
metricRight = "=minus*.8";
unicode = 62;
}
{
glyphname = A;
kernLeft = A;
kernRight = A;
layers = (
{
anchors = (
{
name = bottom;
pos = (367,0);
},
{
name = ogonek;
pos = (723,0);
},
{
name = tonos;
pos = (122,800);
},
{
name = top;
pos = (364,700);
}
);
background = {
shapes = (
{
closed = 1;
nodes = (
(557,700,l),
(181,700,l),
(14,0,l),
(260,0,l),
(354,470,l),
(369,470,l),
(467,0,l),
(723,0,l)
);
}
);
};
layerId = "BFFFD157-90D3-4B85-B99D-9A2F366F03CA";
shapes = (
{
closed = 1;
nodes = (
(542,700,l),
(192,700,l),
(10,0,l),
(243,0,l),
(346,484,l),
(370,484,l),
(481,0,l),
(723,0,l)
);
},
{
closed = 1;
nodes = (
(152,290,l),
(144,101,l),
(586,101,l),
(590,290,l)
);
}
);
width = 732;
},
{
anchors = (
{
name = bottom;
pos = (334,0);
},
{
name = ogonek;
pos = (622,0);
},
{
name = tonos;
pos = (150,800);
},
{
name = top;
pos = (332,700);
}
);
hints = (
{
horizontal = 1;
origin = (1,1);
stem = 2;
target = (1,0);
type = TTStem;
},
{
horizontal = 1;
origin = (0,3);
type = TTSnap;
},
{
horizontal = 1;
origin = (0,6);
type = TTSnap;
},
{
horizontal = 1;
options = 4;
origin = (0,0);
stem = 2;
target = (0,5);
type = TTStem;
}
);
layerId = "3E7589AA-8194-470F-8E2F-13C1C581BE24";
shapes = (
{
closed = 1;
nodes = (
(415,700,l),
(251,700,l),
(45,0,l),
(139,0,l),
(316,610,l),
(345,610,l),
(526,0,l),
(622,0,l)
);
},
{
closed = 1;
nodes = (
(155,279,l),
(153,188,l),
(515,188,l),
(499,279,l)
);
}
);
width = 667;
},
{
anchors = (
{
name = bottom;
pos = (337,0);
},
{
name = ogonek;
pos = (602,0);
},
{
name = tonos;
pos = (180,800);
},
{
name = top;
pos = (336,700);
}
);
layerId = "FA91A8E1-7324-47F6-AE85-AED49CFCD01C";
shapes = (
{
closed = 1;
nodes = (
(349,703,l),
(321,703,l),
(70,0,l),
(78,0,l),
(326,695,l),
(344,695,l),
(593,0,l),
(602,0,l)
);
},
{
closed = 1;
nodes = (
(156,229,l),
(153,221,l),
(519,221,l),
(516,229,l)
);
}
);
width = 672;
}
);
unicode = 65;
}
{
color = 10;
glyphname = B;
kernLeft = H;
kernRight = B;
layers = (
{
anchors = (
{
name = bottom;
pos = (310,0);
},
{
name = top;
pos = (290,700);
}
);
background = {
shapes = (
{
closed = 1;
nodes = (
(265,700,l),
(40,700,l),
(40,0,l),
(265,0,l)
);
},
{
closed = 1;
nodes = (
(170,700,l),
(162,510,l),
(495,510,l),
(495,700,l)
);
},
{
closed = 1;
nodes = (
(170,170,l),
(162,0,l),
(505,0,l),
(505,170,l)
);
},
{
closed = 1;
nodes = (
(170,428,l),
(162,248,l),
(475,248,l),
(475,428,l)
);
}
);
};
layerId = "BFFFD157-90D3-4B85-B99D-9A2F366F03CA";
shapes = (
{
closed = 1;
nodes = (
(254,635,l),
(40,700,l),
(40,0,l),
(254,53,l)
);
},
{
closed = 1;
nodes = (
(360,256,o),
(385,240,o),
(385,206,cs),
(385,178,o),
(368,157,o),
(310,157,cs),
(286,157,o),
(262,158,o),
(240,160,c),
(40,0,l),
(130,-5,o),
(201,-8,o),
(272,-8,cs),
(485,-8,o),
(610,48,o),
(610,191,cs),
(610,289,o),
(555,328,o),
(508,335,c),
(508,347,l),
(555,358,o),
(590,406,o),
(590,488,cs),
(590,625,o),
(492,708,o),
(260,708,cs),
(185,708,o),
(116,705,o),
(40,700,c),
(245,522,l),
(264,524,o),
(284,525,o),
(298,525,cs),
(354,525,o),
(378,502,o),
(378,472,cs),
(378,441,o),
(359,421,o),
(317,421,cs),
(247,421,l),
(236,256,l),
(308,256,ls)
);
}
);
width = 635;
},
{
anchors = (
{
name = bottom;
pos = (306,0);
},
{
name = top;
pos = (285,700);
}
);
associatedMasterId = "3E7589AA-8194-470F-8E2F-13C1C581BE24";
attr = {
coordinates = (
155
);
};
background = {
shapes = (
{
closed = 1;
nodes = (
(222,700,l),
(63,700,l),
(63,0,l),
(222,0,l)
);
},
{
closed = 1;
nodes = (
(155,700,l),
(150,546,l),
(498,546,l),
(498,700,l)
);
},
{
closed = 1;
nodes = (
(155,153,l),
(150,0,l),
(508,0,l),
(508,153,l)
);
},
{
closed = 1;
nodes = (
(155,417,l),
(150,270,l),
(478,270,l),
(478,417,l)
);
}
);
};
hints = (
{
horizontal = 1;
options = 4;
place = (707, 136);
stem = 2;
type = TTStem;
},
{
horizontal = 1;
place = (274, 128);
stem = 2;
type = TTStem;
},
{
horizontal = 1;
options = 4;
place = (-8, 128);
stem = 2;
type = TTStem;
}
);
layerId = "7DB523F8-EDD9-40A9-A67F-E711496DD6FA";
name = "{155}";
shapes = (
{
closed = 1;
nodes = (
(216,646,l),
(63,700,l),
(63,0,l),
(216,51,l)
);
},
{
closed = 1;
nodes = (
(386,271,o),
(421,244,o),
(421,201,cs),
(421,164,o),
(393,132,o),
(299,132,cs),
(266,132,o),
(227,133,o),
(193,136,c),
(63,0,l),
(143,-6,o),
(214,-9,o),
(277,-9,cs),
(465,-9,o),
(583,49,o),
(583,186,cs),
(583,296,o),
(506,327,o),
(466,334,c),
(466,345,l),
(507,359,o),
(554,405,o),
(554,496,cs),
(554,618,o),
(470,707,o),
(253,707,cs),
(191,707,o),
(127,704,o),
(63,700,c),
(190,559,l),
(220,561,o),
(252,562,o),
(274,562,cs),
(359,562,o),
(398,537,o),
(398,481,cs),
(398,434,o),
(372,411,o),
(295,411,cs),
(193,411,l),
(187,271,l),
(295,271,ls)
);
}
);
width = 625;
},
{
anchors = (
{
name = bottom;
pos = (307,0);
},
{
name = top;
pos = (305,700);
}
);
background = {
shapes = (
{
closed = 1;
nodes = (
(127,700,l),
(119,700,l),
(119,0,l),
(127,0,l)
);
},
{
closed = 1;
nodes = (
(125,700,l),
(125,692,l),
(501,692,l),
(501,700,l)
);
},
{
closed = 1;
nodes = (
(125,8,l),
(125,0,l),
(511,0,l),
(511,8,l)
);
},
{
closed = 1;
nodes = (
(125,340,l),
(125,332,l),
(481,332,l),
(481,340,l)
);
}
);
};
layerId = "FA91A8E1-7324-47F6-AE85-AED49CFCD01C";
shapes = (
{
closed = 1;
nodes = (
(127,695,l),
(119,700,l),
(119,0,l),
(127,3,l)
);
},
{
closed = 1;
nodes = (
(459,332,o),
(531,260,o),
(531,159,cs),
(531,49,o),
(438,2,o),
(285,2,cs),
(224,2,o),
(176,4,o),
(124,8,c),
(119,0,l),
(176,-3,o),
(224,-6,o),
(282,-6,cs),
(450,-6,o),
(539,47,o),
(539,160,cs),
(539,265,o),
(460,335,o),
(317,336,c),
(317,337,l),
(434,341,o),
(498,401,o),
(498,517,cs),
(498,608,o),
(455,706,o),
(264,706,cs),
(219,706,o),
(169,704,o),
(119,700,c),
(124,693,l),
(167,695,o),
(220,698,o),
(263,698,cs),
(452,698,o),
(490,603,o),
(490,515,cs),
(490,406,o),
(432,340,o),
(280,340,cs),
(124,340,l),
(124,332,l),
(279,332,ls)
);
}
);
width = 619;
},
{
anchors = (
{
name = bottom;
pos = (301,0);
},
{
name = top;
pos = (279,700);
}
);
background = {
shapes = (
{
closed = 1;
nodes = (
(139,382,l),
(137,292,l),
(481,292,l),
(481,382,l)
);
}
);
};
hints = (
{
horizontal = 1;
options = 4;
origin = (1,25);
stem = 2;
target = (1,32);
type = TTStem;
},
{
horizontal = 1;
origin = (1,40);
stem = 2;
target = (1,39);
type = TTStem;
},
{
horizontal = 1;
options = 4;
origin = (1,12);
stem = 2;
target = (1,5);
type = TTStem;
}
);
layerId = "3E7589AA-8194-470F-8E2F-13C1C581BE24";
shapes = (
{
closed = 1;
nodes = (
(178,657,l),
(85,700,l),
(85,0,l),
(178,49,l)
);
},
{
closed = 1;
nodes = (
(407,292,o),
(461,251,o),
(461,183,cs),
(461,121,o),
(422,82,o),
(292,82,cs),
(245,82,o),
(192,84,o),
(146,88,c),
(85,0,l),
(156,-5,o),
(227,-7,o),
(282,-7,cs),
(445,-7,o),
(555,48,o),
(555,185,cs),
(555,290,o),
(483,343,o),
(424,346,c),
(424,356,l),
(476,371,o),
(517,420,o),
(517,505,cs),
(517,618,o),
(448,706,o),
(254,706,cs),
(197,706,o),
(138,704,o),
(85,700,c),
(134,612,l),
(175,615,o),
(220,617,o),
(261,617,cs),
(369,617,o),
(423,586,o),
(423,498,cs),
(423,422,o),
(382,382,o),
(292,382,cs),
(139,382,l),
(137,292,l),
(294,292,ls)
);
}
);
width = 615;
}
);
metricLeft = H;
unicode = 66;
}
{
glyphname = E;
kernLeft = H;
kernRight = E;
layers = (
{
anchors = (
{
name = bottom;
pos = (271,0);
},
{
name = ogonek;
pos = (505,0);
},
{
name = tonos;
pos = (10,800);
},
{
name = top;
pos = (271,700);
},
{
name = topleft;
pos = (10,700);
}
);
layerId = "BFFFD157-90D3-4B85-B99D-9A2F366F03CA";
shapes = (
{
closed = 1;
nodes = (
(265,700,l),
(40,700,l),
(40,0,l),
(265,0,l)
);
},
{
closed = 1;
nodes = (
(170,700,l),
(162,510,l),
(495,510,l),
(495,700,l)
);
},
{
closed = 1;
nodes = (
(170,170,l),
(162,0,l),
(505,0,l),
(505,170,l)
);
},
{
closed = 1;
nodes = (
(170,428,l),
(162,248,l),
(475,248,l),
(475,428,l)
);
}
);
width = 537;
},
{
anchors = (
{
name = bottom;
pos = (303,0);
},
{
name = ogonek;
pos = (511,0);
},
{
name = tonos;
pos = (33,800);
},
{
name = top;
pos = (303,700);
},
{
name = topleft;
pos = (15,700);
}
);
hints = (
{
horizontal = 1;
options = 4;
origin = (0,2);
stem = 2;
target = (2,0);
type = TTStem;
},
{
horizontal = 1;
origin = (3,0);
stem = 2;
target = (3,1);
type = TTStem;
},
{
horizontal = 1;
options = 4;
origin = (0,1);
stem = 2;
target = (1,1);
type = TTStem;
}
);
layerId = "3E7589AA-8194-470F-8E2F-13C1C581BE24";
shapes = (
{
closed = 1;
nodes = (
(178,700,l),
(85,700,l),
(85,0,l),
(178,0,l)
);
},
{
closed = 1;
nodes = (
(139,700,l),
(137,610,l),
(501,610,l),
(501,700,l)
);
},
{
closed = 1;
nodes = (
(139,90,l),
(137,0,l),
(511,0,l),
(511,90,l)
);
},
{
closed = 1;
nodes = (
(139,382,l),
(137,292,l),
(481,292,l),
(481,382,l)
);
}
);
width = 585;
},
{
anchors = (
{
name = bottom;
pos = (287,0);
},
{
name = ogonek;
pos = (508,0);
},
{
name = tonos;
pos = (20,700);
},
{
name = top;
pos = (287,700);
},
{
name = topleft;
pos = (13,700);
}
);
associatedMasterId = "3E7589AA-8194-470F-8E2F-13C1C581BE24";
attr = {
coordinates = (
155
);
};
background = {
shapes = (
{
closed = 1;
nodes = (
(222,700,l),
(63,700,l),
(63,0,l),
(222,0,l)
);
},
{
closed = 1;
nodes = (
(155,700,l),
(150,560,l),
(498,560,l),
(498,700,l)
);
},
{
closed = 1;
nodes = (
(155,130,l),
(150,0,l),
(508,0,l),
(508,130,l)
);
},
{
closed = 1;
nodes = (
(155,405,l),
(150,270,l),
(478,270,l),
(478,405,l)
);
}
);
};
hints = (
{
horizontal = 1;
options = 4;
place = (0, 130);
stem = 2;
type = TTStem;
},
{
horizontal = 1;
place = (405, 135);
stem = 2;
type = TTStem;
},
{
horizontal = 1;
options = 4;
place = (700, 140);
stem = 2;
type = TTStem;
}
);
layerId = "C547734F-1E61-42F6-9333-BE0363325E41";
name = "{155}";
shapes = (
{
closed = 1;
nodes = (
(222,700,l),
(63,700,l),
(63,0,l),
(222,0,l)
);
},
{
closed = 1;
nodes = (
(155,700,l),
(150,546,l),
(498,546,l),
(498,700,l)
);
},
{
closed = 1;
nodes = (
(155,153,l),
(150,0,l),
(508,0,l),
(508,153,l)
);
},
{
closed = 1;
nodes = (
(155,417,l),
(150,270,l),
(478,270,l),
(478,417,l)
);
}
);
width = 561;
},
{
anchors = (
{
name = bottom;
pos = (321,0);
},
{
name = ogonek;
pos = (521,0);
},
{
name = tonos;
pos = (20,800);
},
{
name = top;
pos = (321,700);
},
{
name = topleft;
pos = (31,700);
}
);
layerId = "FA91A8E1-7324-47F6-AE85-AED49CFCD01C";
shapes = (
{
closed = 1;
nodes = (
(127,700,l),
(119,700,l),
(119,0,l),
(127,0,l)
);
},
{
closed = 1;
nodes = (
(125,700,l),
(125,692,l),
(501,692,l),
(501,700,l)
);
},
{
closed = 1;
nodes = (
(125,8,l),
(125,0,l),
(511,0,l),
(511,8,l)
);
},
{
closed = 1;
nodes = (
(125,340,l),
(125,332,l),
(481,332,l),
(481,340,l)
);
}
);
width = 602;
}
);
metricLeft = H;
unicode = 69;
}
{
glyphname = F;
kernLeft = H;
kernRight = F;
layers = (
{
anchors = (
{
name = bottom;
pos = (164,0);
},
{
name = top;
pos = (273,700);
}
);
background = {
shapes = (
{
closed = 1;
nodes = (
(265,700,l),
(40,700,l),
(40,0,l),
(265,0,l)
);
},
{
closed = 1;
nodes = (
(170,700,l),
(162,530,l),
(465,530,l),
(465,700,l)
);
},
{
closed = 1;
nodes = (
(170,170,l),
(162,0,l),
(475,0,l),
(475,170,l)
);
},
{
closed = 1;
nodes = (
(170,430,l),
(162,260,l),
(445,260,l),
(445,430,l)
);
}
);
};
layerId = "BFFFD157-90D3-4B85-B99D-9A2F366F03CA";
shapes = (
{
closed = 1;
nodes = (
(265,700,l),
(40,700,l),
(40,0,l),
(265,0,l)
);
},
{
closed = 1;
nodes = (
(170,700,l),
(162,490,l),
(488,490,l),
(488,700,l)
);
},
{
closed = 1;
nodes = (
(170,397,l),
(162,197,l),
(473,197,l),
(473,397,l)
);
}
);
width = 515;
},
{
anchors = (
{
name = bottom;
pos = (137,0);
},
{
name = top;
pos = (293,700);
}
);
background = {
shapes = (
{
closed = 1;
nodes = (
(139,382,l),
(137,292,l),
(481,292,l),
(481,382,l)
);
}
);
};
hints = (
{
horizontal = 1;
origin = (0,2);
type = TTSnap;
},
{
horizontal = 1;
origin = (2,0);
stem = 2;
target = (2,1);
type = TTStem;
},
{
horizontal = 1;
options = 4;
origin = (0,1);
stem = 2;
target = (1,1);
type = TTStem;
}
);
layerId = "3E7589AA-8194-470F-8E2F-13C1C581BE24";
shapes = (
{
closed = 1;
nodes = (
(178,700,l),
(85,700,l),
(85,0,l),
(178,0,l)
);
},
{
closed = 1;
nodes = (
(139,700,l),
(137,609,l),
(481,609,l),
(481,700,l)
);
},
{
closed = 1;
nodes = (
(139,382,l),
(137,291,l),
(461,291,l),
(461,382,l)
);
}
);
width = 531;
},
{
anchors = (
{
name = bottom;
pos = (125,0);
},
{
name = top;
pos = (320,700);
}
);
layerId = "FA91A8E1-7324-47F6-AE85-AED49CFCD01C";
shapes = (
{
closed = 1;
nodes = (
(127,700,l),
(119,700,l),
(119,0,l),
(127,0,l)
);
},
{
closed = 1;
nodes = (
(126,700,l),
(125,692,l),
(495,692,l),
(495,700,l)
);
},
{
closed = 1;
nodes = (
(124,330,l),
(124,322,l),
(475,322,l),
(475,330,l)
);
}
);
width = 549;
}
);
metricLeft = H;
unicode = 70;
}
{
glyphname = G;
kernLeft = O;
kernRight = G;
layers = (
{
anchors = (
{
name = bottom;
pos = (376,0);
},
{
name = top;
pos = (376,700);
},
{
name = topright;
pos = (669,700);
}
);
background = {
shapes = (
{
closed = 1;
nodes = (
(263,700,l),
(38,700,l),
(38,0,l),
(263,0,l)
);
},
{
closed = 1;
nodes = (
(168,700,l),
(160,510,l),
(493,510,l),
(493,700,l)
);
},
{
closed = 1;
nodes = (
(168,170,l),
(160,0,l),
(503,0,l),
(503,170,l)
);
},
{
closed = 1;
nodes = (
(168,428,l),
(160,248,l),
(473,248,l),
(473,428,l)
);
}
);
};
layerId = "BFFFD157-90D3-4B85-B99D-9A2F366F03CA";
shapes = (
{
closed = 1;
nodes = (
(503,-15,o),
(588,5,o),
(654,23,c),
(654,421,l),
(349,421,l),
(349,256,l),
(447,256,l),
(447,83,l),
(492,192,l),
(470,187,o),
(431,184,o),
(403,184,cs),
(310,184,o),
(261,234,o),
(261,343,cs),
(261,440,o),
(299,499,o),
(429,499,cs),
(489,499,o),
(554,489,o),
(602,475,c),
(627,681,l),
(565,700,o),
(493,715,o),
(405,715,cs),
(165,715,o),
(28,595,o),
(28,342,cs),
(28,101,o),
(161,-15,o),
(395,-15,cs)
);
}
);
width = 689;
},
{
anchors = (
{
name = bottom;
pos = (387,0);
},
{
name = top;
pos = (387,700);
},
{
name = topright;
pos = (664,700);
}
);
background = {
shapes = (
{
closed = 1;
nodes = (
(184,700,l),
(91,700,l),
(91,0,l),
(184,0,l)
);
},
{
closed = 1;
nodes = (
(145,700,l),
(143,610,l),
(507,610,l),
(507,700,l)
);
},
{
closed = 1;
nodes = (
(145,90,l),
(143,0,l),
(517,0,l),
(517,90,l)
);
},
{
closed = 1;
nodes = (
(145,382,l),
(143,292,l),
(487,292,l),
(487,382,l)
);
}
);
};
hints = (
{
horizontal = 1;
options = 4;
origin = (0,30);
stem = 2;
target = (0,30);
type = TTStem;
},
{
horizontal = 1;
options = 4;
origin = (0,24);
stem = 2;
target = (0,30);
type = TTStem;
},
{
horizontal = 1;
origin = (0,4);
stem = 2;
target = (0,30);
type = TTStem;
}
);
layerId = "3E7589AA-8194-470F-8E2F-13C1C581BE24";
shapes = (
{
closed = 1;
nodes = (
(509,-11,o),
(576,3,o),
(629,22,c),
(629,382,l),
(381,382,l),
(381,291,l),
(536,291,l),
(536,51,l),
(580,102,l),
(533,85,o),
(489,80,o),
(428,80,cs),
(246,80,o),
(163,162,o),
(163,344,cs),
(163,533,o),
(247,618,o),
(413,618,cs),
(473,618,o),
(532,607,o),
(583,589,c),
(601,677,l),
(553,696,o),
(493,711,o),
(416,711,cs),
(187,711,o),
(70,585,o),
(70,342,cs),
(70,111,o),
(181,-11,o),
(417,-11,cs)
);
}
);
width = 714;
},
{
anchors = (
{
name = bottom;
pos = (382,0);
},
{
name = top;
pos = (392,700);
},
{
name = topright;
pos = (667,700);
}
);
associatedMasterId = "3E7589AA-8194-470F-8E2F-13C1C581BE24";
attr = {
coordinates = (
155
);
};
background = {
shapes = (
{
closed = 1;
nodes = (
(506,-13,o),
(582,4,o),
(642,23,c),
(642,403,l),
(365,401,l),
(365,274,l),
(492,274,l),
(492,67,l),
(536,152,l),
(502,140,o),
(460,136,o),
(416,136,cs),
(278,136,o),
(212,199,o),
(212,344,cs),
(212,487,o),
(273,557,o),
(421,557,cs),
(481,557,o),
(536,546,o),
(582,531,c),
(614,679,l),
(559,698,o),
(493,713,o),
(411,713,cs),
(176,713,o),
(49,590,o),
(49,342,cs),
(49,106,o),
(171,-13,o),
(406,-13,cs)
);
}
);
};
hints = (
{
horizontal = 1;
options = 4;
place = (-13, 0);
stem = 2;
type = TTStem;
},
{
horizontal = 1;
options = 4;
place = (713, 726);
stem = 2;
type = TTStem;
},
{
horizontal = 1;
place = (401, 414);
stem = 2;
type = TTStem;
}
);
layerId = "90EAFF21-2A4C-4990-BD9B-8CA04631CB3B";
name = "{155}";
shapes = (
{
closed = 1;
nodes = (
(506,-13,o),
(582,4,o),
(642,24,c),
(642,409,l),
(365,409,l),
(365,262,l),
(492,262,l),
(492,67,l),
(536,152,l),
(502,143,o),
(460,140,o),
(416,140,cs),
(273,140,o),
(212,208,o),
(212,344,cs),
(212,482,o),
(273,555,o),
(425,555,cs),
(485,555,o),
(538,544,o),
(580,527,c),
(614,680,l),
(564,700,o),
(497,713,o),
(414,713,cs),
(176,713,o),
(49,590,o),
(49,342,cs),
(49,106,o),
(171,-13,o),
(406,-13,cs)
);
}
);
width = 703;
},
{
anchors = (
{
name = bottom;
pos = (387,0);
},
{
name = top;
pos = (387,700);
},
{
name = topright;
pos = (664,700);
}
);
associatedMasterId = "3E7589AA-8194-470F-8E2F-13C1C581BE24";
background = {
shapes = (
{
closed = 1;
nodes = (
(213,700,l),
(120,700,l),
(120,0,l),
(213,0,l)
);
},
{
closed = 1;
nodes = (
(620,700,l),
(527,700,l),
(527,0,l),
(620,0,l)
);
},
{
closed = 1;
nodes = (
(174,369,l),
(172,278,l),
(584,278,l),
(588,369,l)
);
}
);
};
hints = (
{
horizontal = 1;
options = 4;
origin = (0,30);
target = (0,11);
type = TTStem;
},
{
horizontal = 1;
options = 4;
origin = (0,5);
target = (0,4);
type = TTStem;
},
{
horizontal = 1;
options = 4;
origin = (0,24);
target = (0,17);
type = TTStem;
}
);
layerId = "A72F423E-0F50-44D8-8D57-9C699762D334";
name = "Dec 1 16, 17:42";
shapes = (
{
closed = 1;
nodes = (
(509,-11,o),
(576,5,o),
(629,26,c),
(629,369,l),
(381,369,l),
(381,278,l),
(536,278,l),
(536,51,l),
(580,102,l),
(533,85,o),
(489,80,o),
(428,80,cs),
(246,80,o),
(163,162,o),
(163,344,cs),
(163,533,o),
(247,619,o),
(420,619,cs),
(480,619,o),
(532,610,o),
(578,591,c),
(601,678,l),
(558,698,o),
(500,711,o),
(423,711,cs),
(187,711,o),
(70,585,o),
(70,342,cs),
(70,111,o),
(181,-11,o),
(417,-11,cs)
);
}
);
width = 689;
},
{
anchors = (
{
name = bottom;
pos = (367,0);
},
{
name = top;
pos = (361,700);
},
{
name = topright;
pos = (654,700);
}
);
background = {
shapes = (
{
closed = 1;
nodes = (
(129,700,l),
(121,700,l),
(121,0,l),
(129,0,l)
);
},
{
closed = 1;
nodes = (
(127,700,l),
(127,692,l),
(503,692,l),
(503,700,l)
);
},
{
closed = 1;
nodes = (
(127,8,l),
(127,0,l),
(513,0,l),
(513,8,l)
);
},
{
closed = 1;
nodes = (
(127,340,l),
(127,332,l),
(483,332,l),
(483,340,l)
);
}
);
};
layerId = "FA91A8E1-7324-47F6-AE85-AED49CFCD01C";
shapes = (
{
closed = 1;
nodes = (
(473,-7,o),
(535,5,o),
(591,29,c),
(591,340,l),
(375,340,l),
(375,332,l),
(583,332,l),
(583,27,l),
(588,36,l),
(534,13,o),
(468,1,o),
(392,1,cs),
(197,1,o),
(93,123,o),
(93,347,cs),
(93,580,o),
(195,699,o),
(383,699,cs),
(451,699,o),
(511,683,o),
(559,656,c),
(561,664,l),
(512,691,o),
(454,707,o),
(383,707,cs),
(191,707,o),
(85,586,o),
(85,347,cs),
(85,118,o),
(191,-7,o),
(393,-7,cs)
);
}
);
width = 715;
}
);
metricLeft = O;
unicode = 71;
}
{
glyphname = I;
kernLeft = H;
kernRight = H;
layers = (
{
anchors = (
{
name = bottom;
pos = (163,0);
},
{
name = ogonek;
pos = (275,0);
},
{
name = tonos;
pos = (20,800);
},
{
name = top;
pos = (163,700);
},
{
name = topleft;
pos = (15,700);
}
);
layerId = "BFFFD157-90D3-4B85-B99D-9A2F366F03CA";
shapes = (
{
closed = 1;
nodes = (
(275,700,l),
(50,700,l),
(50,0,l),
(275,0,l)
);
}
);
width = 325;
},
{
anchors = (
{
name = bottom;
pos = (142,0);
},
{
name = ogonek;
pos = (188,0);
},
{
name = tonos;
pos = (43,800);
},
{
name = top;
pos = (142,700);
},
{
name = topleft;
pos = (16,700);
}
);
hints = (
{
horizontal = 1;
origin = (0,2);
type = TTSnap;
},
{
horizontal = 1;
origin = (0,1);
type = TTSnap;
}
);
layerId = "3E7589AA-8194-470F-8E2F-13C1C581BE24";
shapes = (
{
closed = 1;
nodes = (
(188,700,l),
(95,700,l),
(95,0,l),
(188,0,l)
);
}
);
width = 283;
},
{
anchors = (
{
name = bottom;
pos = (134,0);
},
{
name = ogonek;
pos = (137,0);
},
{
name = tonos;
pos = (30,800);
},
{
name = top;
pos = (134,700);
},
{
name = topleft;
pos = (30,700);
}
);
layerId = "FA91A8E1-7324-47F6-AE85-AED49CFCD01C";
shapes = (
{
closed = 1;
nodes = (
(137,700,l),
(129,700,l),
(129,0,l),
(137,0,l)
);
}
);
width = 266;
}
);
unicode = 73;
}
{
glyphname = J;
kernLeft = J;
kernRight = J;
layers = (
{
anchors = (
{
name = bottom;
pos = (36,-212);
},
{
name = top;
pos = (205,700);
}
);
layerId = "BFFFD157-90D3-4B85-B99D-9A2F366F03CA";
shapes = (
{
closed = 1;
nodes = (
(315,700,l),
(90,700,l),
(90,97,ls),
(90,25,o),
(67,-7,o),
(-26,-25,c),
(36,-212,l),
(243,-177,o),
(315,-65,o),
(315,100,cs)
);
}
);
width = 365;
},
{
anchors = (
{
name = bottom;
pos = (29,-209);
},
{
name = top;
pos = (180,700);
}
);
hints = (
{
horizontal = 1;
origin = (0,6);
type = TTSnap;
},
{
horizontal = 1;
origin = (0,1);
type = TTSnap;
}
);
layerId = "3E7589AA-8194-470F-8E2F-13C1C581BE24";
shapes = (
{
closed = 1;
nodes = (
(224,700,l),
(131,700,l),
(131,70,ls),
(131,-52,o),
(89,-83,o),
(-8,-124,c),
(29,-209,l),
(154,-155,o),
(224,-90,o),
(224,70,cs)
);
}
);
width = 319;
},
{
anchors = (
{
name = bottom;
pos = (17,-208);
},
{
name = top;
pos = (180,700);
}
);
layerId = "FA91A8E1-7324-47F6-AE85-AED49CFCD01C";
shapes = (
{
closed = 1;
nodes = (
(182,700,l),
(174,700,l),
(174,41,ls),
(174,-105,o),
(104,-170,o),
(13,-200,c),
(17,-207,l),
(110,-176,o),
(182,-109,o),
(182,44,cs)
);
}
);
width = 311;
}
);
unicode = 74;
}
{
glyphname = K;
kernLeft = H;
kernRight = K;
layers = (
{
anchors = (
{
name = bottom;
pos = (326,0);
},
{
name = top;
pos = (336,700);
}
);
background = {
shapes = (
{
closed = 1;
nodes = (
(265,700,l),
(40,700,l),
(40,0,l),
(265,0,l)
);
},
{
closed = 1;
nodes = (
(691,14,l),
(652,88,o),
(616,153,o),
(572,227,cs),
(534,292,o),
(491,358,o),
(397,394,c),
(391,252,l),
(482,316,o),
(522,377,o),
(557,450,cs),
(595,529,o),
(627,606,o),
(656,684,c),
(651,700,l),
(419,700,l),
(400,634,o),
(372,553,o),
(342,477,cs),
(320,422,o),
(314,413,o),
(280,413,cs),
(176,413,l),
(176,188,l),
(280,188,ls),
(311,188,o),
(323,182,o),
(343,149,cs),
(376,94,o),
(401,48,o),
(424,0,c),
(688,0,l)
);
}
);
};
layerId = "BFFFD157-90D3-4B85-B99D-9A2F366F03CA";
shapes = (
{
closed = 1;
nodes = (
(265,700,l),
(40,700,l),
(40,0,l),
(265,0,l)
);
},
{
closed = 1;
nodes = (
(716,0,l),
(496,353,l),
(691,700,l),
(428,700,l),
(281,448,l),
(225,448,l),
(254,106,l),
(301,203,l),
(317,203,l),
(436,0,l)
);
}
);
width = 705;
},
{
anchors = (
{
name = bottom;
pos = (299,0);
},
{
name = top;
pos = (299,700);
}
);
background = {
shapes = (
{
closed = 1;
nodes = (
(178,700,l),
(85,700,l),
(85,0,l),
(178,0,l)
);
},
{
closed = 1;
nodes = (
(589,0,l),
(333,375,l),
(564,700,l),
(456,700,l),
(191,328,l),
(146,328,l),
(152,143,l),
(263,289,l),
(277,289,l),
(467,0,l)
);
}
);
};
hints = (
{
horizontal = 1;
origin = (0,1);
type = TTSnap;
},
{
horizontal = 1;
origin = (0,2);
type = TTSnap;
},
{
horizontal = 1;
origin = (1,9);
type = TTSnap;
},
{
horizontal = 1;
origin = (1,3);
type = TTSnap;
}
);
layerId = "3E7589AA-8194-470F-8E2F-13C1C581BE24";
shapes = (
{
closed = 1;
nodes = (
(178,700,l),
(85,700,l),
(85,0,l),
(178,0,l)
);
},
{
closed = 1;
nodes = (
(589,0,l),
(317,384,l),
(564,700,l),
(456,700,l),
(191,358,l),
(146,358,l),
(152,173,l),
(247,298,l),
(261,298,l),
(467,0,l)
);
}
);
width = 622;
},
{
anchors = (
{
name = bottom;
pos = (293,0);
},
{
name = top;
pos = (287,700);
}
);
layerId = "FA91A8E1-7324-47F6-AE85-AED49CFCD01C";
shapes = (
{
closed = 1;
nodes = (
(127,700,l),
(119,700,l),
(119,0,l),
(127,0,l)
);
},
{
closed = 1;
nodes = (
(563,0,l),
(245,381,l),
(523,700,l),
(514,700,l),
(132,265,l),
(123,265,l),
(125,245,l),
(237,373,l),
(241,373,l),
(551,0,l)
);
}
);
width = 613;
}
);
metricLeft = H;
unicode = 75;
}
{
glyphname = L;
kernLeft = H;
kernRight = L;
layers = (
{
anchors = (
{
name = bottom;
pos = (265,0);
},
{
name = center;
pos = (162,350);
},
{
name = top;
pos = (172,700);
},
{
name = topright;
pos = (285,490);
}
);
layerId = "BFFFD157-90D3-4B85-B99D-9A2F366F03CA";
shapes = (
{
closed = 1;
nodes = (
(265,700,l),
(40,700,l),
(40,0,l),
(265,0,l)
);
},
{
closed = 1;
nodes = (
(170,215,l),
(162,0,l),
(495,0,l),
(495,215,l)
);
}
);
width = 525;
},
{
anchors = (
{
name = bottom;
pos = (286,0);
},
{
name = center;
pos = (137,350);
},
{
name = top;
pos = (165,700);
},
{
name = topright;
pos = (198,480);
}
);
hints = (
{
horizontal = 1;
origin = (0,1);
type = TTSnap;
},
{
horizontal = 1;
options = 4;
origin = (1,2);
stem = 2;
target = (0,2);
type = TTStem;
}
);
layerId = "3E7589AA-8194-470F-8E2F-13C1C581BE24";
shapes = (
{
closed = 1;
nodes = (
(178,700,l),
(85,700,l),
(85,0,l),
(178,0,l)
);
},
{
closed = 1;
nodes = (
(139,91,l),
(137,0,l),
(491,0,l),
(491,91,l)
);
}
);
width = 547;
},
{
anchors = (
{
name = bottom;
pos = (292,0);
},
{
name = center;
pos = (123,350);
},
{
name = top;
pos = (144,700);
},
{
name = topright;
pos = (148,468);
}
);
layerId = "FA91A8E1-7324-47F6-AE85-AED49CFCD01C";
shapes = (
{
closed = 1;
nodes = (
(127,700,l),
(119,700,l),
(119,0,l),
(127,0,l)
);
},
{
closed = 1;
nodes = (
(124,8,l),
(124,0,l),
(480,0,l),
(480,8,l)
);
}
);
width = 539;
}
);
metricLeft = H;
unicode = 76;
}
{
glyphname = M;
kernLeft = M;
kernRight = M;
layers = (
{
anchors = (
{
name = bottom;
pos = (502,0);
},
{
name = top;
pos = (502,700);
}
);
layerId = "BFFFD157-90D3-4B85-B99D-9A2F366F03CA";
shapes = (
{
closed = 1;
nodes = (
(895,700,l),
(585,700,l),
(514,343,l),
(493,343,l),
(406,700,l),
(102,700,l),
(35,0,l),
(258,0,l),
(280,364,l),
(303,364,l),
(382,10,l),
(600,10,l),
(674,364,l),
(697,364,l),
(723,0,l),
(969,0,l)
);
}
);
width = 1004;
},
{
anchors = (
{
name = bottom;
pos = (458,0);
},
{
name = top;
pos = (458,700);
}
);
background = {
shapes = (
{
closed = 1;
nodes = (
(900,0,l),
(746,700,l),
(596,700,l),
(451,155,l),
(445,155,l),
(306,700,l),
(156,700,l),
(2,0,l),
(99,0,l),
(223,607,l),
(244,607,l),
(397,10,l),
(505,10,l),
(663,607,l),
(684,607,l),
(806,0,l)
);
}
);
};
hints = (
{
horizontal = 1;
origin = (0,6);
type = TTSnap;
},
{
horizontal = 1;
options = 4;
origin = (0,5);
target = (0,8);
type = TTStem;
},
{
horizontal = 1;
options = 4;
origin = (0,10);
target = (0,3);
type = TTStem;
},
{
horizontal = 1;
origin = (0,14);
type = TTSnap;
},
{
horizontal = 1;
options = 4;
origin = (0,5);
target = (0,1);
type = TTShift;
},
{
horizontal = 1;
options = 4;
origin = (0,8);
target = (0,12);
type = TTShift;
}
);
layerId = "3E7589AA-8194-470F-8E2F-13C1C581BE24";
shapes = (
{
closed = 1;
nodes = (
(775,700,l),
(631,700,l),
(463,126,l),
(457,126,l),
(284,700,l),
(139,700,l),
(71,0,l),
(160,0,l),
(214,588,l),
(230,588,l),
(404,10,l),
(508,10,l),
(678,588,l),
(694,588,l),
(756,0,l),
(845,0,l)
);
}
);
width = 916;
},
{
anchors = (
{
name = bottom;
pos = (454,0);
},
{
name = top;
pos = (455,700);
}
);
layerId = "FA91A8E1-7324-47F6-AE85-AED49CFCD01C";
shapes = (
{
closed = 1;
nodes = (
(739,700,l),
(721,700,l),
(455,15,l),
(453,15,l),
(186,700,l),
(168,700,l),
(98,0,l),
(105,0,l),
(175,691,l),
(181,691,l),
(448,3,l),
(459,3,l),
(726,691,l),
(732,691,l),
(804,0,l),
(811,0,l)
);
}
);
width = 909;
}
);
unicode = 77;
}
{
glyphname = N;
kernLeft = H;
kernRight = H;
layers = (
{
anchors = (
{
name = bottom;
pos = (360,0);
},
{
name = top;
pos = (360,700);
},
{
name = topright;
pos = (710,700);
}
);
background = {
shapes = (
{
closed = 1;
nodes = (
(465,393,l),
(225,700,l),
(40,700,l),
(40,0,l),
(255,0,l),
(255,298,l),
(495,0,l),
(680,0,l),
(680,700,l),
(465,700,l)
);
}
);
};
layerId = "BFFFD157-90D3-4B85-B99D-9A2F366F03CA";
shapes = (
{
closed = 1;
nodes = (
(465,284,l),
(536,305,l),
(225,700,l),
(40,700,l),
(40,0,l),
(255,0,l),
(255,407,l),
(183,385,l),
(495,0,l),
(680,0,l),
(680,700,l),
(465,700,l)
);
}
);
width = 720;
},
{
anchors = (
{
name = bottom;
pos = (355,0);
},
{
name = top;
pos = (355,700);
},
{
name = topright;
pos = (695,700);
}
);
hints = (
{
horizontal = 1;
origin = (0,4);
type = TTSnap;
},
{
horizontal = 1;
origin = (0,3);
type = TTSnap;
},
{
horizontal = 1;
options = 4;
origin = (0,3);
target = (0,11);
type = TTShift;
},
{
horizontal = 1;
options = 4;
origin = (0,4);
target = (0,8);
type = TTShift;
}
);
layerId = "3E7589AA-8194-470F-8E2F-13C1C581BE24";
shapes = (
{
closed = 1;
nodes = (
(535,137,l),
(558,144,l),
(165,700,l),
(85,700,l),
(85,0,l),
(175,0,l),
(175,565,l),
(152,558,l),
(545,0,l),
(625,0,l),
(625,700,l),
(535,700,l)
);
}
);
width = 710;
},
{
anchors = (
{
name = bottom;
pos = (350,0);
},
{
name = top;
pos = (350,700);
},
{
name = topright;
pos = (671,700);
}
);
background = {
shapes = (
{
closed = 1;
nodes = (
(127,700,l),
(119,700,l),
(119,0,l),
(127,0,l)
);
},
{
closed = 1;
nodes = (
(581,700,l),
(573,700,l),
(573,0,l),
(581,0,l)
);
},
{
closed = 1;
nodes = (
(124,331,l),
(124,323,l),
(574,323,l),
(574,331,l)
);
}
);
};
layerId = "FA91A8E1-7324-47F6-AE85-AED49CFCD01C";
shapes = (
{
closed = 1;
nodes = (
(573,16,l),
(575,16,l),
(125,700,l),
(119,700,l),
(119,0,l),
(127,0,l),
(127,685,l),
(125,685,l),
(576,0,l),
(581,0,l),
(581,700,l),
(573,700,l)
);
}
);
width = 700;
}
);
metricLeft = H;
metricRight = H;
unicode = 78;
}
{
glyphname = O;
kernLeft = O;
kernRight = O;
layers = (
{
anchors = (
{
name = "#exit";
pos = (608,630);
},
{
name = bottom;
pos = (374,0);
},
{
name = center;
pos = (375,346);
},
{
name = ogonek;
pos = (504,10);
},
{
name = tonos;
pos = (42,800);
},
{
name = top;
pos = (374,700);
},
{
name = topleft;
pos = (13,700);
},
{
name = topright;
pos = (735,700);
}
);
background = {
shapes = (
{
closed = 1;
nodes = (
(455,212,o),
(429,170,o),
(367,170,cs),
(308,170,o),
(281,212,o),
(281,320,cs),
(281,376,o),
(286,446,o),
(295,482,c),
(314,489,o),
(343,494,o),
(371,494,cs),
(401,494,o),
(427,488,o),
(446,481,c),
(451,451,o),
(455,386,o),
(455,328,cs)
);
},
{
closed = 1;
nodes = (
(682,379,cs),
(682,479,o),
(666,592,o),
(638,667,c),
(564,697,o),
(497,710,o),
(392,710,cs),
(176,710,o),
(55,601,o),
(55,322,cs),
(55,92,o),
(171,-10,o),
(361,-10,cs),
(590,-10,o),
(682,97,o)
);
}
);
};
layerId = "BFFFD157-90D3-4B85-B99D-9A2F366F03CA";
shapes = (
{
closed = 1;
nodes = (
(583,-15,o),
(721,114,o),
(721,354,cs),
(721,584,o),
(592,715,o),
(381,715,cs),
(165,715,o),
(28,585,o),
(28,342,cs),
(28,111,o),
(159,-15,o),
(369,-15,cs)
);
},
{
closed = 1;
nodes = (
(303,199,o),
(264,248,o),
(264,345,cs),
(264,443,o),
(303,492,o),
(374,492,cs),
(448,492,o),
(486,443,o),
(486,342,cs),
(486,245,o),
(448,199,o),
(377,199,cs)
);
}
);
width = 749;
},
{
anchors = (
{
name = "#exit";
pos = (604,630);
},
{
name = bottom;
pos = (378,0);
},
{
name = center;
pos = (383,352);
},
{
name = ogonek;
pos = (462,0);
},
{
name = tonos;
pos = (80,800);
},
{
name = top;
pos = (378,700);
},
{
name = topleft;
pos = (30,700);
},
{
name = topright;
pos = (746,700);
}
);
hints = (
{
horizontal = 1;
options = 4;
origin = (0,11);
stem = 2;
target = (0,11);
type = TTStem;
},
{
horizontal = 1;
options = 4;
origin = (0,5);
stem = 2;
target = (0,11);
type = TTStem;
}
);
layerId = "3E7589AA-8194-470F-8E2F-13C1C581BE24";
shapes = (
{
closed = 1;
nodes = (
(559,-12,o),
(686,113,o),
(686,350,cs),
(686,580,o),
(568,712,o),
(382,712,cs),
(196,712,o),
(70,585,o),
(70,342,cs),
(70,114,o),
(190,-12,o),
(373,-12,cs)
);
},
{
closed = 1;
nodes = (
(239,78,o),
(163,172,o),
(163,349,cs),
(163,532,o),
(244,621,o),
(377,621,cs),
(513,621,o),
(593,529,o),
(593,343,cs),
(593,167,o),
(514,78,o),
(379,78,cs)
);
}
);
width = 756;
},
{
anchors = (
{
name = "#exit";
pos = (575,630);
},
{
name = bottom;
pos = (376,0);
},
{
name = center;
pos = (376,350);
},
{
name = ogonek;
pos = (444,0);
},
{
name = tonos;
pos = (40,778);
},
{
name = top;
pos = (376,700);
},
{
name = topleft;
pos = (17,700);
},
{
name = topright;
pos = (735,700);
}
);
layerId = "FA91A8E1-7324-47F6-AE85-AED49CFCD01C";
shapes = (
{
closed = 1;
nodes = (
(546,-7,o),
(667,105,o),
(667,348,cs),
(667,588,o),
(551,707,o),
(378,707,cs),
(205,707,o),
(85,585,o),
(85,349,cs),
(85,110,o),
(204,-7,o),
(377,-7,cs)
);
},
{
closed = 1;
nodes = (
(209,1,o),
(93,115,o),
(93,348,cs),
(93,583,o),
(210,699,o),
(379,699,cs),
(547,699,o),
(659,584,o),
(659,349,cs),
(659,109,o),
(542,1,o),
(376,1,cs)
);
}
);
width = 752;
}
);
unicode = 79;
}
{
glyphname = P;
kernLeft = H;
kernRight = P;
layers = (
{
anchors = (
{
name = bottom;
pos = (159,0);
},
{
name = tonos;
pos = (10,800);
},
{
name = top;
pos = (283,700);
}
);
background = {
shapes = (
{
closed = 1;
nodes = (
(265,635,l),
(40,700,l),
(40,0,l),
(265,0,l)
);
},
{
closed = 1;
nodes = (
(509,131,o),
(607,241,o),
(607,412,cs),
(607,583,o),
(511,707,o),
(248,707,cs),
(195,707,o),
(120,705,o),
(40,700,c),
(217,493,l),
(246,496,o),
(276,498,o),
(305,498,cs),
(366,498,o),
(389,464,o),
(389,413,cs),
(389,361,o),
(364,330,o),
(305,330,cs),
(273,330,o),
(243,332,o),
(214,335,c),
(179,137,l),
(221,133,o),
(264,131,o),
(306,131,cs)
);
}
);
};
layerId = "BFFFD157-90D3-4B85-B99D-9A2F366F03CA";
shapes = (
{
closed = 1;
nodes = (
(265,638,l),
(40,700,l),
(40,0,l),
(265,0,l)
);
},
{
closed = 1;
nodes = (
(509,152,o),
(607,258,o),
(607,423,cs),
(607,588,o),
(511,707,o),
(248,707,cs),
(195,707,o),
(120,705,o),
(40,700,c),
(217,494,l),
(246,496,o),
(276,498,o),
(305,498,cs),
(366,498,o),
(389,468,o),
(389,423,cs),
(389,376,o),
(364,349,o),
(305,349,cs),
(273,349,o),
(243,351,o),
(214,353,c),
(179,158,l),
(221,154,o),
(264,152,o),
(306,152,cs)
);
}
);
width = 627;
},
{
anchors = (
{
name = bottom;
pos = (133,0);
},
{
name = tonos;
pos = (33,800);
},
{
name = top;
pos = (274,700);
}
);
background = {
shapes = (
{
closed = 1;
nodes = (
(178,653,l),
(85,700,l),
(85,0,l),
(178,0,l)
);
},
{
closed = 1;
nodes = (
(389,263,l),
(448,291,o),
(531,340,o),
(531,480,cs),
(531,622,o),
(449,706,o),
(252,706,cs),
(206,706,o),
(148,704,o),
(85,700,c),
(144,609,l),
(188,613,o),
(231,614,o),
(265,614,cs),
(383,614,o),
(440,563,o),
(440,477,cs),
(440,400,o),
(394,362,o),
(360,341,c),
(171,341,l),
(171,249,l),
(352,249,l)
);
},
{
closed = 1;
nodes = (
(564,0,l),
(384,320,l),
(304,268,l),
(444,0,l)
);
}
);
};
hints = (
{
horizontal = 1;
origin = (0,2);
type = TTSnap;
},
{
horizontal = 1;
origin = (1,25);
stem = 2;
target = (1,18);
type = TTStem;
},
{
horizontal = 1;
options = 4;
origin = (1,5);
stem = 2;
target = (1,12);
type = TTStem;
}
);
layerId = "3E7589AA-8194-470F-8E2F-13C1C581BE24";
shapes = (
{
closed = 1;
nodes = (
(178,656,l),
(85,700,l),
(85,0,l),
(178,0,l)
);
},
{
closed = 1;
nodes = (
(454,232,o),
(538,333,o),
(538,469,cs),
(538,603,o),
(459,706,o),
(252,706,cs),
(201,706,o),
(148,705,o),
(85,700,c),
(138,609,l),
(176,613,o),
(210,614,o),
(258,614,cs),
(387,614,o),
(445,556,o),
(445,464,cs),
(445,378,o),
(390,324,o),
(265,324,cs),
(223,324,o),
(181,325,o),
(139,327,c),
(137,235,l),
(176,233,o),
(215,232,o),
(264,232,cs)
);
}
);
width = 603;
},
{
anchors = (
{
name = bottom;
pos = (122,0);
},
{
name = tonos;
pos = (50,800);
},
{
name = top;
pos = (280,700);
}
);
background = {
shapes = (
{
closed = 1;
nodes = (
(127,697,l),
(119,700,l),
(119,0,l),
(127,0,l)
);
},
{
closed = 1;
nodes = (
(342,308,l),
(422,335,o),
(488,393,o),
(488,504,cs),
(488,620,o),
(417,706,o),
(248,706,cs),
(211,706,o),
(170,704,o),
(119,700,c),
(123,692,l),
(171,696,o),
(211,698,o),
(247,698,cs),
(412,698,o),
(480,615,o),
(480,504,cs),
(480,396,o),
(416,342,o),
(338,315,c),
(125,315,l),
(125,307,l),
(340,307,l)
);
},
{
closed = 1;
nodes = (
(547,0,l),
(342,313,l),
(335,310,l),
(535,0,l)
);
}
);
};
layerId = "FA91A8E1-7324-47F6-AE85-AED49CFCD01C";
shapes = (
{
closed = 1;
nodes = (
(127,697,l),
(119,700,l),
(119,0,l),
(127,0,l)
);
},
{
closed = 1;
nodes = (
(414,278,o),
(520,341,o),
(520,488,cs),
(520,631,o),
(422,705,o),
(240,705,cs),
(206,705,o),
(166,704,o),
(119,700,c),
(122,692,l),
(167,696,o),
(205,697,o),
(240,697,cs),
(418,697,o),
(512,622,o),
(512,488,cs),
(512,349,o),
(411,286,o),
(238,286,cs),
(199,286,o),
(160,287,o),
(124,288,c),
(124,280,l),
(162,279,o),
(196,278,o),
(238,278,cs)
);
}
);
width = 599;
}
);
metricLeft = H;
unicode = 80;
}
{
glyphname = Q;
kernLeft = O;
kernRight = O;
layers = (
{
anchors = (
{
name = bottom;
pos = (374,0);
},
{
name = top;
pos = (374,700);
}
);
background = {
shapes = (
{
closed = 1;
nodes = (
(583,-15,o),
(721,114,o),
(721,354,cs),
(721,584,o),
(592,715,o),
(381,715,cs),
(165,715,o),
(28,585,o),
(28,342,cs),
(28,111,o),
(159,-15,o),
(369,-15,cs)
);
},
{
closed = 1;
nodes = (
(303,196,o),
(264,248,o),
(264,348,cs),
(264,449,o),
(303,495,o),
(374,495,cs),
(448,495,o),
(486,449,o),
(486,345,cs),
(486,245,o),
(448,196,o),
(377,196,cs)
);
}
);
};
layerId = "BFFFD157-90D3-4B85-B99D-9A2F366F03CA";
shapes = (
{
closed = 1;
nodes = (
(583,-15,o),
(721,114,o),
(721,354,cs),
(721,584,o),
(592,715,o),
(381,715,cs),
(165,715,o),
(28,585,o),
(28,342,cs),
(28,111,o),
(159,-15,o),
(369,-15,cs)
);
},
{
closed = 1;
nodes = (
(303,199,o),
(264,248,o),
(264,345,cs),
(264,443,o),
(303,492,o),
(374,492,cs),
(448,492,o),
(486,443,o),
(486,342,cs),
(486,245,o),
(448,199,o),
(377,199,cs)
);
},
{
closed = 1;
nodes = (
(731,-110,l),
(545,187,l),
(333,100,l),
(459,-110,l)
);
}
);
width = 749;
},
{
anchors = (
{
name = bottom;
pos = (368,0);
},
{
name = top;
pos = (378,700);
}
);
background = {
shapes = (
{
closed = 1;
nodes = (
(163,532,o),
(244,621,o),
(377,621,cs),
(513,621,o),
(593,529,o),
(593,343,cs),
(593,164,o),
(514,78,o),
(379,78,cs),
(239,78,o),
(163,169,o),
(163,349,cs)
);
},
{
closed = 1;
nodes = (
(413,-97,o),
(563,-127,o),
(670,-137,c),
(679,-39,l),
(600,-35,o),
(504,-27,o),
(413,-4,c),
(414,7,l),
(580,14,o),
(686,136,o),
(686,350,cs),
(686,580,o),
(568,712,o),
(382,712,cs),
(196,712,o),
(70,585,o),
(70,342,cs),
(70,114,o),
(196,16,o),
(292,-34,cs)
);
}
);
};
hints = (
{
horizontal = 1;
options = 4;
place = (-39, 98);
stem = -1;
type = TTStem;
},
{
horizontal = 1;
options = 4;
place = (7, 0);
type = TTSnap;
},
{
horizontal = 1;
options = 4;
place = (712, 91);
stem = 2;
type = TTStem;
},
{
horizontal = 1;
options = 4;
place = (7, 71);
stem = 2;
type = TTStem;
}
);
layerId = "3E7589AA-8194-470F-8E2F-13C1C581BE24";
shapes = (
{
closed = 1;
nodes = (
(559,-12,o),
(686,113,o),
(686,350,cs),
(686,580,o),
(568,712,o),
(382,712,cs),
(196,712,o),
(70,585,o),
(70,342,cs),
(70,114,o),
(190,-12,o),
(373,-12,cs)
);
},
{
closed = 1;
nodes = (
(239,78,o),
(163,172,o),
(163,349,cs),
(163,532,o),
(244,621,o),
(377,621,cs),
(513,621,o),
(593,529,o),
(593,343,cs),
(593,167,o),
(514,78,o),
(379,78,cs)
);
},
{
closed = 1;
nodes = (
(704,-110,l),
(537,104,l),
(460,52,l),
(584,-110,l)
);
}
);
width = 756;
},
{
anchors = (
{
name = bottom;
pos = (376,0);
},
{
name = top;
pos = (376,700);
}
);
background = {
shapes = (
{
closed = 1;
nodes = (
(667,588,o),
(551,707,o),
(378,707,cs),
(205,707,o),
(85,585,o),
(85,349,cs),
(85,122,o),
(188,15,o),
(335,-5,c),
(324,2,l),
(322,-5,l),
(445,-61,o),
(557,-83,o),
(665,-89,c),
(665,-81,l),
(559,-76,o),
(449,-51,o),
(348,-7,c),
(348,-6,l),
(563,-19,o),
(667,123,o),
(667,348,cs)
);
},
{
closed = 1;
nodes = (
(93,583,o),
(210,699,o),
(379,699,cs),
(546,699,o),
(659,583,o),
(659,349,cs),
(659,106,o),
(541,1,o),
(376,1,cs),
(209,1,o),
(93,113,o),
(93,348,cs)
);
}
);
};
layerId = "FA91A8E1-7324-47F6-AE85-AED49CFCD01C";
shapes = (
{
closed = 1;
nodes = (
(546,-7,o),
(667,105,o),
(667,348,cs),
(667,588,o),
(551,707,o),
(378,707,cs),
(205,707,o),
(85,585,o),
(85,349,cs),
(85,110,o),
(204,-7,o),
(377,-7,cs)
);
},
{
closed = 1;
nodes = (
(209,1,o),
(93,115,o),
(93,348,cs),
(93,583,o),
(210,699,o),
(379,699,cs),
(547,699,o),
(659,584,o),
(659,349,cs),
(659,109,o),
(542,1,o),
(376,1,cs)
);
},
{
closed = 1;
nodes = (
(684,-110,l),
(540,43,l),
(533,40,l),
(672,-110,l)
);
}
);
width = 752;
},
{
anchors = (
{
name = bottom;
pos = (374,0);
},
{
name = top;
pos = (374,700);
}
);
associatedMasterId = "BFFFD157-90D3-4B85-B99D-9A2F366F03CA";
background = {
shapes = (
{
closed = 1;
nodes = (
(583,-15,o),
(721,114,o),
(721,354,cs),
(721,584,o),
(592,715,o),
(381,715,cs),
(165,715,o),
(28,585,o),
(28,342,cs),
(28,111,o),
(159,-15,o),
(369,-15,cs)
);
},
{
closed = 1;
nodes = (
(303,196,o),
(264,248,o),
(264,348,cs),
(264,449,o),
(303,495,o),
(374,495,cs),
(448,495,o),
(486,449,o),
(486,345,cs),
(486,245,o),
(448,196,o),
(377,196,cs)
);
}
);
};
layerId = "80E65B11-EA6B-4C63-B370-0158E4555D95";
name = "Jul 1 20, 14:18";
shapes = (
{
closed = 1;
nodes = (
(721,584,o),
(592,715,o),
(381,715,cs),
(165,715,o),
(28,585,o),
(28,342,cs),
(28,100,o),
(169,-10,o),
(356,-15,c),
(217,78,l),
(196,-81,l),
(391,-181,o),
(568,-203,o),
(704,-212,c),
(721,-3,l),
(660,-3,o),
(584,0,o),
(515,10,c),
(516,25,l),
(643,68,o),
(721,175,o),
(721,354,cs)
);
},
{
closed = 1;
nodes = (
(264,451,o),
(306,495,o),
(374,495,cs),
(444,495,o),
(486,451,o),
(486,345,cs),
(486,243,o),
(446,196,o),
(377,196,cs),
(305,196,o),
(264,247,o),
(264,348,cs)
);
}
);
width = 749;
},
{
anchors = (
{
name = bottom;
pos = (368,0);
},
{
name = top;
pos = (378,700);
}
);
associatedMasterId = "3E7589AA-8194-470F-8E2F-13C1C581BE24";
background = {
shapes = (
{
closed = 1;
nodes = (
(559,-12,o),
(686,113,o),
(686,350,cs),
(686,580,o),
(568,712,o),
(382,712,cs),
(196,712,o),
(70,585,o),
(70,342,cs),
(70,114,o),
(190,-12,o),
(373,-12,cs)
);
},
{
closed = 1;
nodes = (
(239,78,o),
(163,172,o),
(163,349,cs),
(163,532,o),
(244,621,o),
(377,621,cs),
(513,621,o),
(593,529,o),
(593,343,cs),
(593,167,o),
(514,78,o),
(379,78,cs)
);
}
);
};
hints = (
{
horizontal = 1;
options = 4;
origin = (0,14);
stem = -1;
target = (0,13);
type = TTStem;
},
{
horizontal = 1;
options = 4;
origin = (0,18);
type = TTSnap;
},
{
horizontal = 1;
options = 4;
origin = (0,2);
stem = 2;
target = (1,2);
type = TTStem;
},
{
horizontal = 1;
options = 4;
origin = (0,18);
stem = 2;
target = (1,8);
type = TTStem;
}
);
layerId = "0565007F-3466-42B8-A6E0-642DE4623BE4";
name = "Jul 1 20, 14:18";
shapes = (
{
closed = 1;
nodes = (
(686,580,o),
(568,712,o),
(382,712,cs),
(196,712,o),
(70,585,o),
(70,342,cs),
(70,110,o),
(192,-10,o),
(364,-12,c),
(247,61,l),
(234,-48,l),
(389,-107,o),
(553,-130,o),
(670,-137,c),
(679,-39,l),
(600,-39,o),
(504,-32,o),
(423,-19,c),
(424,-8,l),
(580,14,o),
(686,136,o),
(686,350,cs)
);
},
{
closed = 1;
nodes = (
(163,532,o),
(244,621,o),
(377,621,cs),
(513,621,o),
(593,529,o),
(593,343,cs),
(593,164,o),
(514,78,o),
(379,78,cs),
(239,78,o),
(163,169,o),
(163,349,cs)
);
}
);
width = 756;
},
{
anchors = (
{
name = bottom;
pos = (376,0);
},
{
name = top;
pos = (376,700);
}
);
associatedMasterId = "FA91A8E1-7324-47F6-AE85-AED49CFCD01C";
layerId = "B379C1E9-C501-4F82-9BD2-6454E52CFA2B";
name = "Jul 1 20, 14:18";
shapes = (
{
closed = 1;
nodes = (
(667,588,o),
(551,707,o),
(378,707,cs),
(205,707,o),
(85,585,o),
(85,349,cs),
(85,122,o),
(188,15,o),
(335,-5,c),
(324,2,l),
(322,-5,l),
(445,-61,o),
(557,-83,o),
(665,-89,c),
(665,-81,l),
(559,-76,o),
(449,-51,o),
(348,-7,c),
(348,-6,l),
(563,-19,o),
(667,123,o),
(667,348,cs)
);
},
{
closed = 1;
nodes = (
(93,583,o),
(210,699,o),
(379,699,cs),
(546,699,o),
(659,583,o),
(659,349,cs),
(659,106,o),
(541,1,o),
(376,1,cs),
(209,1,o),
(93,113,o),
(93,348,cs)
);
}
);
width = 752;
}
);
metricLeft = O;
unicode = 81;
}
{
color = 10;
glyphname = R;
kernLeft = H;
kernRight = R;
layers = (
{
anchors = (
{
name = bottom;
pos = (315,0);
},
{
name = top;
pos = (256,700);
}
);
background = {
shapes = (
{
closed = 1;
nodes = (
(265,635,l),
(40,700,l),
(40,0,l),
(265,0,l)
);
},
{
closed = 1;
nodes = (
(430,202,l),
(523,253,o),
(599,324,o),
(599,453,cs),
(599,591,o),
(513,708,o),
(256,708,cs),
(186,708,o),
(119,705,o),
(40,700,c),
(202,492,l),
(233,496,o),
(263,499,o),
(293,499,cs),
(357,499,o),
(380,468,o),
(380,424,cs),
(380,397,o),
(371,391,o),
(348,371,c),
(192,371,l),
(192,177,l),
(409,177,l)
);
},
{
closed = 1;
nodes = (
(671,0,l),
(495,297,l),
(283,230,l),
(399,0,l)
);
}
);
};
layerId = "BFFFD157-90D3-4B85-B99D-9A2F366F03CA";
shapes = (
{
closed = 1;
nodes = (
(265,635,l),
(40,700,l),
(40,0,l),
(265,0,l)
);
},
{
closed = 1;
nodes = (
(430,202,l),
(523,253,o),
(599,324,o),
(599,453,cs),
(599,591,o),
(513,708,o),
(256,708,cs),
(186,708,o),
(119,705,o),
(40,700,c),
(202,505,l),
(233,507,o),
(263,509,o),
(293,509,cs),
(357,509,o),
(380,480,o),
(380,437,cs),
(380,411,o),
(371,387,o),
(356,368,c),
(192,368,l),
(192,177,l),
(409,177,l)
);
},
{
closed = 1;
nodes = (
(671,0,l),
(495,297,l),
(283,210,l),
(399,0,l)
);
}
);
width = 663;
},
{
anchors = (
{
name = bottom;
pos = (299,0);
},
{
name = top;
pos = (264,700);
}
);
background = {
shapes = (
{
closed = 1;
nodes = (
(178,700,l),
(85,700,l),
(85,0,l),
(178,0,l)
);
},
{
closed = 1;
nodes = (
(139,700,l),
(137,610,l),
(501,610,l),
(501,700,l)
);
},
{
closed = 1;
nodes = (
(139,90,l),
(137,0,l),
(511,0,l),
(511,90,l)
);
},
{
closed = 1;
nodes = (
(139,377,l),
(137,287,l),
(481,287,l),
(481,377,l)
);
}
);
};
hints = (
{
horizontal = 1;
options = 4;
origin = (1,6);
stem = 2;
target = (1,13);
type = TTStem;
},
{
horizontal = 1;
origin = (0,3);
type = TTSnap;
},
{
horizontal = 1;
origin = (2,3);
type = TTSnap;
},
{
horizontal = 1;
origin = (1,21);
stem = 2;
target = (1,20);
type = TTStem;
}
);
layerId = "3E7589AA-8194-470F-8E2F-13C1C581BE24";
shapes = (
{
closed = 1;
nodes = (
(178,653,l),
(85,700,l),
(85,0,l),
(178,0,l)
);
},
{
closed = 1;
nodes = (
(379,263,l),
(440,294,o),
(521,350,o),
(521,480,cs),
(521,612,o),
(449,706,o),
(252,706,cs),
(206,706,o),
(148,704,o),
(85,700,c),
(144,609,l),
(188,613,o),
(231,614,o),
(265,614,cs),
(383,614,o),
(430,551,o),
(430,475,cs),
(430,408,o),
(394,367,o),
(350,341,c),
(171,341,l),
(171,249,l),
(352,249,l)
);
},
{
closed = 1;
nodes = (
(564,0,l),
(384,320,l),
(304,268,l),
(444,0,l)
);
}
);
width = 617;
},
{
anchors = (
{
name = bottom;
pos = (299,0);
},
{
name = top;
pos = (284,700);
}
);
associatedMasterId = "3E7589AA-8194-470F-8E2F-13C1C581BE24";
background = {
shapes = (
{
closed = 1;
nodes = (
(198,645,l),
(78,693,l),
(78,0,l),
(198,0,l)
);
},
{
closed = 1;
nodes = (
(446,206,o),
(544,305,o),
(544,452,cs),
(544,603,o),
(460,701,o),
(237,701,cs),
(201,701,o),
(143,699,o),
(78,693,c),
(161,577,l),
(201,582,o),
(235,583,o),
(256,583,cs),
(379,583,o),
(426,529,o),
(426,447,cs),
(426,363,o),
(376,314,o),
(273,314,cs),
(155,314,l),
(143,206,l),
(241,206,ls)
);
},
{
closed = 1;
nodes = (
(565,13,l),
(384,296,l),
(282,245,l),
(432,0,l),
(561,0,l)
);
}
);
};
hints = (
{
horizontal = 1;
options = 4;
origin = (1,20);
target = (1,19);
type = TTStem;
},
{
horizontal = 1;
options = 4;
origin = (1,5);
target = (1,12);
type = TTStem;
},
{
horizontal = 1;
options = 4;
origin = (0,2);
type = TTSnap;
},
{
horizontal = 1;
options = 4;
origin = (2,3);
type = TTSnap;
}
);
layerId = "DDB93410-9C84-4C18-B83C-39466418BBC6";
name = "Nov 17 16, 13:55";
shapes = (
{
closed = 1;
nodes = (
(178,652,l),
(85,696,l),
(85,0,l),
(178,0,l)
);
},
{
closed = 1;
nodes = (
(430,220,o),
(528,312,o),
(528,469,cs),
(528,611,o),
(449,704,o),
(234,704,cs),
(201,704,o),
(148,702,o),
(85,696,c),
(144,606,l),
(188,611,o),
(224,612,o),
(243,612,cs),
(383,612,o),
(437,552,o),
(437,459,cs),
(437,365,o),
(380,311,o),
(265,311,cs),
(139,311,l),
(137,220,l),
(224,220,ls)
);
},
{
closed = 1;
nodes = (
(554,0,l),
(363,300,l),
(286,248,l),
(441,0,l)
);
}
);
width = 586;
},
{
anchors = (
{
name = bottom;
pos = (285,0);
},
{
name = top;
pos = (247,700);
}
);
background = {
shapes = (
{
closed = 1;
nodes = (
(127,695,l),
(119,700,l),
(119,0,l),
(127,3,l)
);
},
{
closed = 1;
nodes = (
(459,332,o),
(531,260,o),
(531,159,cs),
(531,49,o),
(438,2,o),
(285,2,cs),
(224,2,o),
(176,3,o),
(124,8,c),
(119,0,l),
(176,-4,o),
(224,-6,o),
(282,-6,cs),
(450,-6,o),
(539,47,o),
(539,160,cs),
(539,265,o),
(460,335,o),
(317,336,c),
(317,337,l),
(434,341,o),
(498,401,o),
(498,517,cs),
(498,608,o),
(455,707,o),
(264,707,cs),
(219,707,o),
(169,705,o),
(119,700,c),
(124,693,l),
(167,696,o),
(220,699,o),
(263,699,cs),
(452,699,o),
(490,603,o),
(490,515,cs),
(490,406,o),
(432,340,o),
(280,340,cs),
(124,340,l),
(124,332,l),
(279,332,ls)
);
}
);
};
layerId = "FA91A8E1-7324-47F6-AE85-AED49CFCD01C";
shapes = (
{
closed = 1;
nodes = (
(127,697,l),
(119,700,l),
(119,0,l),
(127,0,l)
);
},
{
closed = 1;
nodes = (
(342,308,l),
(422,335,o),
(488,393,o),
(488,504,cs),
(488,620,o),
(417,706,o),
(238,706,cs),
(211,706,o),
(170,704,o),
(119,700,c),
(123,692,l),
(171,696,o),
(211,698,o),
(237,698,cs),
(412,698,o),
(480,615,o),
(480,504,cs),
(480,396,o),
(416,341,o),
(338,315,c),
(125,315,l),
(125,307,l),
(340,307,l)
);
},
{
closed = 1;
nodes = (
(547,0,l),
(342,313,l),
(335,310,l),
(535,0,l)
);
}
);
width = 632;
},
{
anchors = (
{
name = bottom;
pos = (299,0);
},
{
name = top;
pos = (284,700);
}
);
associatedMasterId = "3E7589AA-8194-470F-8E2F-13C1C581BE24";
background = {
shapes = (
{
closed = 1;
nodes = (
(178,657,l),
(85,700,l),
(85,0,l),
(178,49,l)
);
},
{
closed = 1;
nodes = (
(409,278,o),
(463,243,o),
(463,176,cs),
(463,120,o),
(424,80,o),
(297,80,cs),
(245,80,o),
(192,82,o),
(146,88,c),
(85,0,l),
(156,-7,o),
(227,-9,o),
(282,-9,cs),
(445,-9,o),
(555,44,o),
(555,177,cs),
(555,297,o),
(463,353,o),
(311,353,c),
(311,306,l),
(463,306,o),
(517,402,o),
(517,496,cs),
(517,609,o),
(448,709,o),
(246,709,cs),
(197,709,o),
(138,705,o),
(85,700,c),
(134,612,l),
(175,617,o),
(220,619,o),
(249,619,cs),
(371,619,o),
(425,578,o),
(425,487,cs),
(425,414,o),
(384,368,o),
(292,368,cs),
(139,368,l),
(137,278,l),
(294,278,ls)
);
}
);
};
hints = (
{
horizontal = 1;
options = 4;
origin = (1,6);
stem = 2;
target = (1,13);
type = TTStem;
},
{
horizontal = 1;
origin = (0,3);
type = TTSnap;
},
{
horizontal = 1;
origin = (2,3);
type = TTSnap;
},
{
horizontal = 1;
origin = (1,21);
stem = 2;
target = (1,20);
type = TTStem;
}
);
layerId = "1ED511A6-9C1C-4B53-BBB8-6AED4AF489E9";
name = "Apr 12 18, 15:21";
shapes = (
{
closed = 1;
nodes = (
(178,654,l),
(85,700,l),
(85,0,l),
(178,0,l)
);
},
{
closed = 1;
nodes = (
(340,243,l),
(461,268,o),
(531,342,o),
(531,465,cs),
(531,612,o),
(449,708,o),
(234,708,cs),
(201,708,o),
(148,705,o),
(85,700,c),
(144,610,l),
(188,614,o),
(224,615,o),
(243,615,cs),
(383,615,o),
(440,554,o),
(440,463,cs),
(440,367,o),
(370,321,o),
(245,321,cs),
(171,321,l),
(171,229,l),
(292,229,l)
);
},
{
closed = 1;
nodes = (
(554,0,l),
(333,300,l),
(253,248,l),
(434,0,l)
);
}
);
width = 604;
},
{
anchors = (
{
name = bottom;
pos = (299,0);
},
{
name = top;
pos = (284,700);
}
);
associatedMasterId = "3E7589AA-8194-470F-8E2F-13C1C581BE24";
background = {
shapes = (
{
closed = 1;
nodes = (
(178,657,l),
(85,700,l),
(85,0,l),
(178,49,l)
);
},
{
closed = 1;
nodes = (
(409,278,o),
(463,243,o),
(463,176,cs),
(463,120,o),
(424,80,o),
(297,80,cs),
(245,80,o),
(192,82,o),
(146,88,c),
(85,0,l),
(156,-7,o),
(227,-9,o),
(282,-9,cs),
(445,-9,o),
(555,44,o),
(555,177,cs),
(555,297,o),
(463,353,o),
(311,353,c),
(311,306,l),
(463,306,o),
(517,402,o),
(517,496,cs),
(517,609,o),
(448,709,o),
(246,709,cs),
(197,709,o),
(138,705,o),
(85,700,c),
(134,612,l),
(175,617,o),
(220,619,o),
(249,619,cs),
(371,619,o),
(425,578,o),
(425,487,cs),
(425,414,o),
(384,368,o),
(292,368,cs),
(139,368,l),
(137,278,l),
(294,278,ls)
);
}
);
};
hints = (
{
horizontal = 1;
options = 4;
origin = (1,6);
stem = 2;
target = (1,13);
type = TTStem;
},
{
horizontal = 1;
origin = (0,3);
type = TTSnap;
},
{
horizontal = 1;
origin = (2,3);
type = TTSnap;
},
{
horizontal = 1;
origin = (1,21);
stem = 2;
target = (1,20);
type = TTStem;
}
);
layerId = "5F6C8D84-20EC-4790-B679-941881ECA764";
name = "Oct 28 18, 23:41";
shapes = (
{
closed = 1;
nodes = (
(178,654,l),
(85,700,l),
(85,0,l),
(178,0,l)
);
},
{
closed = 1;
nodes = (
(340,243,l),
(461,268,o),
(531,342,o),
(531,465,cs),
(531,612,o),
(449,708,o),
(234,708,cs),
(201,708,o),
(148,705,o),
(85,700,c),
(144,610,l),
(188,614,o),
(224,615,o),
(243,615,cs),
(383,615,o),
(440,554,o),
(440,463,cs),
(440,367,o),
(370,321,o),
(245,321,cs),
(171,321,l),
(171,229,l),
(322,229,l)
);
},
{
closed = 1;
nodes = (
(564,0,l),
(363,300,l),
(283,248,l),
(444,0,l)
);
}
);
width = 604;
},
{
anchors = (
{
name = bottom;
pos = (307,0);
},
{
name = top;
pos = (285,700);
}
);
associatedMasterId = "3E7589AA-8194-470F-8E2F-13C1C581BE24";
attr = {
coordinates = (
155
);
};
background = {
shapes = (
{
closed = 1;
nodes = (
(178,700,l),
(85,700,l),
(85,0,l),
(178,0,l)
);
},
{
closed = 1;
nodes = (
(139,700,l),
(137,610,l),
(501,610,l),
(501,700,l)
);
},
{
closed = 1;
nodes = (
(139,90,l),
(137,0,l),
(511,0,l),
(511,90,l)
);
},
{
closed = 1;
nodes = (
(139,377,l),
(137,287,l),
(481,287,l),
(481,377,l)
);
}
);
};
hints = (
{
horizontal = 1;
options = 4;
origin = (1,6);
stem = 2;
target = (1,13);
type = TTStem;
},
{
horizontal = 1;
origin = (0,3);
type = TTSnap;
},
{
horizontal = 1;
origin = (2,3);
type = TTSnap;
},
{
horizontal = 1;
origin = (1,21);
stem = 2;
target = (1,20);
type = TTStem;
}
);
layerId = "EC818A22-B7B5-4DA9-BEC5-4ADFCD2154FB";
name = "{155}";
shapes = (
{
closed = 1;
nodes = (
(222,644,l),
(63,700,l),
(63,0,l),
(222,0,l)
);
},
{
closed = 1;
nodes = (
(405,233,l),
(482,274,o),
(560,337,o),
(560,467,cs),
(560,602,o),
(481,707,o),
(254,707,cs),
(196,707,o),
(134,705,o),
(63,700,c),
(173,552,l),
(211,555,o),
(247,557,o),
(279,557,cs),
(370,557,o),
(405,513,o),
(405,457,cs),
(405,413,o),
(383,382,o),
(353,361,c),
(182,361,l),
(182,209,l),
(381,209,l)
);
},
{
closed = 1;
nodes = (
(618,0,l),
(440,309,l),
(294,239,l),
(422,0,l)
);
}
);
width = 641;
}
);
metricLeft = H;
unicode = 82;
}
{
color = 10;
glyphname = S;
kernLeft = S;
kernRight = S;
layers = (
{
anchors = (
{
name = bottom;
pos = (265,0);
},
{
name = top;
pos = (295,700);
},
{
name = topright;
pos = (532,700);
}
);
background = {
shapes = (
{
closed = 1;
nodes = (
(437,636,l),
(212,636,l),
(212,10,l),
(437,10,l)
);
},
{
closed = 1;
nodes = (
(28,710,l),
(28,495,l),
(620,495,l),
(620,710,l)
);
}
);
};
layerId = "BFFFD157-90D3-4B85-B99D-9A2F366F03CA";
shapes = (
{
closed = 1;
nodes = (
(466,697,o),
(397,713,o),
(314,713,cs),
(101,713,o),
(32,607,o),
(32,476,cs),
(32,380,o),
(69,324,o),
(136,286,cs),
(176,264,o),
(214,249,o),
(251,234,cs),
(294,216,o),
(305,210,o),
(305,198,cs),
(305,188,o),
(295,185,o),
(268,185,cs),
(198,185,o),
(116,205,o),
(51,224,c),
(32,29,l),
(101,0,o),
(188,-15,o),
(265,-15,cs),
(453,-15,o),
(532,62,o),
(532,202,cs),
(532,324,o),
(471,371,o),
(407,400,cs),
(376,414,o),
(344,426,o),
(305,442,cs),
(272,455,o),
(257,460,o),
(257,477,cs),
(257,497,o),
(277,503,o),
(315,503,cs),
(375,503,o),
(438,489,o),
(487,477,c),
(519,676,l)
);
}
);
width = 563;
},
{
anchors = (
{
name = bottom;
pos = (281,0);
},
{
name = top;
pos = (304,700);
},
{
name = topright;
pos = (546,700);
}
);
hints = (
{
horizontal = 1;
options = 4;
origin = (0,24);
stem = 2;
target = (0,17);
type = TTStem;
},
{
horizontal = 1;
options = 4;
origin = (0,2);
stem = 2;
target = (0,39);
type = TTStem;
},
{
horizontal = 1;
origin = (0,17);
other1 = (0,33);
target = (0,2);
type = TTInterpolate;
},
{
horizontal = 1;
origin = (0,24);
other1 = (0,8);
target = (0,39);
type = TTInterpolate;
}
);
layerId = "3E7589AA-8194-470F-8E2F-13C1C581BE24";
shapes = (
{
closed = 1;
nodes = (
(444,694,o),
(389,709,o),
(323,709,cs),
(150,709,o),
(84,617,o),
(84,502,cs),
(84,390,o),
(145,345,o),
(213,318,cs),
(254,302,o),
(300,286,o),
(345,266,cs),
(406,238,o),
(418,202,o),
(418,170,cs),
(418,104,o),
(364,81,o),
(288,81,cs),
(207,81,o),
(146,103,o),
(94,131,c),
(70,40,l),
(128,4,o),
(205,-11,o),
(277,-11,cs),
(427,-11,o),
(511,50,o),
(511,174,cs),
(511,259,o),
(473,317,o),
(377,354,cs),
(337,369,o),
(292,385,o),
(260,398,cs),
(194,425,o),
(175,464,o),
(175,509,cs),
(175,589,o),
(234,617,o),
(314,617,cs),
(374,617,o),
(428,601,o),
(471,582,c),
(496,674,l)
);
}
);
width = 584;
},
{
anchors = (
{
name = bottom;
pos = (275,0);
},
{
name = top;
pos = (316,700);
},
{
name = topright;
pos = (541,700);
}
);
associatedMasterId = "3E7589AA-8194-470F-8E2F-13C1C581BE24";
attr = {
coordinates = (
155
);
};
background = {
shapes = (
{
closed = 1;
nodes = (
(458,696,o),
(392,711,o),
(318,711,cs),
(127,711,o),
(60,612,o),
(60,491,cs),
(60,382,o),
(114,332,o),
(176,302,cs),
(217,283,o),
(259,268,o),
(300,250,cs),
(352,227,o),
(363,205,o),
(363,183,cs),
(363,145,o),
(328,131,o),
(271,131,cs),
(198,131,o),
(133,151,o),
(74,179,c),
(53,35,l),
(117,3,o),
(198,-12,o),
(275,-12,cs),
(442,-12,o),
(523,56,o),
(523,188,cs),
(523,292,o),
(474,343,o),
(394,376,cs),
(358,390,o),
(320,404,o),
(284,419,cs),
(235,439,o),
(218,461,o),
(218,493,cs),
(218,545,o),
(261,560,o),
(319,560,cs),
(377,560,o),
(433,546,o),
(479,524,c),
(509,669,l)
);
}
);
};
hints = (
{
horizontal = 1;
options = 4;
place = (-11, 91);
type = TTStem;
},
{
horizontal = 1;
options = 4;
place = (709, -92);
type = TTStem;
},
{
horizontal = 1;
place = (398, 150);
type = TTInterpolate;
},
{
horizontal = 1;
place = (318, 150);
type = TTInterpolate;
}
);
layerId = "06557522-36DB-480E-A152-CEF94291F906";
name = "{155}";
shapes = (
{
closed = 1;
nodes = (
(460,695,o),
(392,711,o),
(318,711,cs),
(126,711,o),
(59,602,o),
(59,483,cs),
(59,374,o),
(113,328,o),
(180,296,cs),
(216,279,o),
(259,263,o),
(303,245,cs),
(352,225,o),
(363,209,o),
(363,187,cs),
(363,146,o),
(321,140,o),
(275,140,cs),
(197,140,o),
(132,158,o),
(73,185,c),
(52,35,l),
(116,3,o),
(197,-12,o),
(275,-12,cs),
(442,-12,o),
(523,54,o),
(523,184,cs),
(523,285,o),
(473,340,o),
(397,373,cs),
(356,391,o),
(320,403,o),
(279,420,cs),
(237,437,o),
(217,455,o),
(217,489,cs),
(217,537,o),
(256,553,o),
(313,553,cs),
(376,553,o),
(435,536,o),
(480,517,c),
(510,669,l)
);
}
);
width = 573;
},
{
anchors = (
{
name = bottom;
pos = (280,0);
},
{
name = top;
pos = (302,700);
},
{
name = topright;
pos = (542,700);
}
);
layerId = "FA91A8E1-7324-47F6-AE85-AED49CFCD01C";
shapes = (
{
closed = 1;
nodes = (
(431,685,o),
(375,707,o),
(299,707,cs),
(178,707,o),
(95,651,o),
(95,527,cs),
(95,439,o),
(138,384,o),
(211,353,cs),
(257,334,o),
(340,313,o),
(387,290,cs),
(452,259,o),
(480,210,o),
(480,149,cs),
(480,45,o),
(404,1,o),
(287,1,cs),
(206,1,o),
(142,24,o),
(85,53,c),
(82,46,l),
(134,18,o),
(203,-7,o),
(288,-7,cs),
(406,-7,o),
(488,38,o),
(488,149,cs),
(488,214,o),
(460,264,o),
(390,298,cs),
(339,323,o),
(257,343,o),
(215,361,cs),
(143,392,o),
(103,443,o),
(103,527,cs),
(103,642,o),
(178,699,o),
(300,699,cs),
(370,699,o),
(427,679,o),
(468,657,c),
(472,664,l)
);
}
);
width = 578;
}
);
unicode = 83;
}
{
glyphname = U;
kernLeft = U;
kernRight = U;
layers = (
{
anchors = (
{
name = "#exit";
pos = (663,630);
},
{
name = bottom;
pos = (351,0);
},
{
name = ogonek;
pos = (449,0);
},
{
name = top;
pos = (353,700);
},
{
name = topright;
pos = (690,700);
}
);
layerId = "BFFFD157-90D3-4B85-B99D-9A2F366F03CA";
shapes = (
{
closed = 1;
nodes = (
(36,290,ls),
(36,81,o),
(154,-15,o),
(350,-15,cs),
(564,-15,o),
(665,90,o),
(665,290,cs),
(665,700,l),
(429,700,l),
(429,288,ls),
(429,235,o),
(416,206,o),
(356,206,cs),
(299,206,o),
(282,235,o),
(282,288,cs),
(282,700,l),
(36,700,l)
);
}
);
width = 701;
},
{
anchors = (
{
name = "#exit";
pos = (600,630);
},
{
name = bottom;
pos = (339,0);
},
{
name = ogonek;
pos = (422,0);
},
{
name = top;
pos = (339,700);
},
{
name = topright;
pos = (662,700);
}
);
background = {
shapes = (
{
closed = 1;
nodes = (
(260,0,l),
(410,0,l),
(624,700,l),
(530,700,l),
(345,90,l),
(330,90,l),
(143,700,l),
(47,700,l)
);
}
);
};
hints = (
{
horizontal = 1;
options = 4;
origin = (0,3);
stem = 2;
target = (0,12);
type = TTStem;
},
{
horizontal = 1;
origin = (0,17);
type = TTSnap;
},
{
horizontal = 1;
options = 4;
origin = (0,17);
target = (0,8);
type = TTShift;
}
);
layerId = "3E7589AA-8194-470F-8E2F-13C1C581BE24";
shapes = (
{
closed = 1;
nodes = (
(77,290,ls),
(77,84,o),
(167,-12,o),
(339,-12,cs),
(523,-12,o),
(601,92,o),
(601,290,cs),
(601,700,l),
(510,700,l),
(510,280,ls),
(510,164,o),
(481,79,o),
(345,79,cs),
(214,79,o),
(170,164,o),
(170,280,cs),
(170,700,l),
(77,700,l)
);
}
);
width = 678;
},
{
anchors = (
{
name = "#exit";
pos = (571,630);
},
{
name = bottom;
pos = (343,0);
},
{
name = ogonek;
pos = (415,0);
},
{
name = top;
pos = (341,700);
},
{
name = topright;
pos = (649,700);
}
);
layerId = "FA91A8E1-7324-47F6-AE85-AED49CFCD01C";
shapes = (
{
closed = 1;
nodes = (
(107,247,ls),
(107,75,o),
(185,-7,o),
(342,-7,cs),
(503,-7,o),
(571,75,o),
(571,247,cs),
(571,700,l),
(563,700,l),
(563,249,ls),
(563,79,o),
(497,1,o),
(344,1,cs),
(191,1,o),
(115,79,o),
(115,249,cs),
(115,700,l),
(107,700,l)
);
}
);
width = 678;
}
);
unicode = 85;
}
{
glyphname = W;
kernLeft = W;
kernRight = W;
layers = (
{
anchors = (
{
name = bottom;
pos = (542,0);
},
{
name = top;
pos = (542,700);
},
{
name = topright;
pos = (1079,700);
}
);
layerId = "BFFFD157-90D3-4B85-B99D-9A2F366F03CA";
shapes = (
{
closed = 1;
nodes = (
(780,220,l),
(756,220,l),
(692,690,l),
(393,690,l),
(324,220,l),
(302,220,l),
(257,700,l),
(15,700,l),
(108,0,l),
(484,0,l),
(530,355,l),
(545,355,l),
(590,0,l),
(975,0,l),
(1069,700,l),
(823,700,l)
);
}
);
width = 1084;
},
{
anchors = (
{
name = bottom;
pos = (489,0);
},
{
name = top;
pos = (489,700);
},
{
name = topright;
pos = (957,700);
}
);
hints = (
{
horizontal = 1;
options = 4;
origin = (0,8);
stem = 2;
target = (0,5);
type = TTStem;
},
{
horizontal = 1;
origin = (0,7);
type = TTSnap;
},
{
horizontal = 1;
options = 4;
origin = (0,10);
target = (0,3);
type = TTStem;
},
{
horizontal = 1;
options = 4;
origin = (0,5);
target = (0,1);
type = TTShift;
},
{
horizontal = 1;
options = 4;
origin = (0,8);
target = (0,12);
type = TTShift;
},
{
horizontal = 1;
options = 4;
origin = (0,7);
target = (0,15);
type = TTShift;
},
{
horizontal = 1;
options = 4;
origin = (0,7);
target = (0,3);
type = TTShift;
}
);
layerId = "3E7589AA-8194-470F-8E2F-13C1C581BE24";
shapes = (
{
closed = 1;
nodes = (
(718,93,l),
(702,93,l),
(542,690,l),
(434,690,l),
(279,93,l),
(263,93,l),
(146,700,l),
(50,700,l),
(196,0,l),
(341,0,l),
(482,545,l),
(488,545,l),
(635,0,l),
(780,0,l),
(927,700,l),
(833,700,l)
);
}
);
width = 977;
},
{
anchors = (
{
name = bottom;
pos = (483,0);
},
{
name = top;
pos = (483,700);
},
{
name = topright;
pos = (912,700);
}
);
layerId = "FA91A8E1-7324-47F6-AE85-AED49CFCD01C";
shapes = (
{
closed = 1;
nodes = (
(745,8,l),
(731,8,l),
(491,678,l),
(475,678,l),
(236,8,l),
(223,8,l),
(89,700,l),
(80,700,l),
(216,0,l),
(242,0,l),
(481,669,l),
(485,669,l),
(725,0,l),
(751,0,l),
(886,700,l),
(878,700,l)
);
}
);
width = 966;
}
);
unicode = 87;
}
{
glyphname = Z;
kernLeft = Z;
kernRight = Z;
layers = (
{
anchors = (
{
name = bottom;
pos = (293,0);
},
{
name = stroke;
pos = (296,356);
},
{
name = top;
pos = (293,700);
},
{
name = topright;
pos = (578,700);
}
);
background = {
shapes = (
{
closed = 1;
nodes = (
(231,210,l),
(274,129,l),
(603,604,l),
(547,424,l),
(547,700,l),
(44,700,l),
(44,490,l),
(350,490,l),
(308,571,l),
(-29,91,l),
(28,271,l),
(28,0,l),
(558,0,l),
(558,210,l)
);
}
);
};
layerId = "BFFFD157-90D3-4B85-B99D-9A2F366F03CA";
shapes = (
{
closed = 1;
nodes = (
(231,200,l),
(251,110,l),
(583,588,l),
(547,424,l),
(547,700,l),
(44,700,l),
(44,490,l),
(350,490,l),
(329,588,l),
(-7,110,l),
(28,271,l),
(28,0,l),
(558,0,l),
(558,200,l)
);
}
);
width = 586;
},
{
anchors = (
{
name = bottom;
pos = (320,0);
},
{
name = stroke;
pos = (326,344);
},
{
name = top;
pos = (320,700);
},
{
name = topright;
pos = (610,700);
}
);
background = {
shapes = (
{
closed = 1;
nodes = (
(168,700,l),
(74,700,l),
(74,0,l),
(168,0,l)
);
},
{
closed = 1;
nodes = (
(575,700,l),
(482,700,l),
(482,0,l),
(575,0,l)
);
},
{
closed = 1;
nodes = (
(129,369,l),
(127,278,l),
(539,278,l),
(543,369,l)
);
}
);
};
hints = (
{
horizontal = 1;
options = 4;
origin = (0,11);
stem = 2;
target = (0,1);
type = TTStem;
},
{
horizontal = 1;
options = 4;
origin = (0,5);
stem = 2;
target = (0,6);
type = TTStem;
}
);
layerId = "3E7589AA-8194-470F-8E2F-13C1C581BE24";
shapes = (
{
closed = 1;
nodes = (
(162,92,l),
(179,58,l),
(578,650,l),
(555,576,l),
(555,700,l),
(97,700,l),
(97,608,l),
(479,608,l),
(462,642,l),
(57,44,l),
(80,118,l),
(80,0,l),
(558,0,l),
(558,92,l)
);
}
);
width = 638;
},
{
anchors = (
{
name = bottom;
pos = (323,0);
},
{
name = stroke;
pos = (321,352);
},
{
name = top;
pos = (323,700);
},
{
name = topright;
pos = (615,700);
}
);
layerId = "FA91A8E1-7324-47F6-AE85-AED49CFCD01C";
shapes = (
{
closed = 1;
nodes = (
(106,8,l),
(107,5,l),
(545,695,l),
(543,689,l),
(543,700,l),
(113,700,l),
(113,692,l),
(536,692,l),
(535,695,l),
(98,5,l),
(100,11,l),
(100,0,l),
(549,0,l),
(549,8,l)
);
}
);
width = 649;
}
);
unicode = 90;
}
{
glyphname = bracketleft;
layers = (
{
background = {
shapes = (
{
closed = 0;
nodes = (
(316,735,l),
(140,735,l),
(140,-73,l),
(316,-73,l)
);
}
);
};
hints = (
{
horizontal = 1;
options = 4;
origin = (0,6);
stem = 1;
target = (0,7);
type = TTStem;
},
{
horizontal = 1;
options = 4;
origin = (0,2);
stem = 1;
target = (0,3);
type = TTStem;
}
);
layerId = "3E7589AA-8194-470F-8E2F-13C1C581BE24";
shapes = (
{
closed = 1;
nodes = (
(185,-45,l),
(185,685,l),
(316,685,l),
(316,773,l),
(95,773,l),
(95,-133,l),
(316,-133,l),
(316,-45,l)
);
}
);
width = 380;
},
{
layerId = "BFFFD157-90D3-4B85-B99D-9A2F366F03CA";
shapes = (
{
closed = 1;
nodes = (
(269,13,l),
(269,587,l),
(350,587,l),
(350,800,l),
(51,800,l),
(51,-200,l),
(350,-200,l),
(350,13,l)
);
}
);
width = 386;
},
{
layerId = "FA91A8E1-7324-47F6-AE85-AED49CFCD01C";
shapes = (
{
closed = 1;
nodes = (
(122,-113,l),
(122,766,l),
(304,766,l),
(304,773,l),
(115,773,l),
(115,-120,l),
(304,-120,l),
(304,-113,l)
);
}
);
width = 383;
}
);
metricLeft = parenleft;
metricRight = parenleft;
unicode = 91;
}
{
glyphname = b;
kernLeft = h;
kernRight = o;
layers = (
{
anchors = (
{
name = bottom;
pos = (267,0);
},
{
name = top;
pos = (144,750);
}
);
background = {
shapes = (
{
closed = 1;
nodes = (
(436,-14,o),
(525,77,o),
(525,248,cs),
(525,412,o),
(443,505,o),
(279,505,cs),
(114,505,o),
(22,410,o),
(22,239,cs),
(22,75,o),
(106,-14,o),
(269,-14,cs)
);
},
{
closed = 1;
nodes = (
(240,159,o),
(223,184,o),
(223,238,cs),
(223,288,o),
(239,311,o),
(273,311,cs),
(307,311,o),
(324,287,o),
(324,233,cs),
(324,183,o),
(308,159,o),
(275,159,cs)
);
}
);
};
layerId = "BFFFD157-90D3-4B85-B99D-9A2F366F03CA";
shapes = (
{
closed = 1;
nodes = (
(252,450,l),
(252,750,l),
(32,750,l),
(32,27,l),
(253,116,l),
(253,237,ls),
(253,286,o),
(267,311,o),
(301,311,cs),
(333,311,o),
(344,289,o),
(344,244,cs),
(344,187,o),
(325,159,o),
(288,159,cs),
(272,159,o),
(255,164,o),
(242,174,c),
(32,27,l),
(99,4,o),
(173,-11,o),
(263,-11,cs),
(492,-11,o),
(559,102,o),
(559,279,cs),
(559,424,o),
(514,502,o),
(395,502,cs),
(324,502,o),
(285,475,o),
(263,450,c)
);
}
);
width = 576;
},
{
anchors = (
{
name = bottom;
pos = (239,0);
},
{
name = top;
pos = (119,750);
}
);
background = {
shapes = (
{
closed = 1;
nodes = (
(161,0,l),
(161,264,ls),
(161,355,o),
(200,402,o),
(278,402,cs),
(345,402,o),
(374,368,o),
(374,297,cs),
(374,0,l),
(464,0,l),
(464,316,ls),
(464,439,o),
(403,490,o),
(305,490,cs),
(244,490,o),
(197,470,o),
(169,437,c),
(161,437,l),
(161,750,l),
(71,750,l),
(71,0,l)
);
}
);
};
hints = (
{
horizontal = 1;
options = 4;
origin = (0,27);
stem = 1;
target = (0,8);
type = TTStem;
},
{
horizontal = 1;
options = 4;
origin = (0,21);
stem = 1;
target = (0,14);
type = TTStem;
},
{
horizontal = 1;
origin = (0,2);
type = TTSnap;
}
);
layerId = "3E7589AA-8194-470F-8E2F-13C1C581BE24";
shapes = (
{
closed = 1;
nodes = (
(165,426,l),
(165,750,l),
(75,750,l),
(75,19,l),
(165,28,l),
(165,241,ls),
(165,359,o),
(214,396,o),
(286,396,cs),
(357,396,o),
(394,356,o),
(394,254,cs),
(394,137,o),
(349,77,o),
(249,77,cs),
(220,77,o),
(184,82,o),
(145,98,c),
(75,19,l),
(125,0,o),
(180,-11,o),
(233,-11,cs),
(401,-11,o),
(484,100,o),
(484,267,cs),
(484,404,o),
(434,489,o),
(314,489,cs),
(244,489,o),
(197,459,o),
(173,426,c)
);
}
);
width = 540;
},
{
anchors = (
{
name = bottom;
pos = (240,0);
},
{
name = top;
pos = (100,750);
}
);
background = {
shapes = (
{
closed = 1;
nodes = (
(104,0,l),
(106,108,l),
(107,108,l),
(124,37,o),
(177,-7,o),
(268,-7,cs),
(389,-7,o),
(445,67,o),
(445,224,cs),
(445,384,o),
(382,475,o),
(246,475,cs),
(203,475,o),
(141,466,o),
(102,421,c),
(103,414,l),
(145,460,o),
(207,468,o),
(246,468,cs),
(378,468,o),
(438,377,o),
(438,224,cs),
(438,72,o),
(383,0,o),
(267,0,cs),
(163,0,o),
(105,59,o),
(105,176,cs),
(105,750,l),
(98,750,l),
(98,0,l)
);
}
);
};
layerId = "FA91A8E1-7324-47F6-AE85-AED49CFCD01C";
shapes = (
{
closed = 1;
nodes = (
(105,346,l),
(105,750,l),
(98,750,l),
(98,19,l),
(105,19,l),
(105,285,ls),
(105,417,o),
(196,468,o),
(281,468,cs),
(381,468,o),
(439,404,o),
(439,261,cs),
(439,91,o),
(372,0,o),
(241,0,cs),
(198,0,o),
(144,8,o),
(101,26,c),
(98,19,l),
(141,1,o),
(196,-7,o),
(240,-7,cs),
(376,-7,o),
(446,87,o),
(446,261,cs),
(446,408,o),
(385,475,o),
(281,475,cs),
(194,475,o),
(126,427,o),
(106,346,c)
);
}
);
width = 520;
}
);
metricLeft = m;
metricRight = o;
unicode = 98;
}
{
color = 10;
glyphname = e;
kernLeft = o;
kernRight = e;
layers = (
{
anchors = (
{
name = bottom;
pos = (281,0);
},
{
name = ogonek;
pos = (471,21);
},
{
name = top;
pos = (271,490);
}
);
background = {
shapes = (
{
closed = 1;
nodes = (
(423,-15,o),
(504,77,o),
(504,248,cs),
(504,412,o),
(430,505,o),
(266,505,cs),
(101,505,o),
(17,410,o),
(17,239,cs),
(17,75,o),
(93,-15,o),
(256,-15,cs)
);
},
{
closed = 1;
nodes = (
(227,157,o),
(218,182,o),
(218,236,cs),
(218,286,o),
(226,309,o),
(259,309,cs),
(294,309,o),
(303,285,o),
(303,231,cs),
(303,181,o),
(295,157,o),
(262,157,cs)
);
}
);
};
layerId = "BFFFD157-90D3-4B85-B99D-9A2F366F03CA";
shapes = (
{
closed = 1;
nodes = (
(121,293,l),
(126,173,l),
(565,173,l),
(448,107,l),
(468,177,o),
(478,228,o),
(478,288,cs),
(478,424,o),
(411,505,o),
(261,505,cs),
(103,505,o),
(17,416,o),
(17,243,cs),
(17,68,o),
(100,-11,o),
(280,-11,cs),
(347,-11,o),
(414,0,o),
(471,21,c),
(460,154,l),
(418,143,o),
(377,138,o),
(331,138,cs),
(233,138,o),
(219,160,o),
(219,248,cs),
(219,329,o),
(226,357,o),
(259,357,cs),
(282,357,o),
(293,343,o),
(293,303,cs),
(293,277,o),
(289,258,o),
(285,238,c),
(391,293,l)
);
}
);
width = 493;
},
{
anchors = (
{
name = bottom;
pos = (278,0);
},
{
name = ogonek;
pos = (437,22);
},
{
name = top;
pos = (268,480);
}
);
background = {
shapes = (
{
closed = 1;
nodes = (
(426,102,l),
(393,92,o),
(357,86,o),
(326,86,cs),
(243,86,o),
(194,131,o),
(194,252,cs),
(194,361,o),
(236,407,o),
(321,407,cs),
(352,407,o),
(385,401,o),
(416,389,c),
(435,476,l),
(402,490,o),
(366,498,o),
(322,498,cs),
(178,498,o),
(104,410,o),
(104,246,cs),
(104,82,o),
(179,-2,o),
(316,-2,cs),
(361,-2,o),
(400,7,o),
(437,22,c)
);
}
);
};
hints = (
{
horizontal = 1;
options = 4;
origin = (0,15);
stem = 1;
target = (0,22);
type = TTStem;
},
{
horizontal = 1;
origin = (0,0);
stem = 1;
target = (0,1);
type = TTStem;
},
{
horizontal = 1;
options = 4;
origin = (0,9);
stem = 1;
target = (0,28);
type = TTStem;
}
);
layerId = "3E7589AA-8194-470F-8E2F-13C1C581BE24";
shapes = (
{
closed = 1;
nodes = (
(113,274,l),
(118,191,l),
(477,191,l),
(431,161,l),
(441,197,o),
(449,237,o),
(449,285,cs),
(449,397,o),
(402,491,o),
(263,491,cs),
(126,491,o),
(56,398,o),
(56,236,cs),
(56,59,o),
(135,-12,o),
(280,-12,cs),
(342,-12,o),
(397,2,o),
(437,22,c),
(426,102,l),
(390,87,o),
(338,73,o),
(285,73,cs),
(207,73,o),
(144,103,o),
(144,243,cs),
(144,343,o),
(178,407,o),
(259,407,cs),
(329,407,o),
(359,360,o),
(359,292,cs),
(359,275,o),
(357,261,o),
(355,253,c),
(397,274,l)
);
}
);
width = 510;
},
{
anchors = (
{
name = bottom;
pos = (280,0);
},
{
name = ogonek;
pos = (458,23);
},
{
name = top;
pos = (270,485);
}
);
associatedMasterId = "3E7589AA-8194-470F-8E2F-13C1C581BE24";
attr = {
coordinates = (
155
);
};
background = {
shapes = (
{
closed = 1;
nodes = (
(117,272,l),
(122,182,l),
(452,182,l),
(459,217,o),
(464,249,o),
(464,287,cs),
(464,413,o),
(407,498,o),
(265,498,cs),
(115,498,o),
(37,404,o),
(37,240,cs),
(37,60,o),
(128,-13,o),
(284,-13,cs),
(346,-13,o),
(404,-2,o),
(458,23,c),
(445,130,l),
(404,114,o),
(356,104,o),
(310,104,cs),
(223,104,o),
(182,141,o),
(182,248,cs),
(182,333,o),
(202,379,o),
(259,379,cs),
(306,379,o),
(326,349,o),
(326,296,cs),
(326,284,o),
(326,277,o),
(325,272,c)
);
}
);
};
hints = (
{
horizontal = 1;
options = 4;
place = (-12, 85);
type = TTStem;
},
{
horizontal = 1;
options = 4;
place = (187, 80);
type = TTStem;
},
{
horizontal = 1;
options = 4;
place = (491, -84);
type = TTStem;
}
);
layerId = "507A9F49-2F7F-4BBE-A4B9-946874FBC2DE";
name = "{155}";
shapes = (
{
closed = 1;
nodes = (
(118,294,l),
(123,181,l),
(492,181,l),
(447,156,l),
(457,201,o),
(464,250,o),
(464,295,cs),
(464,420,o),
(409,498,o),
(270,498,cs),
(116,498,o),
(37,404,o),
(37,240,cs),
(37,65,o),
(123,-13,o),
(281,-13,cs),
(344,-13,o),
(406,-2,o),
(460,23,c),
(448,141,l),
(406,126,o),
(351,119,o),
(308,119,cs),
(219,119,o),
(183,151,o),
(183,251,cs),
(183,326,o),
(204,367,o),
(262,367,cs),
(306,367,o),
(327,344,o),
(327,288,cs),
(327,276,o),
(326,260,o),
(323,242,c),
(367,294,l)
);
}
);
width = 501;
},
{
anchors = (
{
name = bottom;
pos = (275,0);
},
{
name = ogonek;
pos = (412,26);
},
{
name = top;
pos = (255,468);
}
);
background = {
shapes = (
{
closed = 1;
nodes = (
(421,750,l),
(414,750,l),
(414,176,ls),
(414,59,o),
(356,0,o),
(252,0,cs),
(137,0,o),
(81,72,o),
(81,224,cs),
(81,379,o),
(141,468,o),
(280,468,cs),
(320,468,o),
(374,460,o),
(416,431,c),
(417,438,l),
(378,466,o),
(324,475,o),
(280,475,cs),
(137,475,o),
(74,384,o),
(74,224,cs),
(74,67,o),
(132,-7,o),
(251,-7,cs),
(342,-7,o),
(395,37,o),
(412,108,c),
(413,108,l),
(415,0,l),
(421,0,l)
);
}
);
};
layerId = "FA91A8E1-7324-47F6-AE85-AED49CFCD01C";
shapes = (
{
closed = 1;
nodes = (
(77,243,l),
(78,236,l),
(423,236,l),
(419,226,l),
(423,255,o),
(425,276,o),
(425,298,cs),
(425,386,o),
(383,475,o),
(262,475,cs),
(154,475,o),
(74,402,o),
(74,229,cs),
(74,74,o),
(133,-7,o),
(275,-7,cs),
(322,-7,o),
(370,4,o),
(412,26,c),
(410,33,l),
(371,11,o),
(322,0,o),
(275,0,cs),
(138,0,o),
(81,79,o),
(81,228,cs),
(81,397,o),
(156,468,o),
(262,468,cs),
(378,468,o),
(418,382,o),
(418,298,cs),
(418,277,o),
(416,259,o),
(414,241,c),
(417,243,l)
);
}
);
width = 510;
}
);
metricLeft = o;
unicode = 101;
}
{
glyphname = g;
kernLeft = g;
kernRight = g;
layers = (
{
anchors = (
{
name = bottom;
pos = (253,-211);
},
{
name = top;
pos = (260,485);
},
{
name = topright;
pos = (520,485);
}
);
associatedMasterId = "3E7589AA-8194-470F-8E2F-13C1C581BE24";
background = {
shapes = (
{
closed = 1;
nodes = (
(329,263,o),
(312,234,o),
(260,234,cs),
(209,234,o),
(188,265,o),
(188,308,cs),
(188,359,o),
(217,380,o),
(260,380,cs),
(300,380,o),
(329,360,o),
(329,308,cs)
);
},
{
closed = 1;
nodes = (
(181,90,l),
(177,98,o),
(176,106,o),
(176,115,cs),
(176,128,o),
(181,142,o),
(194,154,c),
(112,200,l),
(65,165,o),
(44,128,o),
(44,83,cs),
(44,37,o),
(65,-1,o),
(102,-32,c),
(355,-32,l),
(358,-39,o),
(360,-46,o),
(360,-54,cs),
(360,-83,o),
(339,-102,o),
(251,-102,cs),
(165,-102,o),
(142,-84,o),
(142,-52,cs),
(142,-39,o),
(146,-23,o),
(160,-3,c),
(99,29,l),
(62,16,o),
(17,-16,o),
(17,-81,cs),
(17,-166,o),
(92,-211,o),
(248,-211,cs),
(407,-211,o),
(494,-151,o),
(494,-31,cs),
(494,16,o),
(482,56,o),
(464,90,c)
);
},
{
closed = 1;
nodes = (
(401,475,o),
(342,499,o),
(259,499,cs),
(117,499,o),
(42,425,o),
(42,312,cs),
(42,188,o),
(134,132,o),
(257,132,cs),
(378,132,o),
(457,181,o),
(457,295,cs),
(457,322,o),
(451,345,o),
(444,364,c),
(412,315,l),
(442,333,o),
(468,339,o),
(502,332,c),
(516,485,l),
(449,497,o),
(406,470,o),
(380,422,c),
(428,415,l)
);
}
);
};
hints = (
{
horizontal = 1;
options = 4;
place = (492, -89);
stem = 1;
type = TTStem;
},
{
horizontal = 1;
options = 4;
place = (403, -196);
stem = -1;
type = TTStem;
},
{
horizontal = 1;
place = (207, -78);
stem = 1;
type = TTStem;
},
{
horizontal = 1;
options = 4;
place = (129, -61);
stem = -1;
type = TTStem;
},
{
horizontal = 1;
place = (68, -89);
stem = 1;
type = TTStem;
},
{
horizontal = 1;
options = 4;
place = (-21, -104);
stem = -1;
type = TTStem;
},
{
horizontal = 1;
place = (-125, -86);
stem = -1;
type = TTStem;
},
{
horizontal = 1;
options = 4;
place = (482, -97);
type = TTStem;
}
);
layerId = "B62CCCE0-37AB-46B4-8771-CFF442642C3F";
name = "155, 100 Kopie 2";
shapes = (
{
closed = 1;
nodes = (
(330,266,o),
(311,245,o),
(260,245,cs),
(206,245,o),
(187,269,o),
(187,305,cs),
(187,346,o),
(216,362,o),
(260,362,cs),
(306,362,o),
(330,343,o),
(330,301,cs)
);
},
{
closed = 1;
nodes = (
(480,94,o),
(367,94,cs),
(183,94,l),
(180,102,o),
(178,110,o),
(178,118,cs),
(178,129,o),
(184,141,o),
(194,151,c),
(111,201,l),
(69,176,o),
(37,137,o),
(37,85,cs),
(37,45,o),
(56,6,o),
(101,-34,c),
(335,-34,ls),
(349,-34,o),
(358,-41,o),
(358,-54,cs),
(358,-80,o),
(321,-86,o),
(263,-86,cs),
(175,-86,o),
(154,-71,o),
(154,-49,cs),
(154,-41,o),
(157,-32,o),
(167,-6,c),
(87,39,l),
(53,18,o),
(17,-11,o),
(17,-72,cs),
(17,-161,o),
(98,-211,o),
(243,-211,cs),
(402,-211,o),
(499,-159,o),
(499,-36,cs),
(499,19,o)
);
},
{
closed = 1;
nodes = (
(392,477,o),
(325,499,o),
(254,499,cs),
(119,499,o),
(42,423,o),
(42,309,cs),
(42,178,o),
(134,121,o),
(261,121,cs),
(384,121,o),
(466,171,o),
(466,272,cs),
(466,317,o),
(450,338,o),
(439,355,c),
(421,287,l),
(442,305,o),
(478,314,o),
(497,308,c),
(513,490,l),
(447,503,o),
(384,492,o),
(356,440,c),
(416,423,l)
);
}
);
width = 526;
},
{
anchors = (
{
name = bottom;
pos = (259,-211);
},
{
name = top;
pos = (266,485);
},
{
name = topright;
pos = (527,487);
}
);
associatedMasterId = "3E7589AA-8194-470F-8E2F-13C1C581BE24";
attr = {
coordinates = (
155
);
};
background = {
shapes = (
{
closed = 1;
nodes = (
(331,263,o),
(312,234,o),
(261,234,cs),
(208,234,o),
(188,265,o),
(188,308,cs),
(188,359,o),
(217,380,o),
(261,380,cs),
(302,380,o),
(331,360,o),
(331,308,cs)
);
},
{
closed = 1;
nodes = (
(189,90,l),
(185,98,o),
(184,106,o),
(184,115,cs),
(184,128,o),
(188,143,o),
(202,154,c),
(117,200,l),
(71,165,o),
(50,128,o),
(50,83,cs),
(50,37,o),
(71,-1,o),
(108,-32,c),
(361,-32,l),
(364,-39,o),
(365,-46,o),
(365,-54,cs),
(365,-83,o),
(342,-102,o),
(255,-102,cs),
(170,-102,o),
(148,-83,o),
(148,-52,cs),
(148,-38,o),
(153,-23,o),
(171,-6,c),
(103,37,l),
(66,17,o),
(24,-13,o),
(24,-77,cs),
(24,-167,o),
(104,-211,o),
(250,-211,cs),
(410,-211,o),
(500,-151,o),
(500,-31,cs),
(500,16,o),
(488,56,o),
(470,90,c)
);
},
{
closed = 1;
nodes = (
(376,483,o),
(323,499,o),
(256,499,cs),
(115,499,o),
(49,425,o),
(49,312,cs),
(49,188,o),
(140,132,o),
(265,132,cs),
(385,132,o),
(464,181,o),
(464,295,cs),
(464,322,o),
(458,345,o),
(450,364,c),
(417,310,l),
(447,328,o),
(473,334,o),
(507,330,c),
(522,492,l),
(454,501,o),
(421,488,o),
(409,445,c),
(399,445,l)
);
}
);
};
hints = (
{
horizontal = 1;
options = 4;
place = (499, 119);
stem = 1;
type = TTStem;
},
{
horizontal = 1;
options = 4;
place = (380, 146);
stem = -1;
type = TTStem;
},
{
horizontal = 1;
place = (234, 102);
stem = 1;
type = TTStem;
},
{
horizontal = 1;
options = 4;
place = (132, 42);
stem = -1;
type = TTStem;
},
{
horizontal = 1;
place = (90, 122);
stem = 1;
type = TTStem;
},
{
horizontal = 1;
options = 4;
place = (-32, 70);
stem = -1;
type = TTStem;
},
{
horizontal = 1;
place = (-102, 109);
stem = -1;
type = TTStem;
},
{
horizontal = 1;
options = 4;
place = (492, 162);
type = TTStem;
}
);
layerId = "E62876CD-2D3A-44A0-8CA5-BAEBF5F188C6";
name = "{155}";
shapes = (
{
closed = 1;
nodes = (
(339,273,o),
(320,252,o),
(268,252,cs),
(212,252,o),
(193,276,o),
(193,312,cs),
(193,353,o),
(222,369,o),
(268,369,cs),
(315,369,o),
(339,350,o),
(339,308,cs)
);
},
{
closed = 1;
nodes = (
(189,94,l),
(186,102,o),
(184,110,o),
(184,118,cs),
(184,129,o),
(190,141,o),
(200,151,c),
(117,201,l),
(75,176,o),
(43,137,o),
(43,85,cs),
(43,45,o),
(62,9,o),
(107,-31,c),
(361,-31,l),
(365,-37,o),
(367,-43,o),
(367,-49,cs),
(367,-75,o),
(330,-87,o),
(261,-87,cs),
(181,-87,o),
(160,-68,o),
(160,-46,cs),
(160,-38,o),
(163,-29,o),
(173,-6,c),
(93,39,l),
(59,18,o),
(23,-14,o),
(23,-75,cs),
(23,-166,o),
(100,-211,o),
(251,-211,cs),
(411,-211,o),
(508,-149,o),
(508,-26,cs),
(508,18,o),
(497,58,o),
(479,94,c)
);
},
{
closed = 1;
nodes = (
(391,492,o),
(310,499,o),
(259,499,cs),
(107,499,o),
(48,423,o),
(48,309,cs),
(48,183,o),
(140,126,o),
(269,126,cs),
(393,126,o),
(470,176,o),
(470,272,cs),
(470,317,o),
(459,338,o),
(448,355,c),
(456,301,l),
(468,309,o),
(489,309,o),
(524,307,c),
(537,487,l),
(456,500,o),
(425,486,o),
(417,443,c),
(407,443,l)
);
}
);
width = 545;
},
{
anchors = (
{
name = bottom;
pos = (237,-210);
},
{
name = top;
pos = (239,468);
},
{
name = topright;
pos = (450,468);
}
);
associatedMasterId = "FA91A8E1-7324-47F6-AE85-AED49CFCD01C";
background = {
shapes = (
{
closed = 1;
nodes = (
(72,215,o),
(122,150,o),
(230,150,cs),
(327,150,o),
(386,201,o),
(386,316,cs),
(386,422,o),
(336,475,o),
(235,475,cs),
(128,475,o),
(72,410,o),
(72,311,cs)
);
},
{
closed = 1;
nodes = (
(379,205,o),
(322,156,o),
(231,156,cs),
(128,156,o),
(79,219,o),
(79,310,cs),
(79,403,o),
(129,468,o),
(233,468,cs),
(337,468,o),
(379,412,o),
(379,316,cs)
);
},
{
closed = 1;
nodes = (
(428,469,l),
(391,477,o),
(358,469,o),
(346,431,c),
(352,429,l),
(365,464,o),
(392,469,o),
(427,461,c)
);
},
{
closed = 1;
nodes = (
(107,19,l),
(93,41,o),
(86,61,o),
(86,89,cs),
(86,127,o),
(101,158,o),
(131,180,c),
(127,185,l),
(96,161,o),
(79,134,o),
(79,89,cs),
(79,57,o),
(88,37,o),
(102,12,c),
(377,12,l),
(395,-11,o),
(405,-37,o),
(405,-74,cs),
(405,-165,o),
(331,-200,o),
(227,-200,cs),
(111,-200,o),
(52,-159,o),
(52,-84,cs),
(52,-43,o),
(71,-13,o),
(108,14,c),
(103,18,l),
(66,-9,o),
(45,-40,o),
(45,-85,cs),
(45,-164,o),
(106,-207,o),
(227,-207,cs),
(335,-207,o),
(412,-169,o),
(412,-73,cs),
(412,-32,o),
(399,-6,o),
(381,19,c)
);
}
);
};
layerId = "B596432C-514B-454B-8AF4-2511F98462ED";
name = "Aug 1 17, 10:53";
shapes = (
{
closed = 1;
nodes = (
(388,205,o),
(335,156,o),
(239,156,cs),
(131,156,o),
(79,219,o),
(79,310,cs),
(79,403,o),
(129,468,o),
(239,468,cs),
(347,468,o),
(390,412,o),
(389,316,cs)
);
},
{
closed = 1;
nodes = (
(405,19,o),
(322,19,cs),
(107,19,l),
(93,38,o),
(86,61,o),
(86,89,cs),
(86,128,o),
(100,161,o),
(131,180,c),
(128,186,l),
(96,165,o),
(79,134,o),
(79,89,cs),
(79,57,o),
(88,34,o),
(102,12,c),
(322,12,ls),
(400,12,o),
(425,-24,o),
(425,-74,cs),
(425,-169,o),
(341,-200,o),
(232,-200,cs),
(111,-200,o),
(52,-159,o),
(52,-85,cs),
(52,-43,o),
(71,-13,o),
(108,14,c),
(104,19,l),
(65,-9,o),
(45,-41,o),
(45,-86,cs),
(45,-162,o),
(106,-207,o),
(232,-207,cs),
(345,-207,o),
(432,-173,o),
(432,-74,cs),
(432,-21,o)
);
},
{
closed = 1;
nodes = (
(337,458,o),
(300,475,o),
(241,475,cs),
(128,475,o),
(72,410,o),
(72,311,cs),
(72,215,o),
(125,150,o),
(238,150,cs),
(340,150,o),
(396,201,o),
(396,316,cs),
(396,367,o),
(386,400,o),
(364,428,c),
(365,425,l),
(375,458,o),
(402,469,o),
(437,461,c),
(438,469,l),
(402,477,o),
(370,464,o),
(360,430,c),
(361,431,l)
);
}
);
width = 471;
},
{
anchors = (
{
name = bottom;
pos = (282,-210);
},
{
name = top;
pos = (274,468);
},
{
name = topright;
pos = (513,467);
}
);
background = {
shapes = (
{
closed = 1;
nodes = (
(421,204,o),
(364,156,o),
(265,156,cs),
(155,156,o),
(106,219,o),
(106,310,cs),
(106,403,o),
(164,468,o),
(268,468,cs),
(367,468,o),
(423,414,o),
(422,311,cs)
);
},
{
closed = 1;
nodes = (
(122,19,l),
(108,38,o),
(101,61,o),
(101,89,cs),
(101,128,o),
(115,161,o),
(157,180,c),
(154,186,l),
(111,165,o),
(94,134,o),
(94,89,cs),
(94,57,o),
(103,34,o),
(117,12,c),
(432,12,l),
(450,-11,o),
(460,-39,o),
(460,-73,cs),
(460,-165,o),
(386,-200,o),
(262,-200,cs),
(126,-200,o),
(67,-159,o),
(67,-85,cs),
(67,-43,o),
(86,-13,o),
(123,14,c),
(119,19,l),
(80,-9,o),
(60,-41,o),
(60,-86,cs),
(60,-162,o),
(121,-207,o),
(262,-207,cs),
(390,-207,o),
(467,-169,o),
(467,-73,cs),
(467,-34,o),
(454,-6,o),
(436,19,c)
);
},
{
closed = 1;
nodes = (
(366,456,o),
(325,475,o),
(270,475,cs),
(163,475,o),
(99,410,o),
(99,311,cs),
(99,215,o),
(150,150,o),
(264,150,cs),
(368,150,o),
(429,202,o),
(429,311,cs),
(429,367,o),
(414,400,o),
(394,427,c),
(395,424,l),
(404,458,o),
(436,469,o),
(482,461,c),
(483,469,l),
(436,477,o),
(399,464,o),
(390,429,c),
(391,429,l)
);
}
);
};
layerId = "FA91A8E1-7324-47F6-AE85-AED49CFCD01C";
shapes = (
{
closed = 1;
nodes = (
(421,204,o),
(364,156,o),
(265,156,cs),
(155,156,o),
(106,219,o),
(106,310,cs),
(106,403,o),
(164,468,o),
(268,468,cs),
(367,468,o),
(423,414,o),
(422,311,cs)
);
},
{
closed = 1;
nodes = (
(122,19,l),
(108,38,o),
(101,61,o),
(101,89,cs),
(101,128,o),
(115,161,o),
(157,180,c),
(154,186,l),
(111,165,o),
(94,134,o),
(94,89,cs),
(94,57,o),
(103,34,o),
(117,12,c),
(432,12,l),
(450,-11,o),
(460,-39,o),
(460,-73,cs),
(460,-165,o),
(386,-200,o),
(262,-200,cs),
(126,-200,o),
(67,-159,o),
(67,-85,cs),
(67,-43,o),
(86,-13,o),
(123,14,c),
(119,19,l),
(80,-9,o),
(60,-41,o),
(60,-86,cs),
(60,-162,o),
(121,-207,o),
(262,-207,cs),
(390,-207,o),
(467,-169,o),
(467,-73,cs),
(467,-34,o),
(454,-6,o),
(436,19,c)
);
},
{
closed = 1;
nodes = (
(366,456,o),
(325,475,o),
(270,475,cs),
(163,475,o),
(99,410,o),
(99,311,cs),
(99,215,o),
(150,150,o),
(264,150,cs),
(368,150,o),
(429,202,o),
(429,311,cs),
(429,367,o),
(414,400,o),
(394,427,c),
(396,423,l),
(404,458,o),
(436,467,o),
(512,459,c),
(513,467,l),
(436,475,o),
(399,464,o),
(393,429,c),
(391,429,l)
);
}
);
width = 541;
},
{
anchors = (
{
name = bottom;
pos = (252,-211);
},
{
name = top;
pos = (261,480);
},
{
name = topright;
pos = (502,480);
}
);
associatedMasterId = "3E7589AA-8194-470F-8E2F-13C1C581BE24";
background = {
shapes = (
{
closed = 1;
nodes = (
(61,188,o),
(141,129,o),
(253,129,cs),
(365,129,o),
(444,187,o),
(444,313,cs),
(444,425,o),
(388,492,o),
(258,492,cs),
(131,492,o),
(61,413,o),
(61,302,cs)
);
},
{
closed = 1;
nodes = (
(355,248,o),
(337,207,o),
(254,207,cs),
(179,207,o),
(150,251,o),
(150,306,cs),
(150,374,o),
(192,403,o),
(254,403,cs),
(313,403,o),
(355,371,o),
(355,310,cs)
);
},
{
closed = 1;
nodes = (
(498,482,l),
(430,492,o),
(400,468,o),
(379,421,c),
(420,358,l),
(436,377,o),
(455,389,o),
(488,385,c)
);
},
{
closed = 1;
nodes = (
(156,68,l),
(151,79,o),
(149,91,o),
(149,104,cs),
(149,122,o),
(157,141,o),
(176,158,c),
(131,204,l),
(88,171,o),
(64,134,o),
(64,88,cs),
(64,44,o),
(84,10,o),
(120,-21,c),
(371,-21,l),
(376,-32,o),
(378,-43,o),
(378,-54,cs),
(378,-94,o),
(349,-125,o),
(250,-125,cs),
(156,-125,o),
(123,-97,o),
(123,-55,cs),
(123,-37,o),
(129,-14,o),
(149,14,c),
(99,37,l),
(70,21,o),
(35,-14,o),
(35,-73,cs),
(35,-166,o),
(123,-211,o),
(252,-211,cs),
(379,-211,o),
(464,-160,o),
(464,-50,cs),
(464,-3,o),
(449,35,o),
(428,68,c)
);
},
{
closed = 1;
nodes = (
(498,482,l),
(481,487,o),
(465,489,o),
(447,489,cs),
(364,489,o),
(343,445,o),
(331,407,c),
(323,407,l),
(315,482,l),
(253,482,l),
(253,2,l),
(343,2,l),
(343,236,ls),
(343,340,o),
(368,395,o),
(449,395,cs),
(460,395,o),
(474,394,o),
(489,390,c)
);
}
);
};
hints = (
{
horizontal = 1;
options = 4;
origin = (2,2);
stem = 1;
target = (0,8);
type = TTStem;
},
{
horizontal = 1;
options = 4;
origin = (0,8);
stem = -1;
target = (0,2);
type = TTStem;
},
{
horizontal = 1;
origin = (0,2);
stem = 1;
target = (2,8);
type = TTStem;
},
{
horizontal = 1;
options = 4;
origin = (2,8);
stem = -1;
target = (1,1);
type = TTStem;
},
{
horizontal = 1;
origin = (1,1);
stem = 1;
target = (1,16);
type = TTStem;
},
{
horizontal = 1;
options = 4;
origin = (1,16);
stem = -1;
target = (1,22);
type = TTStem;
},
{
horizontal = 1;
origin = (1,22);
stem = -1;
target = (1,35);
type = TTStem;
},
{
horizontal = 1;
options = 4;
origin = (2,19);
target = (2,18);
type = TTStem;
}
);
layerId = "A328A965-64BB-44D6-A7DD-19A455C0D01E";
name = "Aug 1 17, 10:53";
shapes = (
{
closed = 1;
nodes = (
(360,247,o),
(333,207,o),
(257,207,cs),
(179,207,o),
(150,251,o),
(150,306,cs),
(150,374,o),
(192,403,o),
(258,403,cs),
(318,403,o),
(360,375,o),
(360,303,cs)
);
},
{
closed = 1;
nodes = (
(457,68,o),
(339,68,cs),
(159,68,l),
(154,79,o),
(152,91,o),
(152,103,cs),
(152,123,o),
(158,144,o),
(179,158,c),
(129,205,l),
(86,172,o),
(64,134,o),
(64,88,cs),
(64,44,o),
(84,10,o),
(120,-21,c),
(338,-21,ls),
(374,-21,o),
(391,-37,o),
(391,-63,cs),
(391,-99,o),
(358,-125,o),
(256,-125,cs),
(152,-125,o),
(123,-95,o),
(123,-55,cs),
(123,-35,o),
(131,-13,o),
(158,9,c),
(94,39,l),
(65,20,o),
(35,-12,o),
(35,-70,cs),
(35,-165,o),
(115,-211,o),
(244,-211,cs),
(386,-211,o),
(479,-170,o),
(479,-60,cs),
(479,-6,o)
);
},
{
closed = 1;
nodes = (
(379,470,o),
(331,492,o),
(262,492,cs),
(131,492,o),
(61,413,o),
(61,302,cs),
(61,188,o),
(141,129,o),
(256,129,cs),
(370,129,o),
(446,187,o),
(446,303,cs),
(446,343,o),
(437,372,o),
(426,392,c),
(418,371,l),
(435,382,o),
(460,390,o),
(493,385,c),
(503,483,l),
(438,493,o),
(405,471,o),
(387,427,c),
(408,430,l)
);
}
);
width = 519;
},
{
anchors = (
{
name = bottom;
pos = (254,-211);
},
{
name = top;
pos = (263,480);
},
{
name = topright;
pos = (505,484);
}
);
background = {
shapes = (
{
closed = 1;
nodes = (
(362,247,o),
(335,207,o),
(259,207,cs),
(181,207,o),
(152,251,o),
(152,306,cs),
(152,374,o),
(194,403,o),
(260,403,cs),
(320,403,o),
(362,375,o),
(362,303,cs)
);
},
{
closed = 1;
nodes = (
(161,68,l),
(156,79,o),
(154,91,o),
(154,103,cs),
(154,123,o),
(160,144,o),
(181,158,c),
(131,205,l),
(88,172,o),
(66,134,o),
(66,88,cs),
(66,44,o),
(86,10,o),
(122,-21,c),
(376,-21,l),
(381,-32,o),
(383,-43,o),
(383,-53,cs),
(383,-94,o),
(350,-125,o),
(248,-125,cs),
(154,-125,o),
(125,-95,o),
(125,-55,cs),
(125,-35,o),
(133,-13,o),
(160,9,c),
(96,39,l),
(67,20,o),
(37,-12,o),
(37,-70,cs),
(37,-165,o),
(117,-211,o),
(246,-211,cs),
(378,-211,o),
(471,-160,o),
(471,-50,cs),
(471,-3,o),
(456,35,o),
(435,68,c)
);
},
{
closed = 1;
nodes = (
(381,470,o),
(333,492,o),
(264,492,cs),
(133,492,o),
(63,413,o),
(63,302,cs),
(63,188,o),
(143,129,o),
(258,129,cs),
(372,129,o),
(448,187,o),
(448,303,cs),
(448,343,o),
(439,372,o),
(428,392,c),
(420,371,l),
(437,382,o),
(462,391,o),
(495,386,c),
(505,484,l),
(440,494,o),
(407,471,o),
(389,427,c),
(410,430,l)
);
}
);
};
hints = (
{
horizontal = 1;
options = 4;
origin = (2,2);
stem = 1;
target = (0,8);
type = TTStem;
},
{
horizontal = 1;
options = 4;
origin = (0,8);
stem = -1;
target = (0,2);
type = TTStem;
},
{
horizontal = 1;
origin = (0,2);
stem = 1;
target = (2,8);
type = TTStem;
},
{
horizontal = 1;
options = 4;
origin = (2,8);
stem = -1;
target = (1,39);
type = TTStem;
},
{
horizontal = 1;
origin = (1,39);
stem = 1;
target = (1,14);
type = TTStem;
},
{
horizontal = 1;
options = 4;
origin = (1,14);
stem = -1;
target = (1,20);
type = TTStem;
},
{
horizontal = 1;
origin = (1,20);
stem = -1;
target = (1,33);
type = TTStem;
},
{
horizontal = 1;
options = 4;
origin = (2,19);
target = (2,18);
type = TTStem;
}
);
layerId = "3E7589AA-8194-470F-8E2F-13C1C581BE24";
shapes = (
{
closed = 1;
nodes = (
(362,250,o),
(335,212,o),
(259,212,cs),
(181,212,o),
(152,254,o),
(152,309,cs),
(152,377,o),
(194,403,o),
(260,403,cs),
(320,403,o),
(362,378,o),
(362,306,cs)
);
},
{
closed = 1;
nodes = (
(161,68,l),
(156,79,o),
(154,91,o),
(154,103,cs),
(154,123,o),
(160,144,o),
(181,158,c),
(131,205,l),
(88,172,o),
(66,134,o),
(66,88,cs),
(66,44,o),
(86,12,o),
(122,-19,c),
(376,-19,l),
(381,-30,o),
(383,-43,o),
(383,-53,cs),
(383,-94,o),
(350,-127,o),
(248,-127,cs),
(154,-127,o),
(125,-95,o),
(125,-55,cs),
(125,-35,o),
(133,-13,o),
(160,9,c),
(96,39,l),
(67,20,o),
(37,-12,o),
(37,-70,cs),
(37,-165,o),
(117,-211,o),
(246,-211,cs),
(378,-211,o),
(471,-160,o),
(471,-50,cs),
(471,-3,o),
(456,35,o),
(435,68,c)
);
},
{
closed = 1;
nodes = (
(368,477,o),
(315,492,o),
(260,492,cs),
(133,492,o),
(63,416,o),
(63,305,cs),
(63,191,o),
(143,134,o),
(258,134,cs),
(372,134,o),
(448,190,o),
(448,306,cs),
(448,346,o),
(439,372,o),
(428,392,c),
(420,371,l),
(437,382,o),
(462,389,o),
(515,384,c),
(525,482,l),
(447,490,o),
(420,471,o),
(409,437,c),
(399,437,l)
);
}
);
width = 545;
},
{
anchors = (
{
name = bottom;
pos = (253,-211);
},
{
name = top;
pos = (258,490);
},
{
name = topright;
pos = (538,490);
}
);
associatedMasterId = "BFFFD157-90D3-4B85-B99D-9A2F366F03CA";
background = {
shapes = (
{
closed = 1;
nodes = (
(23,187,o),
(126,135,o),
(260,135,cs),
(415,135,o),
(493,187,o),
(493,327,cs),
(493,435,o),
(411,505,o),
(260,505,cs),
(102,505,o),
(23,437,o),
(23,316,cs)
);
},
{
closed = 1;
nodes = (
(531,490,l),
(483,500,o),
(443,489,o),
(418,456,c),
(432,230,l),
(456,256,o),
(484,265,o),
(519,256,c)
);
}
);
};
layerId = "E4F5B396-9951-48B7-AFD8-71D70F0A8FEB";
name = "Aug 1 17, 10:54";
shapes = (
{
closed = 1;
nodes = (
(298,278,o),
(288,261,o),
(261,261,cs),
(234,261,o),
(222,278,o),
(222,309,cs),
(222,343,o),
(238,356,o),
(261,356,cs),
(283,356,o),
(298,345,o),
(298,312,cs)
);
},
{
closed = 1;
nodes = (
(475,112,o),
(366,112,cs),
(205,112,l),
(203,117,o),
(202,121,o),
(202,126,cs),
(202,133,o),
(205,142,o),
(211,149,c),
(92,195,l),
(42,158,o),
(23,121,o),
(23,77,cs),
(23,30,o),
(45,-11,o),
(83,-43,c),
(320,-43,ls),
(331,-43,o),
(336,-48,o),
(336,-57,cs),
(336,-74,o),
(319,-79,o),
(251,-79,cs),
(174,-79,o),
(160,-70,o),
(160,-49,cs),
(160,-41,o),
(162,-32,o),
(170,-20,c),
(86,33,l),
(45,14,o),
(-1,-14,o),
(-1,-81,cs),
(-1,-163,o),
(66,-211,o),
(243,-211,cs),
(430,-211,o),
(518,-151,o),
(518,-30,cs),
(518,55,o)
);
},
{
closed = 1;
nodes = (
(399,480,o),
(341,505,o),
(249,505,cs),
(91,505,o),
(23,437,o),
(23,322,cs),
(23,187,o),
(126,135,o),
(260,135,cs),
(386,135,o),
(468,175,o),
(468,287,cs),
(468,301,o),
(465,317,o),
(461,335,c),
(403,249,l),
(446,274,o),
(473,277,o),
(508,268,c),
(528,492,l),
(456,508,o),
(374,505,o),
(343,447,c),
(423,400,l)
);
}
);
width = 535;
},
{
anchors = (
{
name = bottom;
pos = (253,-211);
},
{
name = top;
pos = (258,490);
},
{
name = topright;
pos = (538,490);
}
);
background = {
shapes = (
{
closed = 1;
nodes = (
(288,278,o),
(278,261,o),
(251,261,cs),
(224,261,o),
(212,278,o),
(212,309,cs),
(212,343,o),
(228,356,o),
(251,356,cs),
(273,356,o),
(288,345,o),
(288,312,cs)
);
},
{
closed = 1;
nodes = (
(205,112,l),
(203,117,o),
(202,121,o),
(202,126,cs),
(202,133,o),
(205,142,o),
(211,149,c),
(92,195,l),
(42,158,o),
(23,121,o),
(23,77,cs),
(23,30,o),
(45,-11,o),
(83,-43,c),
(334,-43,l),
(335,-45,o),
(336,-49,o),
(336,-54,cs),
(336,-72,o),
(323,-79,o),
(251,-79,cs),
(174,-79,o),
(160,-70,o),
(160,-49,cs),
(160,-41,o),
(162,-32,o),
(170,-20,c),
(98,34,l),
(54,14,o),
(-1,-14,o),
(-1,-84,cs),
(-1,-169,o),
(80,-211,o),
(243,-211,cs),
(430,-211,o),
(518,-141,o),
(518,-12,cs),
(518,34,o),
(509,76,o),
(494,112,c)
);
},
{
closed = 1;
nodes = (
(419,472,o),
(348,505,o),
(241,505,cs),
(86,505,o),
(23,437,o),
(23,322,cs),
(23,187,o),
(126,135,o),
(260,135,cs),
(386,135,o),
(468,175,o),
(468,287,cs),
(468,301,o),
(465,317,o),
(461,335,c),
(403,249,l),
(446,274,o),
(473,277,o),
(508,274,c),
(528,499,l),
(456,507,o),
(414,505,o),
(383,447,c),
(442,400,l)
);
}
);
};
layerId = "BFFFD157-90D3-4B85-B99D-9A2F366F03CA";
shapes = (
{
closed = 1;
nodes = (
(288,278,o),
(278,261,o),
(251,261,cs),
(224,261,o),
(212,278,o),
(212,309,cs),
(212,343,o),
(228,356,o),
(251,356,cs),
(273,356,o),
(288,345,o),
(288,312,cs)
);
},
{
closed = 1;
nodes = (
(205,112,l),
(203,117,o),
(202,121,o),
(202,126,cs),
(202,133,o),
(205,142,o),
(211,149,c),
(82,195,l),
(32,158,o),
(13,121,o),
(13,77,cs),
(13,30,o),
(35,-11,o),
(73,-43,c),
(344,-43,l),
(345,-45,o),
(346,-49,o),
(346,-54,cs),
(346,-72,o),
(333,-79,o),
(261,-79,cs),
(184,-79,o),
(170,-70,o),
(170,-49,cs),
(170,-41,o),
(172,-32,o),
(180,-20,c),
(98,34,l),
(54,14,o),
(-1,-14,o),
(-1,-84,cs),
(-1,-169,o),
(80,-211,o),
(243,-211,cs),
(430,-211,o),
(518,-141,o),
(518,-12,cs),
(518,34,o),
(509,76,o),
(494,112,c)
);
},
{
closed = 1;
nodes = (
(366,493,o),
(307,505,o),
(240,505,cs),
(84,505,o),
(23,437,o),
(23,322,cs),
(23,187,o),
(126,135,o),
(260,135,cs),
(386,135,o),
(468,175,o),
(468,287,cs),
(468,301,o),
(465,317,o),
(461,335,c),
(403,249,l),
(446,274,o),
(473,277,o),
(524,274,c),
(537,494,l),
(461,503,o),
(415,497,o),
(404,454,c),
(394,454,l)
);
}
);
width = 535;
}
);
unicode = 103;
}
{
glyphname = l;
kernLeft = l;
kernRight = l;
layers = (
{
anchors = (
{
name = "#exit";
pos = (253,490);
},
{
name = bottom;
pos = (179,0);
},
{
name = center;
pos = (125,335);
},
{
name = top;
pos = (149,750);
}
);
background = {
shapes = (
{
closed = 0;
nodes = (
(298,9,l),
(308,180,l)
);
}
);
};
layerId = "BFFFD157-90D3-4B85-B99D-9A2F366F03CA";
shapes = (
{
closed = 1;
nodes = (
(308,180,l),
(301,178,o),
(295,177,o),
(286,177,cs),
(267,177,o),
(253,185,o),
(253,206,cs),
(253,750,l),
(33,750,l),
(33,174,ls),
(33,63,o),
(79,-10,o),
(210,-10,cs),
(242,-10,o),
(272,-6,o),
(298,5,c)
);
}
);
width = 326;
},
{
anchors = (
{
name = "#exit";
pos = (168,480);
},
{
name = bottom;
pos = (173,0);
},
{
name = center;
pos = (116,347);
},
{
name = top;
pos = (135,750);
}
);
background = {
shapes = (
{
closed = 1;
nodes = (
(149,79,o),
(128,97,o),
(128,141,cs),
(128,388,l),
(258,388,l),
(258,478,l),
(128,478,l),
(128,637,l),
(51,637,l),
(39,479,l),
(-48,472,l),
(-48,398,l),
(38,390,l),
(38,143,ls),
(38,37,o),
(85,-9,o),
(178,-9,cs),
(198,-9,o),
(223,-7,o),
(251,0,c),
(258,84,l),
(236,80,o),
(214,79,o),
(201,79,cs)
);
}
);
};
hints = (
{
horizontal = 1;
origin = (0,7);
type = TTSnap;
},
{
horizontal = 1;
options = 4;
origin = (0,12);
stem = 1;
target = (0,15);
type = TTStem;
}
);
layerId = "3E7589AA-8194-470F-8E2F-13C1C581BE24";
shapes = (
{
closed = 1;
nodes = (
(258,85,l),
(245,82,o),
(232,81,o),
(222,81,cs),
(182,81,o),
(168,100,o),
(168,138,cs),
(168,750,l),
(78,750,l),
(78,120,ls),
(78,42,o),
(109,-8,o),
(200,-8,cs),
(217,-8,o),
(234,-6,o),
(250,-2,c)
);
}
);
width = 296;
},
{
anchors = (
{
name = "#exit";
pos = (106,468);
},
{
name = bottom;
pos = (154,0);
},
{
name = center;
pos = (100,324);
},
{
name = top;
pos = (103,750);
}
);
layerId = "FA91A8E1-7324-47F6-AE85-AED49CFCD01C";
shapes = (
{
closed = 1;
nodes = (
(200,8,l),
(189,4,o),
(179,3,o),
(166,3,cs),
(123,3,o),
(105,31,o),
(105,79,cs),
(106,750,l),
(99,750,l),
(98,79,ls),
(98,23,o),
(122,-4,o),
(166,-4,cs),
(177,-4,o),
(188,-3,o),
(200,1,c)
);
}
);
width = 266;
}
);
unicode = 108;
}
{
glyphname = n;
kernLeft = m;
kernRight = m;
layers = (
{
anchors = (
{
name = apostrophe;
pos = (27,490);
},
{
name = bottom;
pos = (289,0);
},
{
name = top;
pos = (289,490);
}
);
background = {
shapes = (
{
closed = 1;
nodes = (
(271,503,o),
(230,480,o),
(200,442,c),
(189,442,l),
(170,488,l),
(32,488,l),
(32,-2,l),
(252,-2,l),
(252,283,ls),
(252,311,o),
(265,317,o),
(284,317,cs),
(303,317,o),
(318,311,o),
(318,283,cs),
(318,-2,l),
(538,-2,l),
(538,300,ls),
(538,451,o),
(460,503,o),
(345,503,cs)
);
}
);
};
layerId = "BFFFD157-90D3-4B85-B99D-9A2F366F03CA";
shapes = (
{
closed = 1;
nodes = (
(252,0,l),
(252,242,ls),
(252,281,o),
(266,298,o),
(294,298,cs),
(320,298,o),
(328,283,o),
(328,252,cs),
(328,0,l),
(548,0,l),
(548,317,ls),
(548,453,o),
(484,501,o),
(373,501,cs),
(278,501,o),
(227,466,o),
(200,426,c),
(190,426,l),
(167,490,l),
(32,490,l),
(32,0,l)
);
}
);
width = 578;
},
{
anchors = (
{
name = apostrophe;
pos = (35,480);
},
{
name = bottom;
pos = (268,0);
},
{
name = top;
pos = (268,480);
}
);
background = {
shapes = (
{
closed = 1;
nodes = (
(161,426,l),
(161,750,l),
(71,750,l),
(71,19,l),
(161,28,l),
(161,241,ls),
(161,359,o),
(210,396,o),
(282,396,cs),
(353,396,o),
(390,356,o),
(390,254,cs),
(390,137,o),
(345,77,o),
(245,77,cs),
(216,77,o),
(180,82,o),
(141,98,c),
(71,19,l),
(121,0,o),
(176,-11,o),
(229,-11,cs),
(397,-11,o),
(480,100,o),
(480,267,cs),
(480,404,o),
(430,489,o),
(310,489,cs),
(240,489,o),
(193,459,o),
(169,426,c)
);
}
);
};
hints = (
{
horizontal = 1;
origin = (0,19);
type = TTSnap;
},
{
horizontal = 1;
origin = (0,0);
type = TTSnap;
},
{
horizontal = 1;
origin = (0,8);
type = TTSnap;
},
{
horizontal = 1;
options = 4;
origin = (0,13);
stem = 1;
target = (0,4);
type = TTStem;
}
);
layerId = "3E7589AA-8194-470F-8E2F-13C1C581BE24";
shapes = (
{
closed = 1;
nodes = (
(165,0,l),
(165,259,ls),
(165,350,o),
(205,397,o),
(283,397,cs),
(352,397,o),
(378,360,o),
(378,289,cs),
(378,0,l),
(468,0,l),
(468,314,ls),
(468,405,o),
(440,490,o),
(302,490,cs),
(214,490,o),
(172,454,o),
(153,419,c),
(145,419,l),
(137,480,l),
(75,480,l),
(75,0,l)
);
}
);
width = 538;
},
{
anchors = (
{
name = apostrophe;
pos = (48,468);
},
{
name = bottom;
pos = (267,0);
},
{
name = top;
pos = (267,468);
}
);
background = {
shapes = (
{
closed = 1;
nodes = (
(105,0,l),
(105,291,ls),
(105,410,o),
(162,468,o),
(264,468,cs),
(357,468,o),
(404,420,o),
(404,304,cs),
(404,0,l),
(411,0,l),
(411,305,ls),
(411,424,o),
(361,475,o),
(265,475,cs),
(159,475,o),
(117,415,o),
(106,354,c),
(105,354,l),
(105,750,l),
(98,750,l),
(98,0,l)
);
}
);
};
layerId = "FA91A8E1-7324-47F6-AE85-AED49CFCD01C";
shapes = (
{
closed = 1;
nodes = (
(105,0,l),
(105,282,ls),
(105,414,o),
(182,468,o),
(278,468,cs),
(370,468,o),
(424,420,o),
(424,303,cs),
(424,0,l),
(431,0,l),
(431,304,ls),
(431,423,o),
(375,475,o),
(279,475,cs),
(178,475,o),
(116,417,o),
(105,338,c),
(104,338,l),
(104,468,l),
(98,468,l),
(98,0,l)
);
}
);
width = 525;
}
);
metricLeft = m;
metricRight = m;
unicode = 110;
}
{
glyphname = p;
kernLeft = m;
kernRight = o;
layers = (
{
anchors = (
{
name = bottom;
pos = (352,0);
},
{
name = top;
pos = (291,490);
}
);
background = {
shapes = (
{
closed = 1;
nodes = (
(455,-14,o),
(544,77,o),
(544,248,cs),
(544,412,o),
(462,505,o),
(298,505,cs),
(133,505,o),
(41,410,o),
(41,239,cs),
(41,75,o),
(125,-14,o),
(288,-14,cs)
);
},
{
closed = 1;
nodes = (
(259,159,o),
(242,184,o),
(242,238,cs),
(242,288,o),
(258,311,o),
(292,311,cs),
(326,311,o),
(343,287,o),
(343,233,cs),
(343,183,o),
(327,159,o),
(294,159,cs)
);
}
);
};
layerId = "BFFFD157-90D3-4B85-B99D-9A2F366F03CA";
shapes = (
{
closed = 1;
nodes = (
(190,426,l),
(167,490,l),
(32,490,l),
(32,-180,l),
(253,-180,l),
(253,242,ls),
(253,286,o),
(267,310,o),
(300,310,cs),
(335,310,o),
(343,283,o),
(343,240,cs),
(343,189,o),
(325,158,o),
(289,158,cs),
(272,158,o),
(255,164,o),
(241,174,c),
(205,20,l),
(245,1,o),
(286,-9,o),
(334,-9,cs),
(493,-9,o),
(560,96,o),
(560,267,cs),
(560,422,o),
(506,502,o),
(369,502,cs),
(277,502,o),
(229,466,o),
(200,426,c)
);
}
);
width = 577;
},
{
anchors = (
{
name = bottom;
pos = (266,0);
},
{
name = top;
pos = (266,480);
}
);
background = {
shapes = (
{
closed = 1;
nodes = (
(165,426,l),
(165,750,l),
(75,750,l),
(75,19,l),
(165,28,l),
(165,241,ls),
(165,359,o),
(214,396,o),
(286,396,cs),
(357,396,o),
(394,356,o),
(394,254,cs),
(394,137,o),
(349,77,o),
(249,77,cs),
(220,77,o),
(184,82,o),
(145,98,c),
(75,19,l),
(125,0,o),
(180,-11,o),
(233,-11,cs),
(401,-11,o),
(484,100,o),
(484,267,cs),
(484,404,o),
(434,489,o),
(314,489,cs),
(244,489,o),
(197,459,o),
(173,426,c)
);
}
);
};
hints = (
{
horizontal = 1;
options = 4;
origin = (0,21);
stem = 1;
target = (0,14);
type = TTStem;
},
{
horizontal = 1;
options = 4;
origin = (0,27);
stem = 1;
target = (0,8);
type = TTStem;
},
{
horizontal = 1;
origin = (0,4);
type = TTSnap;
},
{
horizontal = 1;
origin = (0,2);
type = TTSnap;
}
);
layerId = "3E7589AA-8194-470F-8E2F-13C1C581BE24";
shapes = (
{
closed = 1;
nodes = (
(145,419,l),
(137,480,l),
(75,480,l),
(75,-190,l),
(165,-190,l),
(165,243,ls),
(165,357,o),
(215,396,o),
(285,396,cs),
(358,396,o),
(394,355,o),
(394,248,cs),
(394,135,o),
(348,77,o),
(252,77,cs),
(217,77,o),
(180,85,o),
(146,113,c),
(118,35,l),
(163,2,o),
(211,-9,o),
(260,-9,cs),
(408,-9,o),
(484,90,o),
(484,256,cs),
(484,394,o),
(434,489,o),
(301,489,cs),
(232,489,o),
(179,464,o),
(153,419,c)
);
}
);
width = 540;
},
{
anchors = (
{
name = bottom;
pos = (237,0);
},
{
name = top;
pos = (268,468);
}
);
background = {
shapes = (
{
closed = 1;
nodes = (
(105,346,l),
(105,750,l),
(98,750,l),
(98,19,l),
(105,19,l),
(105,285,ls),
(105,417,o),
(196,468,o),
(281,468,cs),
(381,468,o),
(439,404,o),
(439,261,cs),
(439,91,o),
(372,0,o),
(241,0,cs),
(198,0,o),
(144,8,o),
(101,26,c),
(98,19,l),
(141,1,o),
(196,-7,o),
(240,-7,cs),
(376,-7,o),
(446,87,o),
(446,261,cs),
(446,408,o),
(385,475,o),
(281,475,cs),
(194,475,o),
(126,427,o),
(106,346,c)
);
}
);
};
layerId = "FA91A8E1-7324-47F6-AE85-AED49CFCD01C";
shapes = (
{
closed = 1;
nodes = (
(104,328,l),
(103,468,l),
(98,468,l),
(98,-200,l),
(105,-200,l),
(105,276,ls),
(105,411,o),
(184,468,o),
(278,468,cs),
(381,468,o),
(439,397,o),
(439,252,cs),
(439,85,o),
(366,0,o),
(241,0,cs),
(205,0,o),
(143,6,o),
(100,26,c),
(99,19,l),
(144,-1,o),
(199,-7,o),
(240,-7,cs),
(369,-7,o),
(446,78,o),
(446,252,cs),
(446,402,o),
(385,475,o),
(278,475,cs),
(182,475,o),
(117,417,o),
(105,328,c)
);
}
);
width = 520;
}
);
metricLeft = m;
metricRight = o;
unicode = 112;
}
{
color = 10;
glyphname = s;
kernLeft = s;
kernRight = s;
layers = (
{
anchors = (
{
name = bottom;
pos = (204,0);
},
{
name = top;
pos = (216,490);
},
{
name = topright;
pos = (386,490);
}
);
background = {
shapes = (
{
closed = 0;
nodes = (
(24,9,l),
(34,180,l)
);
}
);
};
layerId = "BFFFD157-90D3-4B85-B99D-9A2F366F03CA";
shapes = (
{
closed = 1;
nodes = (
(342,494,o),
(292,502,o),
(238,502,cs),
(81,502,o),
(29,428,o),
(29,327,cs),
(29,250,o),
(56,204,o),
(127,177,cs),
(144,171,o),
(165,165,o),
(183,159,cs),
(198,154,o),
(207,148,o),
(207,142,cs),
(207,135,o),
(199,133,o),
(182,133,cs),
(143,133,o),
(93,144,o),
(40,158,c),
(30,14,l),
(79,-4,o),
(144,-13,o),
(199,-13,cs),
(340,-13,o),
(396,48,o),
(396,144,cs),
(396,238,o),
(347,271,o),
(305,288,cs),
(283,297,o),
(261,303,o),
(236,311,cs),
(216,317,o),
(209,321,o),
(209,328,cs),
(209,338,o),
(223,340,o),
(243,340,cs),
(286,340,o),
(328,331,o),
(361,323,c),
(383,481,l)
);
}
);
width = 406;
},
{
anchors = (
{
name = bottom;
pos = (210,0);
},
{
name = top;
pos = (224,480);
},
{
name = topright;
pos = (414,480);
}
);
background = {
shapes = (
{
closed = 0;
nodes = (
(361,378,l),
(371,464,l)
);
}
);
};
hints = (
{
horizontal = 1;
options = 4;
origin = (0,24);
stem = 1;
target = (0,17);
type = TTStem;
},
{
horizontal = 1;
options = 4;
origin = (0,2);
stem = 1;
target = (0,39);
type = TTStem;
},
{
horizontal = 1;
origin = (0,17);
other1 = (0,33);
target = (0,2);
type = TTInterpolate;
},
{
horizontal = 1;
origin = (0,24);
other1 = (0,8);
target = (0,39);
type = TTInterpolate;
}
);
layerId = "3E7589AA-8194-470F-8E2F-13C1C581BE24";
shapes = (
{
closed = 1;
nodes = (
(335,481,o),
(284,492,o),
(236,492,cs),
(134,492,o),
(61,446,o),
(61,345,cs),
(61,283,o),
(89,236,o),
(155,208,cs),
(188,194,o),
(224,187,o),
(251,176,cs),
(283,162,o),
(292,148,o),
(292,126,cs),
(292,89,o),
(268,77,o),
(215,77,cs),
(168,77,o),
(122,87,o),
(79,105,c),
(60,25,l),
(98,4,o),
(147,-12,o),
(211,-12,cs),
(304,-12,o),
(382,22,o),
(382,129,cs),
(382,174,o),
(369,227,o),
(280,261,cs),
(254,271,o),
(227,277,o),
(200,286,cs),
(163,298,o),
(150,318,o),
(150,344,cs),
(150,386,o),
(184,403,o),
(234,403,cs),
(274,403,o),
(317,392,o),
(353,376,c),
(373,464,l)
);
}
);
width = 437;
},
{
anchors = (
{
name = bottom;
pos = (209,0);
},
{
name = top;
pos = (217,485);
},
{
name = topright;
pos = (402,485);
}
);
associatedMasterId = "3E7589AA-8194-470F-8E2F-13C1C581BE24";
attr = {
coordinates = (
155
);
};
background = {
shapes = (
{
closed = 1;
nodes = (
(345,486,o),
(291,498,o),
(236,498,cs),
(93,498,o),
(36,429,o),
(36,337,cs),
(36,259,o),
(72,214,o),
(139,190,cs),
(166,180,o),
(196,173,o),
(217,165,cs),
(244,155,o),
(254,146,o),
(254,131,cs),
(254,109,o),
(235,102,o),
(198,102,cs),
(150,102,o),
(93,120,o),
(52,139,c),
(36,20,l),
(81,-1,o),
(142,-14,o),
(204,-14,cs),
(329,-14,o),
(393,39,o),
(393,136,cs),
(393,204,o),
(361,249,o),
(293,274,cs),
(269,283,o),
(245,290,o),
(220,299,cs),
(191,308,o),
(174,318,o),
(174,339,cs),
(174,365,o),
(199,374,o),
(238,374,cs),
(283,374,o),
(329,361,o),
(361,344,c),
(382,467,l)
);
}
);
};
layerId = "A3104894-D6A5-4B73-B1F5-60AEDF855806";
name = "{155}";
shapes = (
{
closed = 1;
nodes = (
(336,488,o),
(281,497,o),
(232,497,cs),
(100,497,o),
(47,431,o),
(47,336,cs),
(47,259,o),
(80,219,o),
(138,193,cs),
(170,179,o),
(199,171,o),
(225,162,cs),
(248,154,o),
(256,148,o),
(256,137,cs),
(256,123,o),
(244,120,o),
(215,120,cs),
(154,120,o),
(104,132,o),
(63,146,c),
(46,13,l),
(92,-2,o),
(147,-14,o),
(203,-14,cs),
(325,-14,o),
(390,43,o),
(390,145,cs),
(390,223,o),
(351,259,o),
(294,282,cs),
(260,296,o),
(238,300,o),
(212,310,cs),
(191,318,o),
(184,325,o),
(184,336,cs),
(184,353,o),
(202,358,o),
(231,358,cs),
(276,358,o),
(325,346,o),
(357,335,c),
(380,474,l)
);
}
);
width = 422;
},
{
anchors = (
{
name = bottom;
pos = (223,0);
},
{
name = top;
pos = (241,468);
},
{
name = topright;
pos = (400,468);
}
);
background = {
shapes = (
{
closed = 1;
nodes = (
(128,7,o),
(165,-7,o),
(216,-7,cs),
(302,-7,o),
(367,32,o),
(367,121,cs),
(367,168,o),
(349,217,o),
(278,240,cs),
(246,250,o),
(195,260,o),
(168,269,cs),
(112,289,o),
(96,324,o),
(96,365,cs),
(96,442,o),
(153,468,o),
(232,468,cs),
(290,468,o),
(335,452,o),
(368,432,c),
(370,439,l),
(340,458,o),
(294,475,o),
(233,475,cs),
(148,475,o),
(89,445,o),
(89,365,cs),
(89,321,o),
(108,282,o),
(165,263,cs),
(197,252,o),
(247,243,o),
(276,233,cs),
(344,209,o),
(360,166,o),
(360,121,cs),
(360,35,o),
(297,0,o),
(216,0,cs),
(167,0,o),
(131,13,o),
(105,31,c),
(102,25,l)
);
}
);
};
layerId = "FA91A8E1-7324-47F6-AE85-AED49CFCD01C";
shapes = (
{
closed = 1;
nodes = (
(340,454,o),
(299,475,o),
(236,475,cs),
(153,475,o),
(84,439,o),
(84,352,cs),
(84,305,o),
(102,263,o),
(175,235,cs),
(211,221,o),
(262,209,o),
(289,199,cs),
(357,175,o),
(373,142,o),
(373,105,cs),
(373,30,o),
(306,0,o),
(227,0,cs),
(169,0,o),
(118,17,o),
(79,43,c),
(77,36,l),
(112,12,o),
(165,-7,o),
(226,-7,cs),
(311,-7,o),
(380,27,o),
(380,104,cs),
(380,145,o),
(361,182,o),
(295,205,cs),
(262,216,o),
(211,229,o),
(178,242,cs),
(107,269,o),
(91,309,o),
(91,352,cs),
(91,436,o),
(158,468,o),
(236,468,cs),
(297,468,o),
(337,447,o),
(365,431,c),
(367,438,l)
);
}
);
width = 457;
},
{
anchors = (
{
name = bottom;
pos = (223,0);
},
{
name = top;
pos = (241,468);
},
{
name = topright;
pos = (400,468);
}
);
associatedMasterId = "FA91A8E1-7324-47F6-AE85-AED49CFCD01C";
background = {
shapes = (
{
closed = 1;
nodes = (
(128,7,o),
(165,-7,o),
(216,-7,cs),
(302,-7,o),
(367,32,o),
(367,121,cs),
(367,168,o),
(349,217,o),
(278,240,cs),
(246,250,o),
(195,260,o),
(168,269,cs),
(112,289,o),
(96,324,o),
(96,365,cs),
(96,442,o),
(153,468,o),
(232,468,cs),
(290,468,o),
(335,452,o),
(368,432,c),
(370,439,l),
(340,458,o),
(294,475,o),
(233,475,cs),
(148,475,o),
(89,445,o),
(89,365,cs),
(89,321,o),
(108,282,o),
(165,263,cs),
(197,252,o),
(247,243,o),
(276,233,cs),
(344,209,o),
(360,166,o),
(360,121,cs),
(360,35,o),
(297,0,o),
(216,0,cs),
(167,0,o),
(131,13,o),
(105,31,c),
(102,25,l)
);
}
);
};
layerId = "B0B02AB2-C46A-40FD-96FE-A203AD399DD3";
name = "May 28 20, 16:07";
shapes = (
{
closed = 1;
nodes = (
(340,456,o),
(298,475,o),
(236,475,cs),
(149,475,o),
(82,438,o),
(82,351,cs),
(82,302,o),
(103,261,o),
(180,233,cs),
(212,221,o),
(264,209,o),
(291,199,cs),
(357,175,o),
(373,143,o),
(373,103,cs),
(373,25,o),
(306,0,o),
(227,0,cs),
(169,0,o),
(118,14,o),
(79,37,c),
(77,30,l),
(112,9,o),
(165,-7,o),
(226,-7,cs),
(311,-7,o),
(380,22,o),
(380,102,cs),
(380,146,o),
(360,182,o),
(294,205,cs),
(261,216,o),
(212,228,o),
(183,239,cs),
(107,268,o),
(89,304,o),
(89,351,cs),
(89,435,o),
(154,468,o),
(236,468,cs),
(296,468,o),
(337,450,o),
(365,434,c),
(367,440,l)
);
}
);
width = 461;
}
);
unicode = 115;
}
{
glyphname = t;
kernLeft = t;
kernRight = t;
layers = (
{
anchors = (
{
name = bottom;
pos = (216,0);
},
{
name = center;
pos = (204,245);
},
{
name = top;
pos = (204,624);
},
{
name = topright;
pos = (278,490);
}
);
background = {
shapes = (
{
closed = 0;
nodes = (
(394,167,l),
(381,15,l)
);
}
);
};
layerId = "BFFFD157-90D3-4B85-B99D-9A2F366F03CA";
shapes = (
{
closed = 1;
nodes = (
(315,171,o),
(293,178,o),
(293,225,cs),
(293,312,l),
(394,312,l),
(394,490,l),
(292,490,l),
(292,636,l),
(116,636,l),
(83,493,l),
(11,486,l),
(11,336,l),
(73,327,l),
(73,182,ls),
(73,51,o),
(112,-12,o),
(253,-12,cs),
(296,-12,o),
(351,-6,o),
(387,9,c),
(398,175,l),
(381,172,o),
(365,171,o),
(352,171,cs)
);
}
);
width = 416;
},
{
anchors = (
{
name = bottom;
pos = (214,0);
},
{
name = center;
pos = (191,240);
},
{
name = top;
pos = (163,608);
},
{
name = topright;
pos = (201,480);
}
);
background = {
shapes = (
{
closed = 1;
nodes = (
(227,81,o),
(206,99,o),
(206,143,cs),
(206,390,l),
(336,390,l),
(336,480,l),
(206,480,l),
(206,639,l),
(129,639,l),
(117,481,l),
(30,474,l),
(30,400,l),
(116,392,l),
(116,145,ls),
(116,39,o),
(163,-7,o),
(256,-7,cs),
(276,-7,o),
(301,-5,o),
(329,2,c),
(336,86,l),
(314,82,o),
(292,81,o),
(279,81,cs)
);
}
);
};
hints = (
{
horizontal = 1;
options = 4;
origin = (0,6);
stem = 1;
target = (0,3);
type = TTStem;
},
{
horizontal = 1;
options = 4;
origin = (0,6);
target = (0,9);
type = TTShift;
},
{
horizontal = 1;
options = 4;
origin = (0,3);
target = (0,12);
type = TTShift;
},
{
horizontal = 1;
options = 4;
origin = (0,16);
stem = 1;
target = (0,23);
type = TTStem;
},
{
horizontal = 1;
origin = (0,7);
type = TTSnap;
}
);
layerId = "3E7589AA-8194-470F-8E2F-13C1C581BE24";
shapes = (
{
closed = 1;
nodes = (
(227,81,o),
(206,99,o),
(206,143,cs),
(206,390,l),
(336,390,l),
(336,480,l),
(206,480,l),
(206,639,l),
(133,639,l),
(119,481,l),
(30,474,l),
(30,400,l),
(116,392,l),
(116,145,ls),
(116,39,o),
(163,-7,o),
(256,-7,cs),
(276,-7,o),
(301,-5,o),
(329,2,c),
(336,86,l),
(314,82,o),
(292,81,o),
(279,81,cs)
);
}
);
width = 377;
},
{
anchors = (
{
name = bottom;
pos = (224,0);
},
{
name = center;
pos = (181,240);
},
{
name = top;
pos = (153,608);
},
{
name = topright;
pos = (291,480);
}
);
associatedMasterId = "3E7589AA-8194-470F-8E2F-13C1C581BE24";
background = {
shapes = (
{
closed = 1;
nodes = (
(23,480,l),
(14,392,l),
(332,392,l),
(332,480,l)
);
}
);
};
layerId = "70674DFC-6F40-4257-9185-184F541A5ED7";
name = "Nov 17 16, 14:13";
shapes = (
{
closed = 1;
nodes = (
(331,90,l),
(304,85,o),
(280,83,o),
(262,83,cs),
(215,83,o),
(196,101,o),
(196,145,cs),
(196,639,l),
(106,625,l),
(106,147,ls),
(106,41,o),
(153,-5,o),
(246,-5,cs),
(266,-5,o),
(291,-3,o),
(319,2,c)
);
},
{
closed = 1;
nodes = (
(23,480,l),
(15,402,l),
(149,392,l),
(330,392,l),
(330,480,l)
);
}
);
width = 361;
},
{
anchors = (
{
name = bottom;
pos = (218,0);
},
{
name = center;
pos = (174,235);
},
{
name = top;
pos = (133,607);
},
{
name = topright;
pos = (238,470);
}
);
associatedMasterId = "FA91A8E1-7324-47F6-AE85-AED49CFCD01C";
hints = (
{
horizontal = 1;
options = 4;
origin = (0,12);
stem = 1;
target = (0,3);
type = TTStem;
},
{
horizontal = 1;
options = 4;
origin = (1,0);
stem = 1;
target = (1,2);
type = TTStem;
}
);
layerId = "C2D35DD1-04A8-46FD-954E-5E5F5C2C471E";
name = "Nov 17 16, 14:14";
shapes = (
{
closed = 1;
nodes = (
(298,25,l),
(274,14,o),
(247,11,o),
(228,11,cs),
(168,11,o),
(143,43,o),
(143,110,cs),
(144,636,l),
(127,628,l),
(126,111,ls),
(126,31,o),
(160,-5,o),
(226,-5,cs),
(248,-5,o),
(277,-1,o),
(296,8,c)
);
},
{
closed = 1;
nodes = (
(29,470,l),
(27,455,l),
(133,453,l),
(295,453,l),
(295,470,l)
);
}
);
width = 334;
},
{
anchors = (
{
name = bottom;
pos = (234,0);
},
{
name = center;
pos = (202,245);
},
{
name = top;
pos = (202,624);
},
{
name = topright;
pos = (366,490);
}
);
associatedMasterId = "BFFFD157-90D3-4B85-B99D-9A2F366F03CA";
background = {
shapes = (
{
closed = 0;
nodes = (
(397,490,l),
(385,315,l)
);
}
);
};
layerId = "BF3F800E-9CDB-4850-A024-0088397D46A3";
name = "Nov 17 16, 14:15";
shapes = (
{
closed = 1;
nodes = (
(390,190,l),
(373,183,o),
(355,181,o),
(342,181,cs),
(308,181,o),
(291,196,o),
(291,243,cs),
(290,636,l),
(70,610,l),
(71,182,ls),
(71,71,o),
(117,-8,o),
(262,-8,cs),
(301,-8,o),
(345,-1,o),
(380,13,c)
);
},
{
closed = 1;
nodes = (
(12,490,l),
(2,325,l),
(166,305,l),
(391,305,l),
(391,490,l)
);
}
);
width = 406;
},
{
anchors = (
{
name = bottom;
pos = (199,0);
},
{
name = center;
pos = (175,234);
},
{
name = top;
pos = (133,607);
},
{
name = topright;
pos = (173,468);
}
);
layerId = "FA91A8E1-7324-47F6-AE85-AED49CFCD01C";
shapes = (
{
closed = 1;
nodes = (
(168,1,o),
(140,35,o),
(140,106,cs),
(140,461,l),
(292,461,l),
(292,468,l),
(140,468,l),
(140,630,l),
(134,630,l),
(133,468,l),
(32,467,l),
(32,462,l),
(133,461,l),
(133,106,ls),
(133,29,o),
(164,-6,o),
(226,-6,cs),
(248,-6,o),
(275,-3,o),
(297,9,c),
(297,16,l),
(273,4,o),
(245,1,o),
(226,1,cs)
);
}
);
width = 349;
},
{
anchors = (
{
name = bottom;
pos = (218,0);
},
{
name = center;
pos = (175,240);
},
{
name = top;
pos = (147,608);
},
{
name = topright;
pos = (185,480);
}
);
associatedMasterId = "3E7589AA-8194-470F-8E2F-13C1C581BE24";
background = {
shapes = (
{
closed = 1;
nodes = (
(209,83,o),
(190,101,o),
(190,145,cs),
(190,390,l),
(320,390,l),
(320,480,l),
(190,480,l),
(190,639,l),
(100,625,l),
(100,480,l),
(17,480,l),
(10,408,l),
(56,403,ls),
(90,399,o),
(100,390,o),
(100,359,cs),
(100,147,ls),
(100,41,o),
(147,-5,o),
(240,-5,cs),
(260,-5,o),
(285,-3,o),
(313,2,c),
(325,90,l),
(298,85,o),
(274,83,o),
(256,83,cs)
);
}
);
};
layerId = "1A89BD02-2DB7-4B0D-822C-C2896688629A";
name = "Dec 20 16, 18:01";
shapes = (
{
closed = 1;
nodes = (
(209,81,o),
(190,99,o),
(190,143,cs),
(190,390,l),
(320,390,l),
(320,480,l),
(190,480,l),
(190,639,l),
(111,639,l),
(103,480,l),
(17,480,l),
(10,417,l),
(48,410,o),
(78,402,o),
(100,395,c),
(100,145,ls),
(100,39,o),
(147,-7,o),
(240,-7,cs),
(260,-7,o),
(285,-5,o),
(313,0,c),
(325,88,l),
(298,83,o),
(274,81,o),
(256,81,cs)
);
}
);
width = 354;
},
{
anchors = (
{
name = bottom;
pos = (237,0);
},
{
name = center;
pos = (205,245);
},
{
name = top;
pos = (205,624);
},
{
name = topright;
pos = (279,490);
}
);
associatedMasterId = "BFFFD157-90D3-4B85-B99D-9A2F366F03CA";
background = {
shapes = (
{
closed = 1;
nodes = (
(311,177,o),
(294,192,o),
(294,239,cs),
(294,302,l),
(395,302,l),
(395,490,l),
(293,490,l),
(293,636,l),
(90,614,l),
(88,578,o),
(84,529,o),
(78,490,c),
(15,490,l),
(5,343,l),
(31,336,o),
(57,326,o),
(74,317,c),
(74,178,ls),
(74,67,o),
(120,-12,o),
(265,-12,cs),
(304,-12,o),
(348,-5,o),
(383,9,c),
(393,186,l),
(376,179,o),
(358,177,o),
(345,177,cs)
);
}
);
};
layerId = "9A375CF3-BE20-457D-A3A5-32D458AC9177";
name = "Dec 20 16, 18:03";
shapes = (
{
closed = 1;
nodes = (
(311,177,o),
(294,192,o),
(294,239,cs),
(294,302,l),
(395,302,l),
(395,490,l),
(293,490,l),
(293,636,l),
(91,636,l),
(80,490,l),
(15,490,l),
(5,343,l),
(31,336,o),
(57,326,o),
(74,317,c),
(74,178,ls),
(74,67,o),
(120,-12,o),
(265,-12,cs),
(304,-12,o),
(348,-5,o),
(383,9,c),
(393,186,l),
(376,179,o),
(358,177,o),
(345,177,cs)
);
}
);
width = 415;
}
);
unicode = 116;
}
{
glyphname = u;
kernLeft = u;
kernRight = u;
layers = (
{
anchors = (
{
name = "#exit";
pos = (536,410);
},
{
name = bottom;
pos = (286,0);
},
{
name = ogonek;
pos = (546,0);
},
{
name = top;
pos = (284,490);
},
{
name = topright;
pos = (546,490);
}
);
background = {
shapes = (
{
closed = 1;
nodes = (
(326,465,l),
(326,223,ls),
(326,184,o),
(312,167,o),
(284,167,cs),
(258,167,o),
(250,182,o),
(250,213,cs),
(250,465,l),
(30,465,l),
(30,148,ls),
(30,12,o),
(94,-36,o),
(205,-36,cs),
(300,-36,o),
(351,-1,o),
(378,39,c),
(388,39,l),
(411,-25,l),
(546,-25,l),
(546,465,l)
);
}
);
};
layerId = "BFFFD157-90D3-4B85-B99D-9A2F366F03CA";
shapes = (
{
closed = 1;
nodes = (
(292,-14,o),
(346,10,o),
(378,46,c),
(389,46,l),
(408,0,l),
(546,0,l),
(546,490,l),
(326,490,l),
(326,228,ls),
(326,187,o),
(303,177,o),
(284,177,cs),
(265,177,o),
(250,187,o),
(250,215,cs),
(250,490,l),
(30,490,l),
(30,186,ls),
(30,35,o),
(103,-14,o),
(215,-14,cs)
);
}
);
width = 578;
},
{
anchors = (
{
name = "#exit";
pos = (463,410);
},
{
name = bottom;
pos = (256,0);
},
{
name = ogonek;
pos = (463,0);
},
{
name = top;
pos = (270,480);
},
{
name = topright;
pos = (520,480);
}
);
background = {
shapes = (
{
closed = 1;
nodes = (
(372,475,l),
(372,216,ls),
(372,125,o),
(332,78,o),
(254,78,cs),
(185,78,o),
(159,115,o),
(159,186,cs),
(159,475,l),
(69,475,l),
(69,161,ls),
(69,70,o),
(97,-15,o),
(235,-15,cs),
(323,-15,o),
(365,21,o),
(384,56,c),
(392,56,l),
(400,-5,l),
(462,-5,l),
(462,475,l)
);
}
);
};
hints = (
{
horizontal = 1;
origin = (0,7);
type = TTSnap;
},
{
horizontal = 1;
origin = (0,15);
type = TTSnap;
},
{
horizontal = 1;
origin = (0,4);
type = TTSnap;
},
{
horizontal = 1;
options = 4;
origin = (0,20);
stem = 1;
target = (0,11);
type = TTStem;
}
);
layerId = "3E7589AA-8194-470F-8E2F-13C1C581BE24";
shapes = (
{
closed = 1;
nodes = (
(324,-11,o),
(364,23,o),
(379,55,c),
(387,55,l),
(399,0,l),
(463,0,l),
(463,480,l),
(373,480,l),
(373,208,ls),
(373,122,o),
(335,78,o),
(258,78,cs),
(189,78,o),
(160,113,o),
(160,184,cs),
(160,480,l),
(70,480,l),
(70,167,ls),
(70,76,o),
(100,-11,o),
(236,-11,cs)
);
}
);
width = 538;
},
{
anchors = (
{
name = "#exit";
pos = (428,410);
},
{
name = bottom;
pos = (267,0);
},
{
name = ogonek;
pos = (428,0);
},
{
name = top;
pos = (271,468);
},
{
name = topright;
pos = (512,468);
}
);
background = {
shapes = (
{
closed = 1;
nodes = (
(420,468,l),
(420,186,ls),
(420,54,o),
(353,0,o),
(257,0,cs),
(165,0,o),
(121,48,o),
(121,165,cs),
(121,468,l),
(114,468,l),
(114,164,ls),
(114,45,o),
(160,-7,o),
(256,-7,cs),
(357,-7,o),
(409,51,o),
(420,125,c),
(421,125,l),
(421,0,l),
(427,0,l),
(427,468,l)
);
}
);
};
layerId = "FA91A8E1-7324-47F6-AE85-AED49CFCD01C";
shapes = (
{
closed = 1;
nodes = (
(355,-7,o),
(410,46,o),
(421,115,c),
(423,115,l),
(423,0,l),
(428,0,l),
(428,468,l),
(421,468,l),
(421,166,ls),
(421,48,o),
(348,0,o),
(258,0,cs),
(176,0,o),
(101,39,o),
(101,170,cs),
(101,468,l),
(94,468,l),
(94,168,ls),
(94,35,o),
(170,-7,o),
(258,-7,cs)
);
}
);
width = 526;
}
);
metricLeft = "=|m";
metricRight = "=|m";
unicode = 117;
}
{
glyphname = w;
kernLeft = v;
kernRight = v;
layers = (
{
anchors = (
{
name = bottom;
pos = (426,0);
},
{
name = top;
pos = (426,490);
},
{
name = topright;
pos = (835,490);
}
);
background = {
shapes = (
{
closed = 1;
nodes = (
(236,0,l),
(236,247,ls),
(236,271,o),
(250,283,o),
(269,283,cs),
(277,283,o),
(287,281,o),
(296,276,c),
(296,0,l),
(516,0,l),
(516,246,ls),
(516,272,o),
(530,283,o),
(550,283,cs),
(559,283,o),
(570,281,o),
(576,276,c),
(576,0,l),
(796,0,l),
(796,447,l),
(756,477,o),
(694,500,o),
(619,500,cs),
(519,500,o),
(458,459,o),
(431,385,c),
(452,401,l),
(431,464,o),
(382,502,o),
(302,502,cs),
(218,502,o),
(171,454,o),
(159,388,c),
(179,366,l),
(144,490,l),
(16,490,l),
(16,0,l)
);
}
);
};
layerId = "BFFFD157-90D3-4B85-B99D-9A2F366F03CA";
shapes = (
{
closed = 1;
nodes = (
(603,189,l),
(591,189,l),
(538,480,l),
(329,480,l),
(279,189,l),
(267,189,l),
(238,490,l),
(6,490,l),
(88,0,l),
(377,0,l),
(418,192,l),
(427,192,l),
(476,0,l),
(769,0,l),
(845,490,l),
(629,490,l)
);
}
);
width = 851;
},
{
anchors = (
{
name = bottom;
pos = (393,0);
},
{
name = top;
pos = (393,480);
},
{
name = topright;
pos = (786,480);
}
);
hints = (
{
horizontal = 1;
origin = (0,6);
type = TTSnap;
},
{
horizontal = 1;
origin = (0,15);
type = TTSnap;
},
{
horizontal = 1;
options = 4;
origin = (0,3);
stem = 1;
target = (0,10);
type = TTStem;
},
{
horizontal = 1;
options = 4;
origin = (0,8);
stem = 1;
target = (0,5);
type = TTStem;
},
{
horizontal = 1;
options = 4;
origin = (0,5);
target = (0,1);
type = TTShift;
},
{
horizontal = 1;
options = 4;
origin = (0,8);
target = (0,12);
type = TTShift;
}
);
layerId = "3E7589AA-8194-470F-8E2F-13C1C581BE24";
shapes = (
{
closed = 1;
nodes = (
(586,86,l),
(576,86,l),
(446,470,l),
(341,470,l),
(226,86,l),
(216,86,l),
(136,480,l),
(40,480,l),
(153,0,l),
(284,0,l),
(393,360,l),
(399,360,l),
(513,0,l),
(644,0,l),
(756,480,l),
(661,480,l)
);
}
);
width = 796;
},
{
anchors = (
{
name = bottom;
pos = (389,0);
},
{
name = top;
pos = (389,468);
},
{
name = topright;
pos = (762,468);
}
);
layerId = "FA91A8E1-7324-47F6-AE85-AED49CFCD01C";
shapes = (
{
closed = 1;
nodes = (
(568,8,l),
(565,8,l),
(394,458,l),
(384,458,l),
(213,8,l),
(210,8,l),
(65,468,l),
(57,468,l),
(205,0,l),
(218,0,l),
(388,449,l),
(389,449,l),
(560,0,l),
(573,0,l),
(719,468,l),
(711,468,l)
);
}
);
width = 776;
}
);
metricLeft = "=v*1.07";
metricRight = "=v*1.07";
unicode = 119;
}
{
glyphname = z;
kernLeft = z;
kernRight = z;
layers = (
{
anchors = (
{
name = bottom;
pos = (232,0);
},
{
name = top;
pos = (232,490);
},
{
name = topright;
pos = (444,490);
}
);
layerId = "BFFFD157-90D3-4B85-B99D-9A2F366F03CA";
shapes = (
{
closed = 1;
nodes = (
(189,186,l),
(226,109,l),
(428,360,l),
(428,490,l),
(34,490,l),
(34,302,l),
(255,302,l),
(219,378,l),
(18,134,l),
(18,0,l),
(436,0,l),
(436,186,l)
);
}
);
width = 452;
},
{
anchors = (
{
name = bottom;
pos = (228,0);
},
{
name = top;
pos = (228,480);
},
{
name = topright;
pos = (431,480);
}
);
background = {
shapes = (
{
closed = 1;
nodes = (
(268,-11,o),
(307,15,o),
(327,57,c),
(335,57,l),
(344,0,l),
(416,0,l),
(416,480,l),
(326,480,l),
(326,182,ls),
(326,114,o),
(291,77,o),
(227,77,cs),
(164,77,o),
(128,114,o),
(128,182,cs),
(128,480,l),
(38,480,l),
(38,176,ls),
(38,75,o),
(84,-11,o),
(200,-11,cs)
);
}
);
};
hints = (
{
horizontal = 1;
options = 4;
origin = (0,4);
stem = 1;
target = (0,5);
type = TTStem;
},
{
horizontal = 1;
options = 4;
origin = (0,10);
stem = 1;
target = (0,11);
type = TTStem;
},
{
horizontal = 1;
origin = (0,4);
other1 = (0,2);
target = (0,11);
type = TTInterpolate;
},
{
horizontal = 1;
origin = (0,5);
other1 = (0,8);
target = (0,10);
type = TTInterpolate;
}
);
layerId = "3E7589AA-8194-470F-8E2F-13C1C581BE24";
shapes = (
{
closed = 1;
nodes = (
(128,84,l),
(141,53,l),
(399,405,l),
(399,480,l),
(66,480,l),
(66,396,l),
(321,396,l),
(308,427,l),
(50,74,l),
(50,0,l),
(407,0,l),
(407,84,l)
);
}
);
width = 457;
},
{
anchors = (
{
name = bottom;
pos = (220,0);
},
{
name = top;
pos = (220,468);
},
{
name = topright;
pos = (414,468);
}
);
layerId = "FA91A8E1-7324-47F6-AE85-AED49CFCD01C";
shapes = (
{
closed = 1;
nodes = (
(75,7,l),
(76,4,l),
(373,461,l),
(373,468,l),
(85,468,l),
(85,461,l),
(367,461,l),
(366,464,l),
(69,6,l),
(69,0,l),
(381,0,l),
(381,7,l)
);
}
);
width = 447;
}
);
unicode = 122;
}
{
glyphname = braceright;
layers = (
{
hints = (
{
horizontal = 1;
options = 4;
origin = (0,3);
stem = 1;
target = (0,23);
type = TTStem;
},
{
horizontal = 1;
options = 4;
origin = (0,23);
stem = 1;
target = (0,23);
type = TTStem;
},
{
horizontal = 1;
options = 4;
origin = (0,12);
stem = 1;
target = (0,23);
type = TTStem;
}
);
layerId = "3E7589AA-8194-470F-8E2F-13C1C581BE24";
shapes = (
{
closed = 1;
nodes = (
(208,648,o),
(159,673,o),
(64,685,c),
(73,773,l),
(237,761,o),
(298,667,o),
(298,556,cs),
(298,518,o),
(295,489,o),
(295,441,cs),
(295,379,o),
(314,370,o),
(365,366,c),
(365,289,l),
(316,284,o),
(294,268,o),
(294,212,cs),
(294,169,o),
(299,120,o),
(299,71,cs),
(299,-43,o),
(236,-123,o),
(73,-133,c),
(64,-44,l),
(155,-36,o),
(208,-15,o),
(208,86,cs),
(208,121,o),
(204,168,o),
(204,212,cs),
(204,276,o),
(233,309,o),
(277,317,c),
(277,322,l),
(234,333,o),
(205,353,o),
(205,436,cs),
(205,472,o),
(208,513,o),
(208,547,cs)
);
}
);
width = 415;
},
{
layerId = "BFFFD157-90D3-4B85-B99D-9A2F366F03CA";
shapes = (
{
closed = 1;
nodes = (
(156,542,o),
(132,557,o),
(36,563,c),
(51,800,l),
(328,786,o),
(376,687,o),
(376,593,cs),
(376,547,o),
(369,514,o),
(369,476,cs),
(369,437,o),
(386,416,o),
(438,410,c),
(438,221,l),
(387,216,o),
(369,205,o),
(369,152,cs),
(369,99,o),
(377,60,o),
(377,7,cs),
(377,-111,o),
(309,-200,o),
(51,-200,c),
(36,35,l),
(122,35,o),
(156,52,o),
(156,112,cs),
(156,144,o),
(152,174,o),
(152,203,cs),
(152,267,o),
(207,281,o),
(251,284,c),
(251,294,l),
(207,296,o),
(152,298,o),
(152,393,cs),
(152,423,o),
(156,457,o),
(156,490,cs)
);
}
);
width = 488;
},
{
layerId = "FA91A8E1-7324-47F6-AE85-AED49CFCD01C";
shapes = (
{
closed = 1;
nodes = (
(251,696,o),
(195,767,o),
(79,768,c),
(80,774,l),
(196,776,o),
(258,701,o),
(258,584,cs),
(258,546,o),
(251,504,o),
(251,430,cs),
(251,385,o),
(252,335,o),
(324,333,c),
(324,321,l),
(254,318,o),
(250,277,o),
(250,225,cs),
(250,155,o),
(256,99,o),
(256,50,cs),
(256,-70,o),
(200,-120,o),
(80,-120,c),
(79,-113,l),
(198,-112,o),
(249,-67,o),
(249,48,cs),
(249,93,o),
(243,150,o),
(243,225,cs),
(243,299,o),
(262,322,o),
(317,326,c),
(317,328,l),
(262,333,o),
(244,357,o),
(244,430,cs),
(244,507,o),
(251,546,o),
(251,587,cs)
);
}
);
width = 374;
}
);
metricLeft = "=|parenleft";
metricRight = "=|braceleft";
unicode = 125;
}
{
glyphname = yen;
layers = (
{
anchors = (
{
name = bottom;
pos = (382,0);
},
{
name = top;
pos = (382,700);
},
{
name = topright;
pos = (690,700);
}
);
background = {
shapes = (
{
closed = 1;
nodes = (
(478,417,l),
(432,333,l),
(613,333,l),
(628,417,l)
);
},
{
closed = 1;
nodes = (
(117,254,l),
(105,170,l),
(613,170,l),
(628,254,l)
);
},
{
closed = 1;
nodes = (
(117,417,l),
(105,333,l),
(327,333,l),
(284,417,l)
);
}
);
};
hints = (
{
horizontal = 1;
origin = (4,2);
type = TTSnap;
},
{
horizontal = 1;
origin = (3,7);
type = TTSnap;
},
{
horizontal = 1;
options = 4;
origin = (3,7);
target = (3,3);
type = TTShift;
}
);
layerId = "3E7589AA-8194-470F-8E2F-13C1C581BE24";
shapes = (
{
closed = 1;
nodes = (
(127,417,l),
(115,333,l),
(327,333,l),
(284,417,l)
);
},
{
closed = 1;
nodes = (
(127,254,l),
(115,170,l),
(623,170,l),
(638,254,l)
);
},
{
closed = 1;
nodes = (
(479,417,l),
(432,333,l),
(623,333,l),
(638,417,l)
);
},
{
closed = 1;
nodes = (
(349,179,l),
(417,179,l),
(670,700,l),
(571,700,l),
(393,324,l),
(378,324,l),
(195,700,l),
(93,700,l)
);
},
{
closed = 1;
nodes = (
(424,280,l),
(341,280,l),
(336,0,l),
(429,0,l)
);
}
);
width = 757;
},
{
anchors = (
{
name = bottom;
pos = (391,0);
},
{
name = top;
pos = (411,700);
},
{
name = topright;
pos = (720,700);
}
);
background = {
shapes = (
{
closed = 1;
nodes = (
(107,390,l),
(95,263,l),
(683,263,l),
(698,390,l)
);
},
{
closed = 1;
nodes = (
(107,227,l),
(95,100,l),
(683,100,l),
(698,227,l)
);
}
);
};
layerId = "BFFFD157-90D3-4B85-B99D-9A2F366F03CA";
shapes = (
{
closed = 1;
nodes = (
(107,390,l),
(95,263,l),
(332,263,l),
(210,390,l)
);
},
{
closed = 1;
nodes = (
(107,227,l),
(95,100,l),
(683,100,l),
(698,227,l)
);
},
{
closed = 1;
nodes = (
(559,390,l),
(456,263,l),
(683,263,l),
(698,390,l)
);
},
{
closed = 1;
nodes = (
(295,150,l),
(516,150,l),
(737,700,l),
(491,700,l),
(414,425,l),
(404,425,l),
(327,700,l),
(61,700,l)
);
},
{
closed = 1;
nodes = (
(516,205,l),
(295,205,l),
(287,0,l),
(524,0,l)
);
}
);
width = 779;
},
{
anchors = (
{
name = bottom;
pos = (368,0);
},
{
name = top;
pos = (367,700);
},
{
name = topright;
pos = (638,700);
}
);
layerId = "FA91A8E1-7324-47F6-AE85-AED49CFCD01C";
shapes = (
{
closed = 1;
nodes = (
(137,343,l),
(135,335,l),
(308,335,l),
(305,343,l)
);
},
{
closed = 1;
nodes = (
(137,180,l),
(135,172,l),
(592,172,l),
(596,180,l)
);
},
{
closed = 1;
nodes = (
(434,343,l),
(431,335,l),
(592,335,l),
(596,343,l)
);
},
{
closed = 1;
nodes = (
(371,207,l),
(368,207,l),
(627,700,l),
(618,700,l),
(372,230,l),
(368,230,l),
(121,700,l),
(112,700,l)
);
},
{
closed = 1;
nodes = (
(373,226,l),
(366,226,l),
(365,0,l),
(373,0,l)
);
}
);
width = 738;
}
);
unicode = 165;
}
{
glyphname = brokenbar;
layers = (
{
hints = (
{
horizontal = 1;
origin = (0,0);
type = TTSnap;
},
{
horizontal = 1;
origin = (0,3);
type = TTSnap;
},
{
horizontal = 1;
origin = (1,0);
type = TTSnap;
},
{
horizontal = 1;
origin = (1,3);
type = TTSnap;
}
);
layerId = "3E7589AA-8194-470F-8E2F-13C1C581BE24";
shapes = (
{
closed = 1;
nodes = (
(185,773,l),
(95,773,l),
(95,384,l),
(185,384,l)
);
},
{
closed = 1;
nodes = (
(185,256,l),
(95,256,l),
(95,-133,l),
(185,-133,l)
);
}
);
width = 280;
},
{
background = {
shapes = (
{
closed = 1;
nodes = (
(269,800,l),
(51,800,l),
(51,-200,l),
(269,-200,l)
);
}
);
};
layerId = "BFFFD157-90D3-4B85-B99D-9A2F366F03CA";
shapes = (
{
closed = 1;
nodes = (
(269,800,l),
(51,800,l),
(51,384,l),
(269,384,l)
);
},
{
closed = 1;
nodes = (
(269,216,l),
(51,216,l),
(51,-200,l),
(269,-200,l)
);
}
);
width = 320;
},
{
layerId = "FA91A8E1-7324-47F6-AE85-AED49CFCD01C";
shapes = (
{
closed = 1;
nodes = (
(122,763,l),
(115,763,l),
(115,391,l),
(122,391,l)
);
},
{
closed = 1;
nodes = (
(122,251,l),
(115,251,l),
(115,-120,l),
(122,-120,l)
);
}
);
width = 237;
}
);
metricRight = "=|";
unicode = 166;
}
{
glyphname = section;
layers = (
{
background = {
shapes = (
{
closed = 1;
nodes = (
(163,410,l),
(120,376,o),
(91,324,o),
(91,257,cs),
(91,194,o),
(117,134,o),
(185,94,cs),
(216,76,o),
(276,57,o),
(341,35,cs),
(399,15,o),
(427,-13,o),
(427,-58,cs),
(427,-126,o),
(360,-145,o),
(297,-145,cs),
(231,-145,o),
(176,-123,o),
(133,-96,c),
(105,-183,l),
(156,-218,o),
(218,-236,o),
(287,-236,cs),
(452,-236,o),
(518,-166,o),
(518,-67,cs),
(518,15,o),
(474,75,o),
(370,120,cs),
(328,138,o),
(250,159,o),
(224,182,cs),
(194,209,o),
(184,239,o),
(184,267,cs),
(184,316,o),
(208,350,o),
(237,368,c)
);
}
);
};
guides = (
{
angle = 91;
pos = (524,89);
},
{
angle = 88;
pos = (87,57);
}
);
hints = (
{
horizontal = 1;
options = 4;
origin = (1,22);
stem = 2;
target = (1,15);
type = TTStem;
},
{
horizontal = 1;
options = 4;
origin = (0,22);
stem = 2;
target = (0,15);
type = TTStem;
},
{
horizontal = 1;
origin = (1,15);
other1 = (1,0);
target = (0,22);
type = TTInterpolate;
},
{
horizontal = 1;
origin = (1,22);
other1 = (0,31);
target = (0,15);
type = TTInterpolate;
},
{
horizontal = 1;
origin = (1,15);
other1 = (1,31);
target = (0,22);
type = TTInterpolate;
},
{
horizontal = 1;
origin = (1,22);
other1 = (1,7);
target = (0,15);
type = TTInterpolate;
}
);
layerId = "3E7589AA-8194-470F-8E2F-13C1C581BE24";
shapes = (
{
closed = 1;
nodes = (
(457,61,l),
(500,95,o),
(529,147,o),
(529,214,cs),
(529,277,o),
(504,340,o),
(429,380,cs),
(392,400,o),
(344,414,o),
(279,436,cs),
(221,456,o),
(201,488,o),
(201,528,cs),
(201,601,o),
(268,616,o),
(323,616,cs),
(389,616,o),
(444,594,o),
(487,567,c),
(515,654,l),
(464,689,o),
(402,707,o),
(328,707,cs),
(189,707,o),
(110,643,o),
(110,531,cs),
(110,462,o),
(137,398,o),
(250,351,cs),
(292,334,o),
(350,316,o),
(386,295,cs),
(428,271,o),
(435,233,o),
(435,206,cs),
(435,156,o),
(410,122,o),
(381,104,c)
);
},
{
closed = 1;
nodes = (
(171,408,l),
(120,369,o),
(89,318,o),
(89,252,cs),
(89,184,o),
(121,118,o),
(217,80,cs),
(262,62,o),
(303,51,o),
(353,33,cs),
(415,11,o),
(431,-13,o),
(431,-45,cs),
(431,-107,o),
(368,-119,o),
(297,-119,cs),
(211,-119,o),
(156,-97,o),
(104,-65,c),
(80,-159,l),
(139,-194,o),
(215,-210,o),
(291,-210,cs),
(437,-210,o),
(524,-156,o),
(524,-46,cs),
(524,49,o),
(463,95,o),
(368,127,cs),
(335,138,o),
(298,147,o),
(264,161,cs),
(207,185,o),
(180,220,o),
(180,267,cs),
(180,311,o),
(204,341,o),
(240,368,c)
);
}
);
width = 612;
},
{
background = {
shapes = (
{
closed = 1;
nodes = (
(495,692,o),
(421,711,o),
(341,711,cs),
(125,711,o),
(56,581,o),
(56,446,cs),
(56,365,o),
(81,305,o),
(106,261,c),
(168,256,o),
(228,248,o),
(276,237,cs),
(319,227,o),
(329,218,o),
(329,203,cs),
(329,179,o),
(299,176,o),
(269,176,cs),
(210,176,o),
(140,186,o),
(75,211,c),
(56,29,l),
(125,0,o),
(212,-13,o),
(289,-13,cs),
(477,-13,o),
(556,67,o),
(556,207,cs),
(556,314,o),
(506,371,o),
(429,399,cs),
(393,412,o),
(340,423,o),
(284,428,c),
(282,435,o),
(281,443,o),
(281,450,cs),
(281,484,o),
(309,492,o),
(350,492,cs),
(404,492,o),
(462,478,o),
(511,456,c),
(543,667,l)
);
}
);
};
guides = (
{
angle = 91;
pos = (550,119);
},
{
angle = 88;
pos = (52,57);
}
);
layerId = "BFFFD157-90D3-4B85-B99D-9A2F366F03CA";
shapes = (
{
closed = 1;
nodes = (
(450,79,l),
(497,111,o),
(545,156,o),
(545,240,cs),
(545,302,o),
(519,375,o),
(427,407,cs),
(393,419,o),
(359,426,o),
(321,438,cs),
(285,449,o),
(273,460,o),
(273,476,cs),
(273,492,o),
(287,502,o),
(340,502,cs),
(397,502,o),
(453,489,o),
(511,466,c),
(543,667,l),
(482,698,o),
(407,711,o),
(341,711,cs),
(108,711,o),
(65,571,o),
(65,480,cs),
(65,401,o),
(97,327,o),
(166,302,cs),
(215,284,o),
(248,275,o),
(300,259,cs),
(341,247,o),
(349,227,o),
(349,210,cs),
(349,193,o),
(340,178,o),
(324,159,c)
);
},
{
closed = 1;
nodes = (
(145,343,l),
(90,317,o),
(58,273,o),
(58,205,cs),
(58,145,o),
(81,97,o),
(146,65,cs),
(182,47,o),
(230,31,o),
(265,19,cs),
(317,2,o),
(334,-3,o),
(334,-15,cs),
(334,-30,o),
(309,-32,o),
(280,-32,cs),
(194,-32,o),
(122,-10,o),
(61,14,c),
(42,-168,l),
(111,-197,o),
(191,-210,o),
(270,-210,cs),
(484,-210,o),
(555,-124,o),
(555,-15,cs),
(555,91,o),
(482,124,o),
(428,143,cs),
(393,155,o),
(346,167,o),
(309,178,cs),
(279,187,o),
(267,202,o),
(267,225,cs),
(267,245,o),
(276,266,o),
(303,289,c)
);
}
);
width = 596;
},
{
associatedMasterId = "3E7589AA-8194-470F-8E2F-13C1C581BE24";
attr = {
coordinates = (
155
);
};
background = {
shapes = (
{
closed = 1;
nodes = (
(464,70,l),
(504,103,o),
(538,152,o),
(538,225,cs),
(538,290,o),
(512,358,o),
(429,394,cs),
(393,410,o),
(352,420,o),
(301,437,cs),
(254,453,o),
(237,474,o),
(237,502,cs),
(237,547,o),
(278,559,o),
(332,559,cs),
(394,559,o),
(449,542,o),
(500,517,c),
(530,661,l),
(474,694,o),
(405,709,o),
(335,709,cs),
(149,709,o),
(83,607,o),
(83,506,cs),
(83,429,o),
(118,361,o),
(209,325,cs),
(254,307,o),
(300,296,o),
(344,277,cs),
(385,259,o),
(393,230,o),
(393,207,cs),
(393,174,o),
(377,150,o),
(354,131,c)
);
},
{
closed = 1;
nodes = (
(155,387,l),
(102,349,o),
(74,297,o),
(74,231,cs),
(74,166,o),
(102,107,o),
(182,72,cs),
(223,54,o),
(267,41,o),
(310,26,cs),
(367,7,o),
(383,-8,o),
(383,-30,cs),
(383,-69,o),
(339,-76,o),
(289,-76,cs),
(203,-76,o),
(140,-54,o),
(83,-26,c),
(62,-164,l),
(126,-196,o),
(204,-210,o),
(281,-210,cs),
(461,-210,o),
(540,-140,o),
(540,-31,cs),
(540,70,o),
(473,110,o),
(399,135,cs),
(365,147,o),
(323,157,o),
(287,170,cs),
(244,186,o),
(224,211,o),
(224,246,cs),
(224,278,o),
(241,304,o),
(272,329,c)
);
}
);
};
guides = (
{
angle = 91;
pos = (539,89);
},
{
angle = 88;
pos = (72,57);
}
);
hints = (
{
horizontal = 1;
options = 4;
place = (-210, 91);
stem = 2;
type = TTStem;
},
{
horizontal = 1;
options = 4;
place = (707, -91);
stem = 2;
type = TTStem;
},
{
horizontal = 1;
place = (414, 150);
type = TTInterpolate;
},
{
horizontal = 1;
place = (289, 150);
type = TTInterpolate;
},
{
horizontal = 1;
place = (159, 150);
type = TTInterpolate;
},
{
horizontal = 1;
place = (64, 150);
type = TTInterpolate;
}
);
layerId = "D7B12C24-D2AD-48A5-BA7D-ABB6B75E060B";
name = "{155}";
shapes = (
{
closed = 1;
nodes = (
(436,65,l),
(500,97,o),
(540,151,o),
(540,229,cs),
(540,311,o),
(500,368,o),
(404,403,cs),
(368,416,o),
(331,428,o),
(296,440,cs),
(256,454,o),
(238,470,o),
(238,500,cs),
(238,536,o),
(266,554,o),
(332,554,cs),
(394,554,o),
(448,539,o),
(500,512,c),
(530,661,l),
(474,694,o),
(405,709,o),
(338,709,cs),
(139,709,o),
(84,594,o),
(84,500,cs),
(84,420,o),
(124,350,o),
(180,324,cs),
(234,299,o),
(272,289,o),
(326,267,cs),
(373,248,o),
(384,218,o),
(384,193,cs),
(384,159,o),
(364,135,o),
(341,116,c)
);
},
{
closed = 1;
nodes = (
(169,389,l),
(98,352,o),
(76,287,o),
(76,230,cs),
(76,154,o),
(110,101,o),
(182,65,cs),
(223,45,o),
(272,30,o),
(315,15,cs),
(369,-2,o),
(381,-16,o),
(381,-34,cs),
(381,-65,o),
(344,-70,o),
(295,-70,cs),
(207,-70,o),
(140,-51,o),
(83,-26,c),
(62,-164,l),
(126,-196,o),
(204,-210,o),
(281,-210,cs),
(461,-210,o),
(539,-138,o),
(539,-29,cs),
(539,77,o),
(474,112,o),
(399,139,cs),
(365,151,o),
(323,166,o),
(287,182,cs),
(244,201,o),
(226,225,o),
(226,259,cs),
(226,288,o),
(239,310,o),
(259,331,c)
);
}
);
width = 600;
},
{
background = {
shapes = (
{
closed = 1;
nodes = (
(165,400,l),
(127,369,o),
(104,324,o),
(104,269,cs),
(104,210,o),
(131,152,o),
(205,123,cs),
(249,106,o),
(295,98,o),
(334,85,cs),
(412,59,o),
(464,20,o),
(464,-78,cs),
(464,-193,o),
(390,-240,o),
(274,-240,cs),
(208,-240,o),
(159,-219,o),
(124,-191,c),
(121,-198,l),
(152,-225,o),
(202,-248,o),
(273,-248,cs),
(389,-248,o),
(472,-201,o),
(472,-78,cs),
(472,21,o),
(418,65,o),
(337,91,cs),
(294,105,o),
(250,112,o),
(209,129,cs),
(135,160,o),
(112,212,o),
(112,269,cs),
(112,323,o),
(134,364,o),
(171,396,c)
);
}
);
};
guides = (
{
angle = 91;
pos = (485,89);
},
{
angle = 88;
pos = (96,57);
}
);
layerId = "FA91A8E1-7324-47F6-AE85-AED49CFCD01C";
shapes = (
{
closed = 1;
nodes = (
(410,55,l),
(461,90,o),
(484,137,o),
(484,192,cs),
(484,251,o),
(457,304,o),
(383,333,cs),
(339,351,o),
(293,364,o),
(254,377,cs),
(169,404,o),
(124,452,o),
(124,537,cs),
(124,645,o),
(198,699,o),
(313,699,cs),
(380,699,o),
(429,680,o),
(464,656,c),
(467,663,l),
(434,687,o),
(383,707,o),
(314,707,cs),
(199,707,o),
(116,653,o),
(116,537,cs),
(116,451,o),
(163,400,o),
(251,371,cs),
(294,357,o),
(338,344,o),
(379,327,cs),
(453,297,o),
(476,249,o),
(476,192,cs),
(476,138,o),
(454,95,o),
(404,59,c)
);
},
{
closed = 1;
nodes = (
(191,401,l),
(140,369,o),
(106,332,o),
(106,262,cs),
(106,196,o),
(136,146,o),
(221,117,cs),
(273,99,o),
(336,78,o),
(392,59,cs),
(450,38,o),
(478,-7,o),
(478,-64,cs),
(478,-172,o),
(381,-199,o),
(288,-199,cs),
(199,-199,o),
(139,-171,o),
(95,-140,c),
(92,-146,l),
(131,-176,o),
(195,-207,o),
(289,-207,cs),
(386,-207,o),
(486,-176,o),
(486,-64,cs),
(486,-4,o),
(457,45,o),
(395,66,cs),
(334,87,o),
(274,108,o),
(224,124,cs),
(144,150,o),
(114,198,o),
(114,262,cs),
(114,329,o),
(147,366,o),
(197,396,c)
);
}
);
width = 586;
}
);
metricLeft = "=S+10";
metricRight = "=S+10";
unicode = 167;
}
{
glyphname = copyright;
layers = (
{
hints = (
{
horizontal = 1;
options = 4;
origin = (1,11);
stem = 0;
target = (0,11);
type = TTStem;
},
{
horizontal = 1;
options = 4;
origin = (2,22);
stem = 0;
target = (2,3);
type = TTStem;
},
{
horizontal = 1;
options = 4;
origin = (2,16);
stem = 0;
target = (2,9);
type = TTStem;
},
{
horizontal = 1;
options = 4;
origin = (1,5);
stem = 0;
target = (0,5);
type = TTStem;
}
);
layerId = "3E7589AA-8194-470F-8E2F-13C1C581BE24";
shapes = (
{
closed = 1;
nodes = (
(248,78,o),
(149,177,o),
(149,350,cs),
(149,523,o),
(248,622,o),
(420,622,cs),
(592,622,o),
(691,523,o),
(691,350,cs),
(691,177,o),
(592,78,o),
(420,78,cs)
);
},
{
closed = 1;
nodes = (
(649,-11,o),
(780,120,o),
(780,350,cs),
(780,580,o),
(649,711,o),
(420,711,cs),
(191,711,o),
(60,580,o),
(60,350,cs),
(60,120,o),
(191,-11,o),
(420,-11,cs)
);
},
{
closed = 1;
nodes = (
(518,251,l),
(496,243,o),
(471,239,o),
(449,239,cs),
(385,239,o),
(351,273,o),
(351,347,cs),
(351,426,o),
(385,458,o),
(451,458,cs),
(473,458,o),
(496,454,o),
(517,446,c),
(529,528,l),
(506,538,o),
(474,545,o),
(439,545,cs),
(335,545,o),
(267,477,o),
(267,344,cs),
(267,219,o),
(332,153,o),
(431,153,cs),
(472,153,o),
(506,162,o),
(530,173,c)
);
}
);
width = 840;
},
{
layerId = "BFFFD157-90D3-4B85-B99D-9A2F366F03CA";
shapes = (
{
closed = 1;
nodes = (
(268,142,o),
(193,217,o),
(193,350,cs),
(193,483,o),
(268,558,o),
(400,558,cs),
(532,558,o),
(607,483,o),
(607,350,cs),
(607,217,o),
(532,142,o),
(400,142,cs)
);
},
{
closed = 1;
nodes = (
(629,-11,o),
(760,120,o),
(760,350,cs),
(760,580,o),
(636,711,o),
(400,711,cs),
(171,711,o),
(40,580,o),
(40,350,cs),
(40,120,o),
(171,-11,o),
(400,-11,cs)
);
},
{
closed = 1;
nodes = (
(488,322,l),
(477,316,o),
(461,313,o),
(444,313,cs),
(412,313,o),
(398,323,o),
(398,350,cs),
(398,375,o),
(412,384,o),
(443,384,cs),
(460,384,o),
(476,381,o),
(486,377,c),
(503,507,l),
(483,515,o),
(450,521,o),
(417,521,cs),
(310,521,o),
(248,463,o),
(248,350,cs),
(248,242,o),
(308,178,o),
(413,178,cs),
(447,178,o),
(483,184,o),
(505,194,c)
);
}
);
width = 800;
},
{
layerId = "FA91A8E1-7324-47F6-AE85-AED49CFCD01C";
shapes = (
{
closed = 1;
nodes = (
(226,-4,o),
(95,126,o),
(95,350,cs),
(95,574,o),
(226,704,o),
(448,704,cs),
(672,704,o),
(801,574,o),
(801,350,cs),
(801,126,o),
(672,-4,o),
(448,-4,cs)
);
},
{
closed = 1;
nodes = (
(677,-11,o),
(808,120,o),
(808,350,cs),
(808,580,o),
(677,711,o),
(448,711,cs),
(219,711,o),
(88,580,o),
(88,350,cs),
(88,120,o),
(219,-11,o),
(448,-11,cs)
);
},
{
closed = 1;
nodes = (
(567,190,l),
(535,169,o),
(498,160,o),
(459,160,cs),
(347,160,o),
(297,219,o),
(297,342,cs),
(297,462,o),
(344,531,o),
(452,531,cs),
(505,531,o),
(538,516,o),
(565,495,c),
(568,501,l),
(542,521,o),
(508,538,o),
(452,538,cs),
(339,538,o),
(289,465,o),
(289,343,cs),
(289,214,o),
(343,153,o),
(458,153,cs),
(502,153,o),
(539,163,o),
(569,185,c)
);
}
);
width = 896;
}
);
metricRight = "=|";
unicode = 169;
}
{
glyphname = plusminus;
layers = (
{
hints = (
{
horizontal = 1;
options = 4;
origin = (0,2);
target = (0,3);
type = TTStem;
},
{
horizontal = 1;
options = 4;
origin = (1,2);
target = (1,3);
type = TTStem;
},
{
horizontal = 1;
origin = (2,0);
type = TTSnap;
},
{
horizontal = 1;
origin = (2,3);
type = TTSnap;
}
);
layerId = "3E7589AA-8194-470F-8E2F-13C1C581BE24";
shapes = (
{
closed = 1;
nodes = (
(70,88,l),
(70,0,l),
(500,0,l),
(500,88,l)
);
},
{
closed = 1;
nodes = (
(70,425,l),
(70,337,l),
(500,337,l),
(500,425,l)
);
},
{
closed = 1;
nodes = (
(329,601,l),
(241,601,l),
(241,160,l),
(329,160,l)
);
}
);
width = 570;
},
{
layerId = "BFFFD157-90D3-4B85-B99D-9A2F366F03CA";
shapes = (
{
closed = 1;
nodes = (
(40,180,l),
(40,0,l),
(530,0,l),
(530,180,l)
);
},
{
closed = 1;
nodes = (
(40,540,l),
(40,330,l),
(530,330,l),
(530,540,l)
);
},
{
closed = 1;
nodes = (
(390,660,l),
(180,660,l),
(180,210,l),
(390,210,l)
);
}
);
width = 570;
},
{
layerId = "FA91A8E1-7324-47F6-AE85-AED49CFCD01C";
shapes = (
{
closed = 1;
nodes = (
(82,7,l),
(82,0,l),
(500,0,l),
(500,7,l)
);
},
{
closed = 1;
nodes = (
(82,310,l),
(82,303,l),
(500,303,l),
(500,310,l)
);
},
{
closed = 1;
nodes = (
(295,516,l),
(288,516,l),
(288,98,l),
(295,98,l)
);
}
);
width = 582;
}
);
metricLeft = minus;
metricRight = minus;
unicode = 177;
}
{
glyphname = micro;
layers = (
{
background = {
shapes = (
{
closed = 1;
nodes = (
(424,482,l),
(424,183,ls),
(424,91,o),
(375,39,o),
(288,39,cs),
(201,39,o),
(155,90,o),
(155,183,cs),
(155,482,l),
(104,482,l),
(104,-230,l),
(155,-230,l),
(155,39,l),
(187,9,o),
(229,-6,o),
(282,-6,cs),
(341,-6,o),
(388,15,o),
(424,57,c),
(424,0,l),
(475,0,l),
(475,482,l)
);
}
);
};
hints = (
{
horizontal = 1;
origin = (0,7);
type = TTSnap;
},
{
horizontal = 1;
origin = (0,23);
type = TTSnap;
},
{
horizontal = 1;
options = 4;
origin = (0,15);
stem = 1;
target = (0,3);
type = TTStem;
},
{
horizontal = 1;
origin = (0,10);
type = TTSnap;
}
);
layerId = "3E7589AA-8194-470F-8E2F-13C1C581BE24";
shapes = (
{
closed = 1;
nodes = (
(378,182,ls),
(378,111,o),
(339,77,o),
(272,77,cs),
(204,77,o),
(165,111,o),
(165,182,cs),
(165,480,l),
(75,480,l),
(75,-200,l),
(165,-200,l),
(165,71,l),
(151,37,l),
(182,3,o),
(218,-10,o),
(262,-10,cs),
(323,-10,o),
(361,16,o),
(382,55,c),
(390,55,l),
(402,0,l),
(468,0,l),
(468,480,l),
(378,480,l)
);
}
);
width = 543;
},
{
background = {
shapes = (
{
closed = 1;
nodes = (
(363,538,l),
(363,216,ls),
(363,154,o),
(319,142,o),
(297,142,cs),
(275,142,o),
(231,154,o),
(231,216,cs),
(231,538,l),
(67,538,l),
(67,-174,l),
(231,-174,l),
(231,-6,l),
(235,-6,o),
(238,-6,o),
(242,-6,cs),
(289,-6,o),
(337,14,o),
(367,44,c),
(367,0,l),
(527,0,l),
(527,538,l)
);
}
);
};
layerId = "BFFFD157-90D3-4B85-B99D-9A2F366F03CA";
shapes = (
{
closed = 1;
nodes = (
(318,205,ls),
(318,177,o),
(305,171,o),
(286,171,cs),
(267,171,o),
(252,177,o),
(252,205,cs),
(252,490,l),
(32,490,l),
(32,-200,l),
(232,-200,l),
(232,96,l),
(185,29,l),
(213,0,o),
(241,-12,o),
(285,-12,cs),
(328,-12,o),
(356,4,o),
(376,27,c),
(387,27,l),
(400,0,l),
(538,0,l),
(538,490,l),
(318,490,l)
);
}
);
width = 570;
},
{
layerId = "FA91A8E1-7324-47F6-AE85-AED49CFCD01C";
shapes = (
{
closed = 1;
nodes = (
(404,156,ls),
(404,48,o),
(338,0,o),
(255,0,cs),
(182,0,o),
(105,29,o),
(105,160,cs),
(105,468,l),
(98,468,l),
(98,-200,l),
(105,-200,l),
(105,106,l),
(103,105,l),
(122,15,o),
(190,-7,o),
(255,-7,cs),
(345,-7,o),
(393,45,o),
(405,107,c),
(406,107,l),
(406,0,l),
(411,0,l),
(411,468,l),
(404,468,l)
);
}
);
width = 509;
}
);
metricLeft = h;
metricRight = "=|h";
unicode = 181;
}
{
glyphname = questiondown;
layers = (
{
hints = (
{
horizontal = 1;
options = 4;
place = (700, 120);
type = TTStem;
}
);
layerId = "3E7589AA-8194-470F-8E2F-13C1C581BE24";
shapes = (
{
closed = 1;
nodes = (
(232,497,o),
(234,479,o),
(229,462,cs),
(206,385,o),
(51,353,o),
(51,179,cs),
(51,42,o),
(143,-12,o),
(271,-12,cs),
(332,-12,o),
(387,0,o),
(432,19,c),
(416,107,l),
(381,94,o),
(335,81,o),
(283,81,cs),
(196,81,o),
(144,120,o),
(144,190,cs),
(144,302,o),
(277,330,o),
(310,419,cs),
(319,443,o),
(321,470,o),
(312,515,c),
(229,515,l)
);
},
{
closed = 1;
nodes = (
(212,707,o),
(190,685,o),
(190,640,cs),
(190,596,o),
(212,574,o),
(256,574,cs),
(301,574,o),
(323,596,o),
(323,640,cs),
(323,685,o),
(301,707,o),
(256,707,cs)
);
}
);
width = 499;
},
{
layerId = "BFFFD157-90D3-4B85-B99D-9A2F366F03CA";
shapes = (
{
closed = 1;
nodes = (
(186,435,o),
(186,427,o),
(184,418,cs),
(167,343,o),
(21,350,o),
(21,182,cs),
(21,8,o),
(160,-15,o),
(283,-15,cs),
(358,-15,o),
(415,-6,o),
(458,4,c),
(424,212,l),
(396,206,o),
(359,201,o),
(318,201,cs),
(285,201,o),
(256,208,o),
(256,237,cs),
(256,294,o),
(374,268,o),
(399,360,cs),
(405,382,o),
(406,408,o),
(393,446,c),
(183,445,l)
);
},
{
closed = 1;
nodes = (
(198,711,o),
(158,670,o),
(158,587,cs),
(158,505,o),
(198,465,o),
(279,465,cs),
(362,465,o),
(402,505,o),
(402,587,cs),
(402,670,o),
(362,711,o),
(279,711,cs)
);
}
);
width = 489;
},
{
layerId = "FA91A8E1-7324-47F6-AE85-AED49CFCD01C";
shapes = (
{
closed = 1;
nodes = (
(274,518,o),
(279,464,o),
(255,427,cs),
(196,339,o),
(72,319,o),
(72,165,cs),
(72,55,o),
(139,-7,o),
(258,-7,cs),
(324,-7,o),
(380,13,o),
(426,46,c),
(424,54,l),
(382,23,o),
(319,1,o),
(259,1,cs),
(147,1,o),
(80,61,o),
(80,166,cs),
(80,315,o),
(201,331,o),
(261,422,cs),
(288,464,o),
(282,521,o),
(258,561,c),
(251,561,l)
);
},
{
closed = 1;
nodes = (
(232,705,o),
(227,700,o),
(227,690,cs),
(227,680,o),
(232,675,o),
(241,675,cs),
(250,675,o),
(255,680,o),
(255,690,cs),
(255,700,o),
(250,705,o),
(241,705,cs)
);
}
);
width = 516;
}
);
metricLeft = "=|question";
metricRight = "=|question";
unicode = 191;
}
{
glyphname = AE;
kernLeft = AE;
kernRight = E;
layers = (
{
anchors = (
{
name = bottom;
pos = (514,0);
},
{
name = ogonek;
pos = (885,0);
},
{
name = top;
pos = (562,700);
}
);
background = {
shapes = (
{
closed = 1;
nodes = (
(568,700,l),
(475,700,l),
(475,0,l),
(568,0,l)
);
},
{
closed = 1;
nodes = (
(529,700,l),
(527,610,l),
(891,610,l),
(891,700,l)
);
},
{
closed = 1;
nodes = (
(529,90,l),
(527,0,l),
(901,0,l),
(901,90,l)
);
},
{
closed = 1;
nodes = (
(529,382,l),
(527,292,l),
(871,292,l),
(871,382,l)
);
}
);
};
hints = (
{
horizontal = 1;
options = 4;
place = (0, 0);
type = TTStem;
},
{
horizontal = 1;
options = 4;
place = (0, 0);
type = TTStem;
},
{
horizontal = 1;
options = 4;
place = (0, 0);
type = TTStem;
},
{
horizontal = 1;
options = 4;
place = (0, 0);
type = TTStem;
},
{
horizontal = 1;
options = 4;
place = (0, 0);
type = TTStem;
},
{
horizontal = 1;
options = 4;
place = (0, 0);
type = TTStem;
},
{
horizontal = 1;
options = 4;
place = (0, 0);
type = TTStem;
},
{
horizontal = 1;
options = 4;
origin = (3,3);
stem = 2;
target = (3,2);
type = TTStem;
},
{
horizontal = 1;
origin = (5,2);
stem = 2;
target = (5,3);
type = TTStem;
},
{
horizontal = 1;
options = 4;
origin = (4,2);
stem = 2;
target = (4,3);
type = TTStem;
},
{
horizontal = 1;
origin = (0,3);
type = TTSnap;
},
{
horizontal = 1;
origin = (1,1);
stem = 2;
target = (1,0);
type = TTStem;
},
{
horizontal = 1;
options = 4;
origin = (0,1);
stem = 2;
target = (0,4);
type = TTStem;
}
);
layerId = "3E7589AA-8194-470F-8E2F-13C1C581BE24";
shapes = (
{
closed = 1;
nodes = (
(516,700,l),
(352,700,l),
(20,0,l),
(114,0,l),
(401,610,l),
(524,610,l)
);
},
{
closed = 1;
nodes = (
(178,269,l),
(160,178,l),
(502,178,l),
(522,269,l)
);
},
{
closed = 1;
nodes = (
(562,700,l),
(469,700,l),
(469,0,l),
(562,0,l)
);
},
{
closed = 1;
nodes = (
(523,700,l),
(521,611,l),
(875,611,l),
(875,700,l)
);
},
{
closed = 1;
nodes = (
(523,89,l),
(521,0,l),
(885,0,l),
(885,89,l)
);
},
{
closed = 1;
nodes = (
(523,381,l),
(521,292,l),
(855,292,l),
(855,381,l)
);
}
);
width = 959;
},
{
anchors = (
{
name = bottom;
pos = (552,0);
},
{
name = ogonek;
pos = (879,0);
},
{
name = top;
pos = (545,700);
}
);
background = {
shapes = (
{
closed = 1;
nodes = (
(639,700,l),
(414,700,l),
(414,0,l),
(639,0,l)
);
},
{
closed = 1;
nodes = (
(544,700,l),
(536,510,l),
(869,510,l),
(869,700,l)
);
},
{
closed = 1;
nodes = (
(544,170,l),
(536,0,l),
(879,0,l),
(879,170,l)
);
},
{
closed = 1;
nodes = (
(544,428,l),
(536,248,l),
(849,248,l),
(849,428,l)
);
}
);
};
layerId = "BFFFD157-90D3-4B85-B99D-9A2F366F03CA";
shapes = (
{
closed = 1;
nodes = (
(491,700,l),
(299,700,l),
(-10,0,l),
(223,0,l),
(409,480,l),
(491,480,l)
);
},
{
closed = 1;
nodes = (
(180,296,l),
(142,97,l),
(501,97,l),
(501,296,l)
);
},
{
closed = 1;
nodes = (
(669,700,l),
(444,700,l),
(444,0,l),
(669,0,l)
);
},
{
closed = 1;
nodes = (
(574,700,l),
(566,511,l),
(869,511,l),
(869,700,l)
);
},
{
closed = 1;
nodes = (
(574,170,l),
(566,0,l),
(879,0,l),
(879,170,l)
);
},
{
closed = 1;
nodes = (
(574,428,l),
(566,248,l),
(849,248,l),
(849,428,l)
);
}
);
width = 911;
},
{
anchors = (
{
name = bottom;
pos = (508,0);
},
{
name = ogonek;
pos = (881,0);
},
{
name = top;
pos = (599,700);
}
);
background = {
shapes = (
{
closed = 1;
nodes = (
(497,700,l),
(489,700,l),
(489,0,l),
(497,0,l)
);
},
{
closed = 1;
nodes = (
(495,700,l),
(495,692,l),
(871,692,l),
(871,700,l)
);
},
{
closed = 1;
nodes = (
(495,8,l),
(495,0,l),
(881,0,l),
(881,8,l)
);
},
{
closed = 1;
nodes = (
(495,340,l),
(495,332,l),
(851,332,l),
(851,340,l)
);
}
);
};
layerId = "FA91A8E1-7324-47F6-AE85-AED49CFCD01C";
shapes = (
{
closed = 1;
nodes = (
(504,700,l),
(404,700,l),
(47,0,l),
(56,0,l),
(409,692,l),
(504,692,l)
);
},
{
closed = 1;
nodes = (
(164,219,l),
(159,211,l),
(504,211,l),
(505,219,l)
);
},
{
closed = 1;
nodes = (
(509,700,l),
(500,700,l),
(500,0,l),
(509,0,l)
);
},
{
closed = 1;
nodes = (
(506,700,l),
(506,692,l),
(871,692,l),
(871,700,l)
);
},
{
closed = 1;
nodes = (
(506,8,l),
(508,0,l),
(881,0,l),
(881,8,l)
);
},
{
closed = 1;
nodes = (
(505,340,l),
(505,332,l),
(851,332,l),
(851,340,l)
);
}
);
width = 972;
},
{
anchors = (
{
name = bottom;
pos = (533,0);
},
{
name = ogonek;
pos = (882,0);
},
{
name = top;
pos = (554,700);
}
);
associatedMasterId = "3E7589AA-8194-470F-8E2F-13C1C581BE24";
attr = {
coordinates = (
155
);
};
background = {
shapes = (
{
closed = 1;
nodes = (
(596,700,l),
(437,700,l),
(437,0,l),
(596,0,l)
);
},
{
closed = 1;
nodes = (
(529,700,l),
(524,546,l),
(872,546,l),
(872,700,l)
);
},
{
closed = 1;
nodes = (
(529,153,l),
(524,0,l),
(882,0,l),
(882,153,l)
);
},
{
closed = 1;
nodes = (
(529,417,l),
(524,270,l),
(852,270,l),
(852,417,l)
);
}
);
};
hints = (
{
horizontal = 1;
options = 4;
place = (0, -2000);
type = TTStem;
},
{
horizontal = 1;
options = 4;
place = (0, -2000);
type = TTStem;
},
{
horizontal = 1;
options = 4;
place = (0, -2000);
type = TTStem;
},
{
horizontal = 1;
options = 4;
place = (0, -2000);
type = TTStem;
},
{
horizontal = 1;
options = 4;
place = (0, -2000);
type = TTStem;
},
{
horizontal = 1;
options = 4;
place = (0, -2000);
type = TTStem;
},
{
horizontal = 1;
options = 4;
place = (0, -2000);
type = TTStem;
},
{
horizontal = 1;
options = 4;
origin = (3,3);
stem = 2;
target = (3,2);
type = TTStem;
},
{
horizontal = 1;
origin = (5,2);
stem = 2;
target = (5,3);
type = TTStem;
},
{
horizontal = 1;
options = 4;
origin = (4,2);
stem = 2;
target = (4,3);
type = TTStem;
},
{
horizontal = 1;
origin = (0,3);
type = TTSnap;
},
{
horizontal = 1;
origin = (1,1);
stem = 2;
target = (1,0);
type = TTStem;
},
{
horizontal = 1;
options = 4;
origin = (0,1);
stem = 2;
target = (0,4);
type = TTStem;
}
);
layerId = "A6F585D8-8C06-4399-A247-0180935A3AAC";
name = "{155}";
shapes = (
{
closed = 1;
nodes = (
(504,700,l),
(326,700,l),
(5,0,l),
(169,0,l),
(405,546,l),
(508,546,l)
);
},
{
closed = 1;
nodes = (
(179,283,l),
(151,138,l),
(502,138,l),
(512,283,l)
);
},
{
closed = 1;
nodes = (
(616,700,l),
(457,700,l),
(457,0,l),
(616,0,l)
);
},
{
closed = 1;
nodes = (
(549,700,l),
(544,546,l),
(872,546,l),
(872,700,l)
);
},
{
closed = 1;
nodes = (
(549,153,l),
(544,0,l),
(882,0,l),
(882,153,l)
);
},
{
closed = 1;
nodes = (
(549,417,l),
(544,270,l),
(852,270,l),
(852,417,l)
);
}
);
width = 935;
}
);
metricRight = E;
unicode = 198;
}
